<?xml version="1.0" encoding="utf-8"?>
<!-- Generator: Adobe Illustrator 19.0.0, SVG Export Plug-In . SVG Version: 6.00 Build 0)  -->
<svg version="1.1" id="Layer_1" xmlns="http://www.w3.org/2000/svg" xmlns:xlink="http://www.w3.org/1999/xlink" x="0px" y="0px"
	 viewBox="210 -45 520 190" style="enable-background:new 210 -45 520 190;" xml:space="preserve">
<style type="text/css">
	.st0{fill:none;stroke:#00ACC8;stroke-width:7;stroke-linecap:round;stroke-linejoin:round;stroke-miterlimit:10;}
</style>
<g id="XMLID_394_">
	<g id="XMLID_2234_">
		<polyline id="XMLID_2154_" class="st0" points="725.8,32.9 706,52.7 685.3,32 664.6,52.7 643.9,32 		"/>
		<polyline id="XMLID_2153_" class="st0" points="725.8,59.5 706,79.3 685.3,58.6 664.6,79.3 643.9,58.6 		"/>
		<g id="XMLID_2160_">
			<polyline id="XMLID_2232_" class="st0" points="289.5,-38 267.4,-15.9 244.4,-39 			"/>
			<polyline id="XMLID_2163_" class="st0" points="278.5,6.7 267.2,18 255.4,6.2 			"/>
			<circle id="XMLID_2162_" class="st0" cx="298.5" cy="-12.4" r="10.3"/>
			<circle id="XMLID_2161_" class="st0" cx="237.1" cy="-12.4" r="10.3"/>
		</g>
		<g id="XMLID_2043_">
			<polyline id="XMLID_2046_" class="st0" points="214.2,50.6 236.3,28.5 259.3,51.6 			"/>
			<polyline id="XMLID_2045_" class="st0" points="214.2,74.7 236.3,52.6 259.3,75.7 			"/>
			<polyline id="XMLID_2044_" class="st0" points="214.2,98.8 236.3,76.7 259.3,99.7 			"/>
		</g>
		<g id="XMLID_2047_">
			<polyline id="XMLID_2148_" class="st0" points="279.2,50.6 301.3,28.5 324.3,51.6 			"/>
			<polyline id="XMLID_2147_" class="st0" points="279.2,74.7 301.3,52.6 324.3,75.7 			"/>
			<polyline id="XMLID_2048_" class="st0" points="279.2,98.8 301.3,76.7 324.3,99.7 			"/>
		</g>
		<g id="XMLID_2149_">
			<polyline id="XMLID_2152_" class="st0" points="599.2,90.6 621.3,68.5 644.3,91.6 			"/>
			<polyline id="XMLID_2151_" class="st0" points="599.2,114.7 621.3,92.6 644.3,115.7 			"/>
			<polyline id="XMLID_2150_" class="st0" points="599.2,138.8 621.3,116.7 644.3,139.7 			"/>
		</g>
		<g id="XMLID_390_">
			<polyline id="XMLID_393_" class="st0" points="537.1,90.6 559.2,68.5 582.2,91.6 			"/>
			<polyline id="XMLID_392_" class="st0" points="537.1,114.7 559.2,92.6 582.2,115.7 			"/>
			<polyline id="XMLID_391_" class="st0" points="537.1,138.8 559.2,116.7 582.2,139.7 			"/>
		</g>
		<path id="XMLID_2233_" class="st0" d="M340.4,98c0,0,49.6-36.4,111-0.3"/>
	</g>
	<path id="XMLID_1749_" class="st0" d="M712.3-18.7c0,0-48.7-37.6-110.9-3"/>
	<g id="XMLID_1739_">
		<g id="XMLID_1743_">
			<path id="XMLID_1747_" class="st0" d="M574-39.7c-6.6,0-10.1,2.8-10.1,10.5c0,9.9,5.8,24,10.1,24c5.1,0,10.1-14.2,10.1-24
				C584.1-36.9,580.6-39.7,574-39.7z"/>
			<path id="XMLID_1746_" class="st0" d="M574,45.8c6.6,0,10.1-2.8,10.1-10.5c0-9.9-5.8-24-10.1-24c-5.1,0-10.1,14.2-10.1,24
				C563.9,42.9,567.3,45.8,574,45.8z"/>
		</g>
		<g id="XMLID_1740_">
			<path id="XMLID_1742_" class="st0" d="M616.7,3c0-6.6-2.8-10.1-10.5-10.1c-9.9,0-24,5.8-24,10.1c0,5.1,14.2,10.1,24,10.1
				C613.9,13.1,616.7,9.7,616.7,3z"/>
			<path id="XMLID_1741_" class="st0" d="M531.2,3c0,6.6,2.8,10.1,10.5,10.1c9.9,0,24-5.8,24-10.1c0-5.1-14.2-10.1-24-10.1
				C534.1-7.1,531.2-3.6,531.2,3z"/>
		</g>
	</g>
	<g id="XMLID_1726_">
		<polyline id="XMLID_1729_" class="st0" points="469.8,82.6 491.9,60.5 515,83.6 		"/>
		<polyline id="XMLID_1728_" class="st0" points="483.6,96.2 514.8,96.2 514.8,128.9 		"/>
		<polyline id="XMLID_1727_" class="st0" points="501.5,139.6 470.3,139.6 470.3,107 		"/>
	</g>
</g>
</svg>
