<?xml version="1.0" encoding="utf-8"?>
<!-- Generator: Adobe Illustrator 19.0.0, SVG Export Plug-In . SVG Version: 6.00 Build 0)  -->
<svg version="1.1" id="pattern-1" xmlns="http://www.w3.org/2000/svg" xmlns:xlink="http://www.w3.org/1999/xlink" x="0px" y="0px"
	 viewBox="-1019 401 520 280" style="enable-background:new -1019 401 520 280;" xml:space="preserve">
<style type="text/css">
	
		.st0{fill:none;stroke:#95D600;stroke-width:7;stroke-linecap:round;stroke-linejoin:round;stroke-miterlimit:10;stroke-dasharray:56,58;}
	
		.st1{fill:none;stroke:#95D600;stroke-width:7;stroke-linecap:round;stroke-linejoin:round;stroke-miterlimit:10;stroke-dasharray:88,90;}
	
		.st2{fill:none;stroke:#95D600;stroke-width:7;stroke-linecap:round;stroke-linejoin:round;stroke-miterlimit:10;stroke-dasharray:31,33;}
	
		.st3{fill:none;stroke:#95D600;stroke-width:7;stroke-linecap:round;stroke-linejoin:round;stroke-miterlimit:10;stroke-dasharray:21,23;}
	
		.st4{fill:none;stroke:#95D600;stroke-width:7;stroke-linecap:round;stroke-linejoin:round;stroke-miterlimit:10;stroke-dasharray:12,14;}
	
		.st5{fill:none;stroke:#95D600;stroke-width:7;stroke-linecap:round;stroke-linejoin:round;stroke-miterlimit:10;stroke-dasharray:9,11;}
	
		.st6{fill:none;stroke:#95D600;stroke-width:7;stroke-linecap:round;stroke-linejoin:round;stroke-miterlimit:10;stroke-dasharray:1,3;}
	
		.st7{fill:none;stroke:#95D600;stroke-width:7;stroke-linecap:round;stroke-linejoin:round;stroke-miterlimit:10;stroke-dasharray:64,66;}
	
		.st8{fill:none;stroke:#95D600;stroke-width:7;stroke-linecap:round;stroke-linejoin:round;stroke-miterlimit:10;stroke-dasharray:118,120;}
	
		.st9{fill:none;stroke:#95D600;stroke-width:7;stroke-linecap:round;stroke-linejoin:round;stroke-miterlimit:10;stroke-dasharray:89,91;}
	
		.st10{fill:none;stroke:#95D600;stroke-width:7;stroke-linecap:round;stroke-linejoin:round;stroke-miterlimit:10;stroke-dasharray:33,35;}
	
		.st11{fill:none;stroke:#95D600;stroke-width:7;stroke-linecap:round;stroke-linejoin:round;stroke-miterlimit:10;stroke-dasharray:65,67;}
	
		.st12{fill:none;stroke:#95D600;stroke-width:7;stroke-linecap:round;stroke-linejoin:round;stroke-miterlimit:10;stroke-dasharray:20,22;}
	
		.st13{fill:none;stroke:#95D600;stroke-width:7;stroke-linecap:round;stroke-linejoin:round;stroke-miterlimit:10;stroke-dasharray:211,213;}
	.st14{fill:none;stroke:#95D600;stroke-width:7;stroke-linecap:round;stroke-linejoin:round;stroke-miterlimit:10;}
</style>
<path class="st0" d="M-658.2,649.5l15.8,23.4H-670"/>
<path class="st1" d="M-702.9,635.8c0-7.7,6.3-14,14-14c7.7,0,14,6.3,14,14l0,0c0,7.7-6.3,14-14,14
	C-696.6,649.8-702.9,643.5-702.9,635.8L-702.9,635.8"/>
<path class="st2" d="M-692.1,621.8V591"/>
<path class="st3" d="M-685.8,672.9v-20.8"/>
<path class="st4" d="M-698.4,672.9h11.1"/>
<path class="st2" d="M-679.6,624.9v-30.7"/>
<path class="st5" d="M-654.7,651.6l6.8-5.1"/>
<path class="st6" d="M-692.8,630.7L-692.8,630.7L-692.8,630.7z"/>
<path class="st7" d="M-602.4,620.6l22-22.1l23.1,23.1"/>
<path class="st7" d="M-602.4,644.7l22-22.1l23.1,23.1"/>
<path class="st7" d="M-602.4,668.8l22-22.1l23.1,23.1"/>
<path class="st7" d="M-594.3,499.1l22.1-22.1l23,23.1"/>
<path class="st7" d="M-594.3,523.2l22.1-22.1l23,23.1"/>
<path class="st7" d="M-594.3,547.3l22.1-22.1l23,23.1"/>
<path class="st7" d="M-652.9,470.4l22.1-22.1l23,23.1"/>
<path class="st7" d="M-652.9,494.4l22.1-22l23,23"/>
<path class="st7" d="M-652.9,518.5l22.1-22.1l23,23.1"/>
<path class="st7" d="M-814.5,589.7l22.1-22.1l23.1,23"/>
<path class="st7" d="M-814.5,613.7l22.1-22l23.1,23"/>
<path class="st7" d="M-814.5,637.8l22.1-22.1l23.1,23.1"/>
<path class="st7" d="M-872.8,589.7l22.1-22.1l23,23"/>
<path class="st7" d="M-872.8,613.7l22.1-22l23,23"/>
<path class="st7" d="M-872.8,637.8l22.1-22.1l23,23.1"/>
<path class="st8" d="M-1009.8,625.9c0,0,49.6,36.4,111,0.3"/>
<path class="st9" d="M-954.4,505.5c-6.6,0-10.1,2.8-10.1,10.5c0,9.9,5.8,24,10.1,24c5.1,0,10.1-14.2,10.1-24
	C-944.2,508.3-947.7,505.5-954.4,505.5z"/>
<path class="st9" d="M-954.4,591c6.6,0,10.1-2.8,10.1-10.5c0-9.9-5.8-24-10.1-24c-5.1,0-10.1,14.2-10.1,24
	C-964.5,588.2-961,591-954.4,591z"/>
<path class="st9" d="M-911.6,548.3c0-6.6-2.8-10.1-10.5-10.1c-9.9,0-24,5.8-24,10.1c0,5.1,14.2,10.1,24,10.1
	C-914.4,558.4-911.6,554.9-911.6,548.3z"/>
<path class="st9" d="M-997.1,548.3c0,6.6,2.8,10.1,10.5,10.1c9.9,0,24-5.8,24-10.1c0-5.1-14.2-10.1-24-10.1
	C-994.3,538.2-997.1,541.6-997.1,548.3z"/>
<path class="st7" d="M-527.4,410.1l-22.1,22.1l-23.1-23.1"/>
<path class="st10" d="M-538.5,454.8l-11.3,11.3l-11.7-11.8"/>
<path class="st11" d="M-528.8,435.7c0-5.7,4.6-10.3,10.3-10.3c5.7,0,10.3,4.6,10.3,10.3c0,0,0,0,0,0c0,5.7-4.6,10.3-10.3,10.3
	C-524.2,446-528.8,441.4-528.8,435.7C-528.8,435.7-528.8,435.7-528.8,435.7"/>
<path class="st11" d="M-590.2,435.7c0-5.7,4.6-10.3,10.3-10.3c5.7,0,10.3,4.6,10.3,10.3s-4.6,10.3-10.3,10.3
	C-585.6,446-590.2,441.4-590.2,435.7"/>
<path class="st12" d="M-731,574.8v-19.2"/>
<path class="st12" d="M-714.6,574.8v-19.2"/>
<path class="st13" d="M-676.5,507.9h-19.4c-0.3-0.4-0.5-0.8-0.8-1.2c-3.4-4.5-8-8.1-13.3-10.2l-6.6,9.4l-35.3,49.7l0,0h30.7
	c15.6,0,28.5-11.7,30.4-26.8L-676.5,507.9z"/>
<path class="st14" d="M-660.8,560.4c0,0-60.9,8.5-79.7,77.2"/>
<path class="st14" d="M-545.5,601.8c0,0-31.1-53.1-101.7-44.3"/>
<g>
	<path class="st14" d="M-886.3,524.5c0-8.6,6.9-15.5,15.5-15.5c8.6,0,15.5,6.9,15.5,15.5s-6.9,15.5-15.5,15.5
		C-879.4,540-886.3,533.1-886.3,524.5"/>
	<path class="st14" d="M-838.3,509c4.3,0,7.7,6.9,7.7,15.5s-3.5,15.5-7.7,15.5"/>
	<path class="st14" d="M-821.9,508.6c4.3,0,7.7,7,7.7,15.7s-3.5,15.7-7.7,15.7"/>
	<path class="st14" d="M-818.6,540h-17.3c-8.6,0-15.7-7.1-15.7-15.7l0,0c0-8.6,7.1-15.7,15.7-15.7h17.3c8.6,0,15.7,7.1,15.7,15.7
		l0,0C-802.9,532.9-809.9,540-818.6,540z"/>
	<path class="st14" d="M-836.9,507.2l29.6-21.4"/>
	<path class="st14" d="M-886.3,524.5l-9.3-0.4"/>
	<path class="st14" d="M-876,520L-876,520L-876,520z"/>
</g>
<path class="st6" d="M-705.5,516.9L-705.5,516.9L-705.5,516.9z"/>
</svg>
