<?xml version="1.0" encoding="utf-8"?>
<!-- Generator: Adobe Illustrator 19.0.0, SVG Export Plug-In . SVG Version: 6.00 Build 0)  -->
<svg version="1.1" id="Layer_2" xmlns="http://www.w3.org/2000/svg" xmlns:xlink="http://www.w3.org/1999/xlink" x="0px" y="0px"
	 viewBox="0 0 550 300" style="enable-background:new 0 0 550 300;" xml:space="preserve">
<style type="text/css">
	.st0{opacity:0.2;}
	.st1{fill:none;stroke:#00ACC8;stroke-width:7;stroke-linecap:round;stroke-linejoin:round;stroke-miterlimit:10;}
	.st2{fill:#00ACC8;}
</style>
<g id="XMLID_6_" class="st0">
	<g id="XMLID_1691_">
		<polyline id="XMLID_1699_" class="st1" points="375.8,258.5 391.6,281.9 364,281.9 		"/>
		<circle id="XMLID_1698_" class="st1" cx="345.1" cy="244.8" r="14"/>
		<line id="XMLID_1697_" class="st1" x1="341.9" y1="230.8" x2="341.9" y2="200"/>
		<line id="XMLID_1696_" class="st1" x1="348.2" y1="281.9" x2="348.2" y2="261.1"/>
		<line id="XMLID_1695_" class="st1" x1="335.6" y1="281.9" x2="346.7" y2="281.9"/>
		<line id="XMLID_1694_" class="st1" x1="354.4" y1="233.9" x2="354.4" y2="203.2"/>
		<line id="XMLID_1693_" class="st1" x1="379.3" y1="260.6" x2="386.1" y2="255.5"/>
		<line id="XMLID_1692_" class="st1" x1="340.5" y1="243.2" x2="340.5" y2="243.2"/>
	</g>
	<g id="XMLID_1687_">
		<polyline id="XMLID_1690_" class="st1" points="431.6,229.6 453.6,207.5 476.7,230.6 		"/>
		<polyline id="XMLID_1689_" class="st1" points="431.6,253.7 453.6,231.6 476.7,254.7 		"/>
		<polyline id="XMLID_1688_" class="st1" points="431.6,277.8 453.6,255.7 476.7,278.8 		"/>
	</g>
	<g id="XMLID_1683_">
		<polyline id="XMLID_1686_" class="st1" points="439.7,108.1 461.8,86 484.8,109.1 		"/>
		<polyline id="XMLID_1685_" class="st1" points="439.7,132.2 461.8,110.1 484.8,133.2 		"/>
		<polyline id="XMLID_1684_" class="st1" points="439.7,156.3 461.8,134.2 484.8,157.3 		"/>
	</g>
	<g id="XMLID_1679_">
		<polyline id="XMLID_1682_" class="st1" points="381.1,79.4 403.2,57.3 426.2,80.4 		"/>
		<polyline id="XMLID_1681_" class="st1" points="381.1,103.4 403.2,81.4 426.2,104.4 		"/>
		<polyline id="XMLID_1680_" class="st1" points="381.1,127.5 403.2,105.4 426.2,128.5 		"/>
	</g>
	<g id="XMLID_1675_">
		<polyline id="XMLID_1678_" class="st1" points="219.5,198.7 241.6,176.6 264.7,199.6 		"/>
		<polyline id="XMLID_1677_" class="st1" points="219.5,222.7 241.6,200.7 264.7,223.7 		"/>
		<polyline id="XMLID_1676_" class="st1" points="219.5,246.8 241.6,224.7 264.7,247.8 		"/>
	</g>
	<g id="XMLID_1671_">
		<polyline id="XMLID_1674_" class="st1" points="161.2,198.7 183.3,176.6 206.3,199.6 		"/>
		<polyline id="XMLID_1673_" class="st1" points="161.2,222.7 183.3,200.7 206.3,223.7 		"/>
		<polyline id="XMLID_1672_" class="st1" points="161.2,246.8 183.3,224.7 206.3,247.8 		"/>
	</g>
	<path id="XMLID_1670_" class="st1" d="M24.2,234.9c0,0,49.6,36.4,111,0.3"/>
	<g id="XMLID_1663_">
		<g id="XMLID_1667_">
			<path id="XMLID_1669_" class="st1" d="M79.6,114.5c-6.6,0-10.1,2.8-10.1,10.5c0,9.9,5.8,24,10.1,24c5.1,0,10.1-14.2,10.1-24
				C89.8,117.3,86.3,114.5,79.6,114.5z"/>
			<path id="XMLID_1668_" class="st1" d="M79.6,200c6.6,0,10.1-2.8,10.1-10.5c0-9.9-5.8-24-10.1-24c-5.1,0-10.1,14.2-10.1,24
				C69.5,197.2,73,200,79.6,200z"/>
		</g>
		<g id="XMLID_1664_">
			<path id="XMLID_1666_" class="st1" d="M122.4,157.3c0-6.6-2.8-10.1-10.5-10.1c-9.9,0-24,5.8-24,10.1c0,5.1,14.2,10.1,24,10.1
				C119.6,167.4,122.4,163.9,122.4,157.3z"/>
			<path id="XMLID_1665_" class="st1" d="M36.9,157.3c0,6.6,2.8,10.1,10.5,10.1c9.9,0,24-5.8,24-10.1c0-5.1-14.2-10.1-24-10.1
				C39.7,147.2,36.9,150.6,36.9,157.3z"/>
		</g>
	</g>
	<g id="XMLID_1658_">
		<polyline id="XMLID_1662_" class="st1" points="506.6,19.1 484.5,41.2 461.4,18.1 		"/>
		<polyline id="XMLID_1661_" class="st1" points="495.5,63.8 484.2,75.1 472.5,63.3 		"/>
		<circle id="XMLID_1660_" class="st1" cx="515.5" cy="44.7" r="10.3"/>
		<circle id="XMLID_1659_" class="st1" cx="454.1" cy="44.7" r="10.3"/>
	</g>
	<g id="XMLID_1653_">
		<path id="XMLID_1_" class="st1" d="M323.1,128.3"/>
		<line id="XMLID_1656_" class="st1" x1="303" y1="183.8" x2="303" y2="164.6"/>
		<line id="XMLID_1655_" class="st1" x1="319.4" y1="183.8" x2="319.4" y2="164.6"/>
		<path id="XMLID_1654_" class="st1" d="M357.5,116.9h-19.4c-0.3-0.4-0.5-0.8-0.8-1.2c-3.4-4.5-8-8.1-13.3-10.2l-6.6,9.4l-35.3,49.7
			v0h30.7c15.6,0,28.5-11.7,30.4-26.8L357.5,116.9z"/>
	</g>
	<path id="XMLID_1652_" class="st1" d="M373.2,169.4c0,0-60.9,8.5-79.7,77.2"/>
	<path id="XMLID_1650_" class="st1" d="M488.5,210.8c0,0-31.1-53.1-101.7-44.3"/>
	<g id="XMLID_929_">
		<circle id="XMLID_1649_" class="st1" cx="163.2" cy="133.5" r="15.5"/>
		<path id="XMLID_1647_" class="st1" d="M195.7,118c4.3,0,7.7,6.9,7.7,15.5c0,8.6-3.5,15.5-7.7,15.5"/>
		<path id="XMLID_1646_" class="st1" d="M212.1,117.6c4.3,0,7.7,7,7.7,15.7c0,8.7-3.5,15.7-7.7,15.7"/>
		<path id="XMLID_1645_" class="st1" d="M215.4,149h-17.3c-8.6,0-15.7-7.1-15.7-15.7l0,0c0-8.6,7.1-15.7,15.7-15.7h17.3
			c8.6,0,15.7,7.1,15.7,15.7l0,0C231.1,141.9,224.1,149,215.4,149z"/>
		<line id="XMLID_1644_" class="st1" x1="197.1" y1="116.2" x2="226.7" y2="94.8"/>
		<line id="XMLID_1643_" class="st1" x1="147.7" y1="133.5" x2="138.4" y2="133.1"/>
		<g id="XMLID_930_">
			<g id="XMLID_931_">
				<g id="XMLID_932_">
					<g id="XMLID_933_">
						<path id="XMLID_69_" class="st2" d="M158,127.5c-0.9,0-1.8,0.3-2.5,1c-0.6,0.7-1,1.5-1,2.5c0,0.9,0.4,1.8,1.1,2.5
							c0.6,0.6,1.5,1,2.5,1c0.9,0,1.8-0.4,2.5-1c0.7-0.7,1-1.6,1-2.5c0-0.9-0.4-1.8-1-2.5C159.9,127.8,159,127.5,158,127.5
							L158,127.5z"/>
					</g>
				</g>
			</g>
		</g>
	</g>
	<g id="XMLID_2_">
		<g id="XMLID_3_">
			<g id="XMLID_4_">
				<g id="XMLID_5_">
					<path id="XMLID_70_" class="st2" d="M325.8,121.6c-0.9,0-1.8,0.3-2.5,1c-0.6,0.7-1,1.5-1,2.5c0,0.9,0.4,1.8,1.1,2.5
						c0.6,0.6,1.5,1,2.5,1c0.9,0,1.8-0.4,2.5-1c0.7-0.7,1-1.6,1-2.5c0-0.9-0.4-1.8-1-2.5C327.6,122,326.7,121.6,325.8,121.6
						L325.8,121.6z"/>
				</g>
			</g>
		</g>
	</g>
</g>
</svg>
