<?xml version="1.0" encoding="utf-8"?>
<!-- Generator: Adobe Illustrator 19.0.0, SVG Export Plug-In . SVG Version: 6.00 Build 0)  -->
<svg version="1.1" id="Layer_1" xmlns="http://www.w3.org/2000/svg" xmlns:xlink="http://www.w3.org/1999/xlink" x="0px" y="0px"
	 viewBox="0 0 1000 400" style="enable-background:new 0 0 1000 400;" xml:space="preserve">
<style type="text/css">
	.st0{opacity:0.4;}
	.st1{fill:none;stroke:#96C122;stroke-width:7;stroke-linecap:round;stroke-linejoin:round;stroke-miterlimit:10;}
</style>
<g id="XMLID_928_" class="st0">
	<g id="XMLID_1870_">
		<polyline id="XMLID_1873_" class="st1" points="708.3,156 730.4,133.9 753.4,157 		"/>
		<polyline id="XMLID_1872_" class="st1" points="708.3,180.1 730.4,158 753.4,181.1 		"/>
		<polyline id="XMLID_1871_" class="st1" points="708.3,204.2 730.4,182.1 753.4,205.2 		"/>
	</g>
	<g id="XMLID_1882_">
		<polyline id="XMLID_1885_" class="st1" points="660.6,261.7 682.7,239.6 705.7,262.7 		"/>
		<polyline id="XMLID_1884_" class="st1" points="660.6,285.8 682.7,263.7 705.7,286.8 		"/>
		<polyline id="XMLID_1883_" class="st1" points="660.6,309.9 682.7,287.8 705.7,310.9 		"/>
	</g>
	<g id="XMLID_1874_">
		<polyline id="XMLID_1877_" class="st1" points="780.6,156 802.7,133.9 825.8,157 		"/>
		<polyline id="XMLID_1876_" class="st1" points="780.6,180.1 802.7,158 825.8,181.1 		"/>
		<polyline id="XMLID_1875_" class="st1" points="780.6,204.2 802.7,182.1 825.8,205.2 		"/>
	</g>
	<g id="XMLID_1865_">
		<circle id="XMLID_1868_" class="st1" cx="600.4" cy="180.3" r="11.9"/>
		<circle id="XMLID_1867_" class="st1" cx="653.5" cy="180.3" r="11.9"/>
		<path id="XMLID_1866_" class="st1" d="M625.5,89.1v32.9h-32.9c0,18.2,14.7,32.9,32.9,32.9s32.9-14.7,32.9-32.9
			S643.6,89.1,625.5,89.1z"/>
	</g>
	<g id="XMLID_1869_">
		<polyline id="XMLID_1880_" class="st1" points="888.6,170.9 868,190.4 847.4,170.9 		"/>
		<polyline id="XMLID_1879_" class="st1" points="888.6,193.9 868,213.4 847.4,193.9 		"/>
		<polygon id="XMLID_1878_" class="st1" points="868,283.2 854.3,230.2 883,230.2 		"/>
	</g>
	<line id="XMLID_1881_" class="st1" x1="708.3" y1="204.2" x2="592.4" y2="204.2"/>
	<g id="XMLID_1642_">
		<polyline id="XMLID_1893_" class="st1" points="548.7,217.8 564.4,241.2 536.8,241.2 		"/>
		<circle id="XMLID_1892_" class="st1" cx="517.9" cy="204.2" r="14"/>
		<line id="XMLID_1891_" class="st1" x1="514.7" y1="190.1" x2="514.7" y2="159.4"/>
		<line id="XMLID_1890_" class="st1" x1="521" y1="241.2" x2="521" y2="220.5"/>
		<line id="XMLID_1889_" class="st1" x1="508.4" y1="241.2" x2="519.5" y2="241.2"/>
		<line id="XMLID_1888_" class="st1" x1="527.2" y1="193.3" x2="527.2" y2="162.5"/>
		<line id="XMLID_1887_" class="st1" x1="552.1" y1="219.9" x2="558.9" y2="214.8"/>
		<line id="XMLID_1886_" class="st1" x1="513.3" y1="202.5" x2="513.3" y2="202.5"/>
	</g>
	<polyline id="XMLID_1075_" class="st1" points="114.5,224.3 259.1,224.3 299.6,179.1 460.4,179.1 	"/>
	<g id="XMLID_1894_">
		<line id="XMLID_1898_" class="st1" x1="165.7" y1="167.4" x2="165.7" y2="167.4"/>
		<line id="XMLID_1897_" class="st1" x1="145.6" y1="222.9" x2="145.6" y2="203.7"/>
		<line id="XMLID_1896_" class="st1" x1="162" y1="222.9" x2="162" y2="203.7"/>
		<path id="XMLID_1895_" class="st1" d="M200.1,156h-19.4c-0.3-0.4-0.5-0.8-0.8-1.2c-3.4-4.5-8-8.1-13.3-10.2L160,154l-35.3,49.7v0
			h30.7c15.6,0,28.5-11.7,30.4-26.8L200.1,156z"/>
	</g>
	<g id="XMLID_921_">
		<g id="XMLID_1901_">
			<circle id="XMLID_1900_" class="st1" cx="134.4" cy="279.4" r="10.4"/>
			<circle id="XMLID_1899_" class="st1" cx="180.9" cy="279.4" r="10.4"/>
		</g>
		<line id="XMLID_1902_" class="st1" x1="203.9" y1="269" x2="111.4" y2="269"/>
	</g>
	<g id="XMLID_905_">
		<circle id="XMLID_780_" class="st1" cx="415.3" cy="161.8" r="10.4"/>
		<circle id="XMLID_898_" class="st1" cx="348.3" cy="161.8" r="10.4"/>
		<polyline id="XMLID_902_" class="st1" points="355.7,135.4 380.7,160.4 402.2,139 		"/>
		<line id="XMLID_904_" class="st1" x1="348.3" y1="135.4" x2="368.6" y2="135.4"/>
		<polyline id="XMLID_899_" class="st1" points="415.3,151.4 415.3,117.8 446.3,117.8 		"/>
	</g>
</g>
</svg>
