<?xml version="1.0" encoding="utf-8"?>
<!-- Generator: Adobe Illustrator 19.0.0, SVG Export Plug-In . SVG Version: 6.00 Build 0)  -->
<svg version="1.1" id="Layer_1" xmlns="http://www.w3.org/2000/svg" xmlns:xlink="http://www.w3.org/1999/xlink" x="0px" y="0px"
	 viewBox="0 0 25 50" style="enable-background:new 0 0 25 50;" xml:space="preserve">
<style type="text/css">
	.st0{fill:none;stroke:#FFD100;stroke-width:4;stroke-linecap:round;stroke-linejoin:round;stroke-miterlimit:10;}
</style>
<g id="XMLID_53_">
	<path id="XMLID_3614_" class="st0" d="M12.5,14.5l9.2,0.2v8.8c0,0,0,2.9-3,2.9c-2.2,0-3.5,1.2-3,5.8c0.5,4.1,0.8,4.9,0.8,9.3
		c0,5.1-3.6,5.1-3.6,5.1h-0.8c0,0-3.6,0-3.6-5.1c0-4.4,0.4-5.2,0.8-9.3c0.5-4.6-0.8-5.8-3-5.8c-3,0-3-2.9-3-2.9v-8.8L12.5,14.5"/>
	<polyline id="XMLID_3652_" class="st0" points="20.4,13.2 20.4,3.4 4.6,3.4 4.6,13.2 	"/>
</g>
</svg>
