<?xml version="1.0" encoding="utf-8"?>
<!-- Generator: Adobe Illustrator 19.0.0, SVG Export Plug-In . SVG Version: 6.00 Build 0)  -->
<svg version="1.1" id="Layer_1" xmlns="http://www.w3.org/2000/svg" xmlns:xlink="http://www.w3.org/1999/xlink" x="0px" y="0px"
	 viewBox="1 -1 34 34" style="enable-background:new 1 -1 34 34;" xml:space="preserve">
<style type="text/css">
	.st0{fill:none;stroke:#F03C18;stroke-width:3;stroke-linecap:round;stroke-linejoin:round;stroke-miterlimit:10;}
</style>
<path id="XMLID_3726_" class="st0" d="M19.9,5.6c0,0-0.9-1.2-3.2-0.8c-0.5,0.1-2,0.5-4.4,0.7C9.9,5.4,8.4,4.9,7.9,4.8
	C5.6,4.4,4.7,5.6,4.7,5.6s-3.3,3-1.6,6.9c1.6,3.9,4.2,5,3.4,6.7S4.3,21.7,4,23.3c-0.3,1.6,0.5,4.1,2.7,4.1c2,0,1.7-2.6,3.4-3.9
	c1.3-0.9,3.3-0.9,4.6,0c1.7,1.2,1.3,3.9,3.4,3.9s2.9-2.5,2.7-4.1c-0.3-1.6-1.8-2.3-2.5-4.1c-0.7-1.8,1.8-2.9,3.4-6.7
	C23.1,8.5,19.9,5.6,19.9,5.6z"/>
</svg>
