<?xml version="1.0" encoding="utf-8"?>
<!-- Generator: Adobe Illustrator 19.0.0, SVG Export Plug-In . SVG Version: 6.00 Build 0)  -->
<svg version="1.1" id="Layer_1" xmlns="http://www.w3.org/2000/svg" xmlns:xlink="http://www.w3.org/1999/xlink" x="0px" y="0px"
	 viewBox="1 -1 34 34" style="enable-background:new 1 -1 34 34;" xml:space="preserve">
<style type="text/css">
	.st0{fill:none;stroke:#FFD100;stroke-width:3;stroke-linecap:round;stroke-linejoin:round;stroke-miterlimit:10;}
</style>
<g id="XMLID_3867_">
	<path id="XMLID_3870_" class="st0" d="M2.5,21.4c2.9,0,2.9,4,5.9,4c2.9,0,2.9-4,5.9-4c2.9,0,2.9,4,5.9,4c2.9,0,2.9-4,5.9-4"/>
	<path id="XMLID_3869_" class="st0" d="M2.5,6.7c2.9,0,2.9,4,5.9,4c2.9,0,2.9-4,5.9-4c2.9,0,2.9,4,5.9,4c2.9,0,2.9-4,5.9-4"/>
	<path id="XMLID_3868_" class="st0" d="M2.5,14.2c2.9,0,2.9,4,5.9,4c2.9,0,2.9-4,5.9-4c2.9,0,2.9,4,5.9,4c2.9,0,2.9-4,5.9-4"/>
</g>
</svg>
