<?xml version="1.0" encoding="utf-8"?>
<!-- Generator: Adobe Illustrator 19.0.0, SVG Export Plug-In . SVG Version: 6.00 Build 0)  -->
<svg version="1.1" id="Layer_1" xmlns="http://www.w3.org/2000/svg" xmlns:xlink="http://www.w3.org/1999/xlink" x="0px" y="0px"
	 viewBox="1 -1 34 34" style="enable-background:new 1 -1 34 34;" xml:space="preserve">
<style type="text/css">
	.st0{fill:none;stroke:#F38B00;stroke-width:3;stroke-linecap:round;stroke-linejoin:round;stroke-miterlimit:10;}
	.st1{fill:#F38B00;}
</style>
<g id="XMLID_3729_">
	<polyline id="XMLID_3791_" class="st0" points="19,18.2 5.3,18.2 2.5,8.6 	"/>
	<polyline id="XMLID_3790_" class="st0" points="19,18.2 22,4.4 27.9,4.4 	"/>
	<line id="XMLID_3789_" class="st0" x1="2.5" y1="8.6" x2="16.7" y2="8.6"/>
	<g id="XMLID_3786_">
		<g id="XMLID_3788_">
			<path id="XMLID_69_" class="st1" d="M6,24.5c0.9,0,1.6,0.7,1.6,1.6S6.9,27.7,6,27.7S4.4,27,4.4,26.1C4.4,25.2,5.1,24.5,6,24.5
				 M6,21.5c-2.5,0-4.6,2-4.6,4.6c0,2.5,2,4.6,4.6,4.6c2.5,0,4.6-2,4.6-4.6C10.5,23.5,8.5,21.5,6,21.5L6,21.5z"/>
		</g>
		<g id="XMLID_3787_">
			<path id="XMLID_66_" class="st1" d="M18.7,24.5c0.9,0,1.6,0.7,1.6,1.6s-0.7,1.6-1.6,1.6s-1.6-0.7-1.6-1.6S17.8,24.5,18.7,24.5
				 M18.7,21.5c-2.5,0-4.6,2-4.6,4.6c0,2.5,2,4.6,4.6,4.6c2.5,0,4.6-2,4.6-4.6C23.2,23.5,21.2,21.5,18.7,21.5L18.7,21.5z"/>
		</g>
	</g>
</g>
</svg>
