<?xml version="1.0" encoding="utf-8"?>
<!-- Generator: Adobe Illustrator 19.0.0, SVG Export Plug-In . SVG Version: 6.00 Build 0)  -->
<svg version="1.1" id="Layer_1" xmlns="http://www.w3.org/2000/svg" xmlns:xlink="http://www.w3.org/1999/xlink" x="0px" y="0px"
	 viewBox="0 0 530 310" style="enable-background:new 0 0 530 310;" xml:space="preserve">
<style type="text/css">
	.st0{fill:none;stroke:#00acc8  ;stroke-width:7;stroke-linecap:round;stroke-linejoin:round;stroke-miterlimit:10;}
</style>
<g id="XMLID_3376_">
	<polyline id="XMLID_3281_" class="st0" points="53.1,141.6 205.5,141.6 235.1,182.5 371.6,182.5 426.6,94.8 491.3,94.8 	"/>
	<polyline id="XMLID_2355_" class="st0" points="77.6,245.9 184.1,245.9 205.5,280.2 346.9,280.2 	"/>
	<g id="XMLID_3575_">
		<polyline id="XMLID_3583_" class="st0" points="346.9,238.7 365.9,219.7 385.8,239.6 		"/>
		<polyline id="XMLID_3578_" class="st0" points="346.9,259.5 365.9,240.4 385.8,260.3 		"/>
		<polyline id="XMLID_3576_" class="st0" points="346.9,280.2 365.9,261.2 385.8,281.1 		"/>
	</g>
	<g id="XMLID_3585_">
		<polyline id="XMLID_3588_" class="st0" points="38.7,224.3 57.7,205.2 77.6,225.1 		"/>
		<polyline id="XMLID_3587_" class="st0" points="38.7,245 57.7,226 77.6,245.9 		"/>
		<polyline id="XMLID_3586_" class="st0" points="38.7,265.8 57.7,246.7 77.6,266.6 		"/>
	</g>
	<g id="XMLID_3420_">
		<polyline id="XMLID_3423_" class="st0" points="55,70 77.1,47.9 100.2,70.9 		"/>
		<polyline id="XMLID_3422_" class="st0" points="68.8,83.6 100,83.6 100,116.2 		"/>
		<polyline id="XMLID_3421_" class="st0" points="86.8,127 55.5,127 55.5,94.4 		"/>
	</g>
	<g id="XMLID_3415_">
		<polyline id="XMLID_3419_" class="st0" points="149.1,112.2 149.5,96.4 166.8,96.4 		"/>
		<circle id="XMLID_3418_" class="st0" cx="187" cy="104.9" r="19.9"/>
		<line id="XMLID_3417_" class="st0" x1="206.9" y1="96.6" x2="222.3" y2="85"/>
		<line id="XMLID_3416_" class="st0" x1="187" y1="85" x2="187" y2="78.3"/>
	</g>
	<g id="XMLID_3397_">
		<g id="XMLID_3401_">
			<path id="XMLID_3403_" class="st0" d="M397.9,28.9c-5.6,0-8.6,2.4-8.6,8.9c0,8.4,4.9,20.4,8.6,20.4c4.3,0,8.6-12,8.6-20.4
				C406.5,31.3,403.5,28.9,397.9,28.9z"/>
			<path id="XMLID_3402_" class="st0" d="M397.9,101.5c5.6,0,8.6-2.4,8.6-8.9c0-8.4-4.9-20.4-8.6-20.4c-4.3,0-8.6,12-8.6,20.4
				C389.3,99.1,392.3,101.5,397.9,101.5z"/>
		</g>
		<g id="XMLID_3398_">
			<path id="XMLID_3400_" class="st0" d="M434.2,65.2c0-5.6-2.4-8.6-8.9-8.6c-8.4,0-20.4,4.9-20.4,8.6c0,4.3,12,8.6,20.4,8.6
				C431.8,73.8,434.2,70.8,434.2,65.2z"/>
			<path id="XMLID_3399_" class="st0" d="M361.6,65.2c0,5.6,2.4,8.6,8.9,8.6c8.4,0,20.4-4.9,20.4-8.6c0-4.3-12-8.6-20.4-8.6
				C364,56.6,361.6,59.6,361.6,65.2z"/>
		</g>
	</g>
	<g id="XMLID_3404_">
		<g id="XMLID_3408_">
			<path id="XMLID_3410_" class="st0" d="M142.2,157.5c-5.6,0-8.6,2.4-8.6,8.9c0,8.4,4.9,20.4,8.6,20.4c4.3,0,8.6-12,8.6-20.4
				C150.8,159.9,147.9,157.5,142.2,157.5z"/>
			<path id="XMLID_3409_" class="st0" d="M142.2,230.1c5.6,0,8.6-2.4,8.6-8.9c0-8.4-4.9-20.4-8.6-20.4c-4.3,0-8.6,12-8.6,20.4
				C133.7,227.6,136.6,230.1,142.2,230.1z"/>
		</g>
		<g id="XMLID_3405_">
			<path id="XMLID_3407_" class="st0" d="M178.5,193.8c0-5.6-2.4-8.6-8.9-8.6c-8.4,0-20.4,4.9-20.4,8.6c0,4.3,12,8.6,20.4,8.6
				C176.1,202.3,178.5,199.4,178.5,193.8z"/>
			<path id="XMLID_3406_" class="st0" d="M105.9,193.8c0,5.6,2.4,8.6,8.9,8.6c8.4,0,20.4-4.9,20.4-8.6c0-4.3-12-8.6-20.4-8.6
				C108.4,185.2,105.9,188.1,105.9,193.8z"/>
		</g>
	</g>
	<g id="XMLID_1721_">
		<polyline id="XMLID_1723_" class="st0" points="240.3,160.6 240.3,151.9 255.3,151.9 		"/>
		<path id="XMLID_1722_" class="st0" d="M257.4,144c0,0.2,0,0.5,0,0.7c0,13.2,10.7,23.9,23.9,23.9c13.2,0,23.9-10.7,23.9-23.9
			c0-0.2,0-0.5,0-0.7H257.4z"/>
	</g>
	<g id="XMLID_3_">
		<path id="XMLID_20_" class="st0" d="M255.7,259.4c-4.2,0-7.7-6.9-7.7-15.5s3.4-15.5,7.7-15.5"/>
		<path id="XMLID_19_" class="st0" d="M239.3,259.4c-4.2,0-7.7-7-7.7-15.7s3.4-15.7,7.7-15.7"/>
		<path id="XMLID_18_" class="st0" d="M220.2,243.7L220.2,243.7c0-8.6,7.1-15.7,15.7-15.7h17.3c8.6,0,15.7,7.1,15.7,15.7l0,0
			c0,8.6-7.1,15.7-15.7,15.7h-17.3C227.3,259.4,220.2,252.3,220.2,243.7z"/>
		<line id="XMLID_16_" class="st0" x1="313" y1="243.5" x2="303.6" y2="243.9"/>
		<line id="XMLID_3437_" class="st0" x1="254.4" y1="226.5" x2="224.7" y2="205.2"/>
		<path class="st0" d="M303.6,243.9c0,8.6-6.9,15.5-15.5,15.5s-15.5-6.9-15.5-15.5s6.9-15.5,15.5-15.5S303.6,235.3,303.6,243.9"/>
		<path class="st0" d="M293.3,239.4L293.3,239.4L293.3,239.4z"/>
	</g>
</g>
</svg>
