<?xml version="1.0" encoding="utf-8"?>
<!-- Generator: Adobe Illustrator 19.0.0, SVG Export Plug-In . SVG Version: 6.00 Build 0)  -->
<svg version="1.1" id="Layer_1" xmlns="http://www.w3.org/2000/svg" xmlns:xlink="http://www.w3.org/1999/xlink" x="0px" y="0px"
	 viewBox="0 0 520 220" style="enable-background:new 0 0 520 220;" xml:space="preserve">
<style type="text/css">
	.st0{fill:none;stroke:#00acc8 ;stroke-width:7;stroke-linecap:round;stroke-linejoin:round;stroke-miterlimit:10;}
</style>
<g>
	<g id="XMLID_1907_">
		<polyline id="XMLID_1909_" class="st0" points="460.2,4.9 488,4.9 488,17.9 		"/>
		<path id="XMLID_1908_" class="st0" d="M488,55.4V28.7h-28.2c-15.6,0-28.3,12.7-28.3,28.3c0,0.5,0.1,1.1,0.1,1.6h28.2H488
			c0-0.5,0.1-1.1,0.1-1.6C488,56.5,488,55.9,488,55.4z"/>
	</g>
	<g id="XMLID_1903_">
		<line id="XMLID_1906_" class="st0" x1="451.2" y1="182.5" x2="458" y2="177.4"/>
		<path id="XMLID_1905_" class="st0" d="M458,203.8c0-0.5,0.1-1.1,0.1-1.6c0-15.6-12.7-28.3-28.3-28.3s-28.3,12.7-28.3,28.3
			c0,0.5,0.1,1.1,0.1,1.6H458z"/>
		<path id="XMLID_1904_" class="st0" d="M450.5,162.5c-5.2-5.3-12.4-8.6-20.4-8.6c-7.2,0-13.8,2.7-18.8,7.1"/>
	</g>
	<path id="XMLID_417_" class="st0" d="M514.5,91c0,0-48.7-37.6-110.9-3"/>
	<path id="XMLID_1748_" class="st0" d="M282.7,165.2c0,0,48.7,37.6,110.9,3"/>
	<g id="XMLID_410_">
		<g id="XMLID_414_">
			<path id="XMLID_416_" class="st0" d="M346.2,69.9c-6.6,0-10.1,2.8-10.1,10.5c0,9.9,5.8,24,10.1,24c5.1,0,10.1-14.2,10.1-24
				C356.2,72.8,352.8,69.9,346.2,69.9z"/>
			<path id="XMLID_415_" class="st0" d="M346.2,155.4c6.6,0,10.1-2.8,10.1-10.5c0-9.9-5.8-24-10.1-24c-5.1,0-10.1,14.2-10.1,24
				C336,152.6,339.5,155.4,346.2,155.4z"/>
		</g>
		<g id="XMLID_411_">
			<path id="XMLID_413_" class="st0" d="M388.8,112.7c0-6.6-2.8-10.1-10.5-10.1c-9.9,0-24,5.8-24,10.1c0,5.1,14.2,10.1,24,10.1
				C386,122.8,388.8,119.3,388.8,112.7z"/>
			<path id="XMLID_412_" class="st0" d="M303.2,112.7c0,6.6,2.8,10.1,10.5,10.1c9.9,0,24-5.8,24-10.1c0-5.1-14.2-10.1-24-10.1
				C306.2,102.6,303.2,106,303.2,112.7z"/>
		</g>
	</g>
	<g id="XMLID_1732_">
		<g id="XMLID_1736_">
			<path id="XMLID_1738_" class="st0" d="M112.5,125.5c-6.6,0-10.1,2.8-10.1,10.5c0,9.9,5.8,24,10.1,24c5.1,0,10.1-14.2,10.1-24
				C122.5,128.4,119,125.5,112.5,125.5z"/>
			<path id="XMLID_1737_" class="st0" d="M112.5,211c6.6,0,10.1-2.8,10.1-10.5c0-9.9-5.8-24-10.1-24c-5.1,0-10.1,14.2-10.1,24
				C102.2,208.2,105.8,211,112.5,211z"/>
		</g>
		<g id="XMLID_1733_">
			<path id="XMLID_1735_" class="st0" d="M155.2,168.3c0-6.6-2.8-10.1-10.5-10.1c-9.9,0-24,5.8-24,10.1c0,5.1,14.2,10.1,24,10.1
				C152.2,178.4,155.2,174.9,155.2,168.3z"/>
			<path id="XMLID_1734_" class="st0" d="M69.8,168.3c0,6.6,2.8,10.1,10.5,10.1c9.9,0,24-5.8,24-10.1c0-5.1-14.2-10.1-24-10.1
				C72.5,158.2,69.8,161.6,69.8,168.3z"/>
		</g>
	</g>
	<polyline id="XMLID_1731_" class="st0" points="256.5,66.8 278.7,44.7 301.8,67.8 	"/>
	<g id="XMLID_395_">
		<polyline id="XMLID_1730_" class="st0" points="225,129.6 247,107.5 270.2,130.6 		"/>
		<polyline id="XMLID_409_" class="st0" points="225,158.1 247,136 270.2,159.1 		"/>
		<polyline id="XMLID_408_" class="st0" points="238.7,171.7 270,171.7 270,204.4 		"/>
		<polyline id="XMLID_407_" class="st0" points="256.7,215.1 225.5,215.1 225.5,182.5 		"/>
	</g>
	<path id="XMLID_1725_" class="st0" d="M99.5,97.4c0,0-61.4-4.2-93.9,59.1"/>
	<path id="XMLID_1724_" class="st0" d="M117.5,97.4c0,0,61.4-4.2,93.9,59.1"/>
	<g id="XMLID_1715_">
		<polyline id="XMLID_1720_" class="st0" points="71.8,63.3 72,47.5 89.5,47.5 		"/>
		<circle id="XMLID_1719_" class="st0" cx="109.8" cy="56" r="19.9"/>
		<line id="XMLID_1718_" class="st0" x1="129.5" y1="47.7" x2="145" y2="36.1"/>
		<line id="XMLID_1717_" class="st0" x1="109.8" y1="36.1" x2="109.8" y2="29.4"/>
	</g>
	<g id="XMLID_1721_">
		<polyline id="XMLID_1723_" class="st0" points="146.8,87.1 146.8,78.4 161.8,78.4 		"/>
		<path id="XMLID_1722_" class="st0" d="M163.8,70.5c0,0.2,0,0.5,0,0.7c0,13.2,10.7,23.9,23.9,23.9s23.9-10.7,23.9-23.9
			c0-0.2,0-0.5,0-0.7L163.8,70.5L163.8,70.5z"/>
	</g>
	<circle id="XMLID_1714_" class="st0" cx="186.2" cy="43" r="10.4"/>
</g>
</svg>
