<?xml version="1.0" encoding="utf-8"?>
<!-- Generator: Adobe Illustrator 19.0.0, SVG Export Plug-In . SVG Version: 6.00 Build 0)  -->
<svg version="1.1" id="Layer_1" xmlns="http://www.w3.org/2000/svg" xmlns:xlink="http://www.w3.org/1999/xlink" x="0px" y="0px"
	 viewBox="50 -11.8 103.2 66.8" style="enable-background:new 50 -11.8 103.2 66.8;" xml:space="preserve">
<style type="text/css">
	.st0{fill:none;stroke:#00acc8 ;stroke-width:7;stroke-linecap:round;stroke-linejoin:round;stroke-miterlimit:10;}
</style>
<g>
	<path class="st0" d="M64.6,21.8c0-8.6,6.9-15.5,15.5-15.5s15.5,6.9,15.5,15.5s-6.9,15.5-15.5,15.5S64.6,30.4,64.6,21.8"/>
	<path class="st0" d="M112.6,6.3c4.3,0,7.7,6.9,7.7,15.5s-3.5,15.5-7.7,15.5"/>
	<path class="st0" d="M128.9,5.9c4.3,0,7.7,7,7.7,15.7s-3.5,15.7-7.7,15.7"/>
	<path class="st0" d="M132.2,37.3h-17.3c-8.6,0-15.7-7.1-15.7-15.7l0,0c0-8.6,7.1-15.7,15.7-15.7h17.3c8.6,0,15.7,7.1,15.7,15.7l0,0
		C147.9,30.2,140.9,37.3,132.2,37.3z"/>
	<path class="st0" d="M64.6,21.8l-9.3-0.4"/>
	<path class="st0" d="M74.9,17.3L74.9,17.3L74.9,17.3z"/>
</g>
</svg>
