<?xml version="1.0" encoding="utf-8"?>
<!-- Generator: Adobe Illustrator 19.0.0, SVG Export Plug-In . SVG Version: 6.00 Build 0)  -->
<svg version="1.1" id="pattern-1" xmlns="http://www.w3.org/2000/svg" xmlns:xlink="http://www.w3.org/1999/xlink" x="0px" y="0px"
	 viewBox="258 -118 520 280" style="enable-background:new 258 -118 520 280;" xml:space="preserve">
<style type="text/css">
	
		.st0{fill:none;stroke:#00acc8 ;stroke-width:7;stroke-linecap:round;stroke-linejoin:round;stroke-miterlimit:10;stroke-dasharray:56,58;}
	
		.st1{fill:none;stroke:#00acc8 ;stroke-width:7;stroke-linecap:round;stroke-linejoin:round;stroke-miterlimit:10;stroke-dasharray:88,90;}
	
		.st2{fill:none;stroke:#00acc8 ;stroke-width:7;stroke-linecap:round;stroke-linejoin:round;stroke-miterlimit:10;stroke-dasharray:31,33;}
	
		.st3{fill:none;stroke:#00acc8 ;stroke-width:7;stroke-linecap:round;stroke-linejoin:round;stroke-miterlimit:10;stroke-dasharray:21,23;}
	
		.st4{fill:none;stroke:#00acc8 ;stroke-width:7;stroke-linecap:round;stroke-linejoin:round;stroke-miterlimit:10;stroke-dasharray:12,14;}
	
		.st5{fill:none;stroke:#00acc8 ;stroke-width:7;stroke-linecap:round;stroke-linejoin:round;stroke-miterlimit:10;stroke-dasharray:9,11;}
	
		.st6{fill:none;stroke:#00acc8 ;stroke-width:7;stroke-linecap:round;stroke-linejoin:round;stroke-miterlimit:10;stroke-dasharray:1,3;}
	
		.st7{fill:none;stroke:#00acc8 ;stroke-width:7;stroke-linecap:round;stroke-linejoin:round;stroke-miterlimit:10;stroke-dasharray:64,66;}
	
		.st8{fill:none;stroke:#00acc8 ;stroke-width:7;stroke-linecap:round;stroke-linejoin:round;stroke-miterlimit:10;stroke-dasharray:118,120;}
	
		.st9{fill:none;stroke:#00acc8 ;stroke-width:7;stroke-linecap:round;stroke-linejoin:round;stroke-miterlimit:10;stroke-dasharray:89,91;}
	
		.st10{fill:none;stroke:#00acc8 ;stroke-width:7;stroke-linecap:round;stroke-linejoin:round;stroke-miterlimit:10;stroke-dasharray:33,35;}
	
		.st11{fill:none;stroke:#00acc8 ;stroke-width:7;stroke-linecap:round;stroke-linejoin:round;stroke-miterlimit:10;stroke-dasharray:65,67;}
	
		.st12{fill:none;stroke:#00acc8 ;stroke-width:7;stroke-linecap:round;stroke-linejoin:round;stroke-miterlimit:10;stroke-dasharray:20,22;}
	
		.st13{fill:none;stroke:#00acc8 ;stroke-width:7;stroke-linecap:round;stroke-linejoin:round;stroke-miterlimit:10;stroke-dasharray:211,213;}
	.st14{fill:none;stroke:#00acc8 ;stroke-width:7;stroke-linecap:round;stroke-linejoin:round;stroke-miterlimit:10;}
</style>
<path class="st0" d="M618.8,130.5l15.8,23.4H607"/>
<path class="st1" d="M574.1,116.8c0-7.7,6.3-14,14-14c7.7,0,14,6.3,14,14l0,0c0,7.7-6.3,14-14,14
	C580.4,130.8,574.1,124.5,574.1,116.8L574.1,116.8"/>
<path class="st2" d="M584.9,102.8V72"/>
<path class="st3" d="M591.2,153.9v-20.8"/>
<path class="st4" d="M578.6,153.9h11.1"/>
<path class="st2" d="M597.4,105.9V75.2"/>
<path class="st5" d="M622.3,132.6l6.8-5.1"/>
<path class="st6" d="M584.2,111.7v0.1V111.7z"/>
<path class="st6" d="M571.5-2.1V-2V-2.1z"/>
<path class="st7" d="M674.6,101.6l22-22.1l23.1,23.1"/>
<path class="st7" d="M674.6,125.7l22-22.1l23.1,23.1"/>
<path class="st7" d="M674.6,149.8l22-22.1l23.1,23.1"/>
<path class="st7" d="M682.7-19.9L704.8-42l23,23.1"/>
<path class="st7" d="M682.7,4.2l22.1-22.1l23,23.1"/>
<path class="st7" d="M682.7,28.3l22.1-22.1l23,23.1"/>
<path class="st7" d="M624.1-48.6l22.1-22.1l23,23.1"/>
<path class="st7" d="M624.1-24.6l22.1-22l23,23"/>
<path class="st7" d="M624.1-0.5l22.1-22.1l23,23.1"/>
<path class="st7" d="M462.5,70.7l22.1-22.1l23.1,23"/>
<path class="st7" d="M462.5,94.7l22.1-22l23.1,23"/>
<path class="st7" d="M462.5,118.8l22.1-22.1l23.1,23.1"/>
<path class="st7" d="M404.2,70.7l22.1-22.1l23,23"/>
<path class="st7" d="M404.2,94.7l22.1-22l23,23"/>
<path class="st7" d="M404.2,118.8l22.1-22.1l23,23.1"/>
<path class="st8" d="M267.2,106.9c0,0,49.6,36.4,111,0.3"/>
<path class="st9" d="M322.6-13.5c-6.6,0-10.1,2.8-10.1,10.5c0,9.9,5.8,24,10.1,24c5.1,0,10.1-14.2,10.1-24
	C332.8-10.7,329.3-13.5,322.6-13.5z"/>
<path class="st9" d="M322.6,72c6.6,0,10.1-2.8,10.1-10.5c0-9.9-5.8-24-10.1-24c-5.1,0-10.1,14.2-10.1,24C312.5,69.2,316,72,322.6,72
	z"/>
<path class="st9" d="M365.4,29.3c0-6.6-2.8-10.1-10.5-10.1c-9.9,0-24,5.8-24,10.1c0,5.1,14.2,10.1,24,10.1
	C362.6,39.4,365.4,35.9,365.4,29.3z"/>
<path class="st9" d="M279.9,29.3c0,6.6,2.8,10.1,10.5,10.1c9.9,0,24-5.8,24-10.1c0-5.1-14.2-10.1-24-10.1
	C282.7,19.2,279.9,22.6,279.9,29.3z"/>
<path class="st7" d="M749.6-108.9l-22.1,22.1l-23.1-23.1"/>
<path class="st10" d="M738.5-64.2l-11.3,11.3l-11.7-11.8"/>
<path class="st11" d="M748.2-83.3c0-5.7,4.6-10.3,10.3-10.3c5.7,0,10.3,4.6,10.3,10.3c0,0,0,0,0,0c0,5.7-4.6,10.3-10.3,10.3
	C752.8-73,748.2-77.6,748.2-83.3C748.2-83.3,748.2-83.3,748.2-83.3"/>
<path class="st11" d="M686.8-83.3c0-5.7,4.6-10.3,10.3-10.3c5.7,0,10.3,4.6,10.3,10.3c0,5.7-4.6,10.3-10.3,10.3
	C691.4-73,686.8-77.6,686.8-83.3"/>
<path class="st12" d="M546,55.8V36.6"/>
<path class="st12" d="M562.4,55.8V36.6"/>
<path class="st13" d="M600.5-11.1h-19.4c-0.3-0.4-0.5-0.8-0.8-1.2c-3.4-4.5-8-8.1-13.3-10.2l-6.6,9.4l-35.3,49.7l0,0h30.7
	c15.6,0,28.5-11.7,30.4-26.8L600.5-11.1z"/>
<path class="st14" d="M616.2,41.4c0,0-60.9,8.5-79.7,77.2"/>
<path class="st14" d="M731.5,82.8c0,0-31.1-53.1-101.7-44.3"/>
<g>
	<path class="st14" d="M390.7,5.5c0-8.6,6.9-15.5,15.5-15.5c8.6,0,15.5,6.9,15.5,15.5S414.8,21,406.2,21
		C397.6,21,390.7,14.1,390.7,5.5"/>
	<path class="st14" d="M438.7-10c4.3,0,7.7,6.9,7.7,15.5S442.9,21,438.7,21"/>
	<path class="st14" d="M455.1-10.4c4.3,0,7.7,7,7.7,15.7S459.3,21,455.1,21"/>
	<path class="st14" d="M458.4,21h-17.3c-8.6,0-15.7-7.1-15.7-15.7l0,0c0-8.6,7.1-15.7,15.7-15.7h17.3c8.6,0,15.7,7.1,15.7,15.7l0,0
		C474.1,13.9,467.1,21,458.4,21z"/>
	<path class="st14" d="M440.1-11.8l29.6-21.4"/>
	<path class="st14" d="M390.7,5.5l-9.3-0.4"/>
	<path class="st14" d="M401,1L401,1L401,1z"/>
</g>
</svg>
