<?xml version="1.0" encoding="utf-8"?>
<!-- Generator: Adobe Illustrator 19.0.0, SVG Export Plug-In . SVG Version: 6.00 Build 0)  -->
<svg version="1.1" id="Layer_1" xmlns="http://www.w3.org/2000/svg" xmlns:xlink="http://www.w3.org/1999/xlink" x="0px" y="0px"
	 viewBox="0 0 580 250" style="enable-background:new 0 0 580 250;" xml:space="preserve">
<style type="text/css">
	.st0{fill:none;stroke:#00ACC8;stroke-width:7;stroke-linecap:round;stroke-linejoin:round;stroke-miterlimit:10;}
</style>
<g id="XMLID_394_">
	<g id="XMLID_2234_">
		<polyline id="XMLID_2154_" class="st0" points="545.8,107.9 526,127.7 505.3,107 484.6,127.7 463.9,107 		"/>
		<polyline id="XMLID_2153_" class="st0" points="545.8,134.5 526,154.3 505.3,133.6 484.6,154.3 463.9,133.6 		"/>
		<g id="XMLID_2160_">
			<polyline id="XMLID_2232_" class="st0" points="109.5,37 87.4,59.1 64.4,36 			"/>
			<polyline id="XMLID_2163_" class="st0" points="98.5,81.7 87.2,93 75.4,81.2 			"/>
			<circle id="XMLID_2162_" class="st0" cx="118.5" cy="62.6" r="10.3"/>
			<circle id="XMLID_2161_" class="st0" cx="57.1" cy="62.6" r="10.3"/>
		</g>
		<g id="XMLID_2043_">
			<polyline id="XMLID_2046_" class="st0" points="34.2,125.6 56.3,103.5 79.3,126.6 			"/>
			<polyline id="XMLID_2045_" class="st0" points="34.2,149.7 56.3,127.6 79.3,150.7 			"/>
			<polyline id="XMLID_2044_" class="st0" points="34.2,173.8 56.3,151.7 79.3,174.7 			"/>
		</g>
		<g id="XMLID_2047_">
			<polyline id="XMLID_2148_" class="st0" points="99.2,125.6 121.3,103.5 144.3,126.6 			"/>
			<polyline id="XMLID_2147_" class="st0" points="99.2,149.7 121.3,127.6 144.3,150.7 			"/>
			<polyline id="XMLID_2048_" class="st0" points="99.2,173.8 121.3,151.7 144.3,174.7 			"/>
		</g>
		<g id="XMLID_2149_">
			<polyline id="XMLID_2152_" class="st0" points="419.2,165.6 441.3,143.5 464.3,166.6 			"/>
			<polyline id="XMLID_2151_" class="st0" points="419.2,189.7 441.3,167.6 464.3,190.7 			"/>
			<polyline id="XMLID_2150_" class="st0" points="419.2,213.8 441.3,191.7 464.3,214.7 			"/>
		</g>
		<g id="XMLID_390_">
			<polyline id="XMLID_393_" class="st0" points="357.1,165.6 379.2,143.5 402.2,166.6 			"/>
			<polyline id="XMLID_392_" class="st0" points="357.1,189.7 379.2,167.6 402.2,190.7 			"/>
			<polyline id="XMLID_391_" class="st0" points="357.1,213.8 379.2,191.7 402.2,214.7 			"/>
		</g>
		<path id="XMLID_2233_" class="st0" d="M160.4,173c0,0,49.6-36.4,111-0.3"/>
	</g>
	<path id="XMLID_1749_" class="st0" d="M532.3,56.3c0,0-48.7-37.6-110.9-3"/>
	<g id="XMLID_1739_">
		<g id="XMLID_1743_">
			<path id="XMLID_1747_" class="st0" d="M394,35.3c-6.6,0-10.1,2.8-10.1,10.5c0,9.9,5.8,24,10.1,24c5.1,0,10.1-14.2,10.1-24
				C404.1,38.1,400.6,35.3,394,35.3z"/>
			<path id="XMLID_1746_" class="st0" d="M394,120.8c6.6,0,10.1-2.8,10.1-10.5c0-9.9-5.8-24-10.1-24c-5.1,0-10.1,14.2-10.1,24
				C383.9,117.9,387.3,120.8,394,120.8z"/>
		</g>
		<g id="XMLID_1740_">
			<path id="XMLID_1742_" class="st0" d="M436.7,78c0-6.6-2.8-10.1-10.5-10.1c-9.9,0-24,5.8-24,10.1c0,5.1,14.2,10.1,24,10.1
				C433.9,88.1,436.7,84.7,436.7,78z"/>
			<path id="XMLID_1741_" class="st0" d="M351.2,78c0,6.6,2.8,10.1,10.5,10.1c9.9,0,24-5.8,24-10.1c0-5.1-14.2-10.1-24-10.1
				C354.1,67.9,351.2,71.4,351.2,78z"/>
		</g>
	</g>
	<g id="XMLID_1726_">
		<polyline id="XMLID_1729_" class="st0" points="289.8,157.6 311.9,135.5 335,158.6 		"/>
		<polyline id="XMLID_1728_" class="st0" points="303.6,171.2 334.8,171.2 334.8,203.9 		"/>
		<polyline id="XMLID_1727_" class="st0" points="321.5,214.6 290.3,214.6 290.3,182 		"/>
	</g>
</g>
</svg>
