<?xml version="1.0" encoding="utf-8"?>
<!-- Generator: Adobe Illustrator 19.0.0, SVG Export Plug-In . SVG Version: 6.00 Build 0)  -->
<svg version="1.1" id="Layer_1" xmlns="http://www.w3.org/2000/svg" xmlns:xlink="http://www.w3.org/1999/xlink" x="0px" y="0px"
	 viewBox="-224 76 100 100" style="enable-background:new -224 76 100 100;" xml:space="preserve">
<style type="text/css">
	.st0{fill:none;stroke:#FFDC3E;stroke-width:7;stroke-linecap:round;stroke-linejoin:round;stroke-miterlimit:10;}
</style>
<g id="XMLID_1705_">
	<g id="XMLID_1709_">
		<path id="XMLID_1711_" class="st0" d="M-174,93c-5,0-7.8,2.1-7.8,8.1c0,7.7,4.5,18.5,7.8,18.5c4,0,7.8-11,7.8-18.5
			C-166.2,95.2-169,93-174,93z"/>
		<path id="XMLID_1710_" class="st0" d="M-174,159c5,0,7.8-2.1,7.8-8.1c0-7.7-4.5-18.5-7.8-18.5c-4,0-7.8,11-7.8,18.5
			C-181.8,156.8-179,159-174,159z"/>
	</g>
	<g id="XMLID_1706_">
		<path id="XMLID_1708_" class="st0" d="M-141,126c0-5-2.1-7.8-8.1-7.8c-7.7,0-18.5,4.5-18.5,7.8c0,4,11,7.8,18.5,7.8
			C-143.2,133.8-141,131-141,126z"/>
		<path id="XMLID_1707_" class="st0" d="M-207,126c0,5,2.1,7.8,8.1,7.8c7.7,0,18.5-4.5,18.5-7.8c0-4-11-7.8-18.5-7.8
			C-204.8,118.2-207,121-207,126z"/>
	</g>
</g>
</svg>
