<?xml version="1.0" encoding="utf-8"?>
<!-- Generator: Adobe Illustrator 19.0.0, SVG Export Plug-In . SVG Version: 6.00 Build 0)  -->
<svg version="1.1" id="Layer_1" xmlns="http://www.w3.org/2000/svg" xmlns:xlink="http://www.w3.org/1999/xlink" x="0px" y="0px"
	 viewBox="0 0 550 250" style="enable-background:new 0 0 550 250;" xml:space="preserve">
<style type="text/css">
	.st0{fill:none;stroke:#00acc8 ;stroke-width:7;stroke-linecap:round;stroke-linejoin:round;stroke-miterlimit:10;}
</style>
<g id="XMLID_516_">
	<polyline id="XMLID_3362_" class="st0" points="432.9,138.8 280.5,138.8 250.9,179.8 114.4,179.8 	"/>
	<g id="XMLID_3359_">
		<path id="XMLID_3361_" class="st0" d="M237.5,143.3c0,0.4,0.1,0.8,0.1,1.2c0,11.7-9.5,21.3-21.3,21.3c-11.7,0-21.3-9.5-21.3-21.3
			c0-0.4,0-0.8,0.1-1.2H237.5z"/>
		<polyline id="XMLID_3360_" class="st0" points="180.4,158.5 180.4,150.5 195.9,150.5 		"/>
	</g>
	<circle id="XMLID_3358_" class="st0" cx="218" cy="115.5" r="9.3"/>
	<g id="XMLID_3354_">
		<polyline id="XMLID_3357_" class="st0" points="385.8,67.2 407.9,45.1 430.9,68.2 		"/>
		<polyline id="XMLID_3356_" class="st0" points="399.5,80.9 430.7,80.9 430.7,113.5 		"/>
		<polyline id="XMLID_3355_" class="st0" points="417.5,124.3 386.3,124.3 386.3,91.7 		"/>
	</g>
	<g id="XMLID_3349_">
		<polyline id="XMLID_3353_" class="st0" points="317.2,93.7 334.5,93.7 334.9,109.5 		"/>
		<circle id="XMLID_3352_" class="st0" cx="297" cy="102.2" r="19.9"/>
		<line id="XMLID_3351_" class="st0" x1="261.7" y1="82.3" x2="277.1" y2="93.9"/>
		<line id="XMLID_3350_" class="st0" x1="297" y1="75.5" x2="297" y2="82.3"/>
	</g>
	<g id="XMLID_3339_">
		<g id="XMLID_3343_">
			<path id="XMLID_3348_" class="st0" d="M134.1,65.3c5.6,0,8.6,2.4,8.6,8.9c0,8.4-4.9,20.4-8.6,20.4c-4.3,0-8.6-12-8.6-20.4
				C125.5,67.7,128.4,65.3,134.1,65.3z"/>
			<path id="XMLID_3347_" class="st0" d="M134.1,137.9c-5.6,0-8.6-2.4-8.6-8.9c0-8.4,4.9-20.4,8.6-20.4c4.3,0,8.6,12,8.6,20.4
				C142.6,135.5,139.7,137.9,134.1,137.9z"/>
		</g>
		<g id="XMLID_3340_">
			<path id="XMLID_3342_" class="st0" d="M97.8,101.6c0-5.6,2.4-8.6,8.9-8.6c8.4,0,20.4,4.9,20.4,8.6c0,4.3-12,8.6-20.4,8.6
				C100.2,110.2,97.8,107.2,97.8,101.6z"/>
			<path id="XMLID_3341_" class="st0" d="M170.4,101.6c0,5.6-2.4,8.6-8.9,8.6c-8.4,0-20.4-4.9-20.4-8.6c0-4.3,12-8.6,20.4-8.6
				C167.9,93,170.4,96,170.4,101.6z"/>
		</g>
	</g>
	<g id="XMLID_3371_">
		<polyline id="XMLID_3373_" class="st0" points="351,156.6 370.8,176.4 391.4,155.7 412.2,176.4 432.9,155.7 		"/>
		<polyline id="XMLID_3372_" class="st0" points="351,183.2 370.8,203 391.4,182.3 412.2,203 432.9,182.3 		"/>
	</g>
	<g id="XMLID_3367_">
		<polyline id="XMLID_3370_" class="st0" points="95.4,155.7 73.3,133.6 50.2,156.7 		"/>
		<polyline id="XMLID_3369_" class="st0" points="95.4,179.8 73.3,157.7 50.2,180.8 		"/>
		<polyline id="XMLID_3368_" class="st0" points="95.4,203.9 73.3,181.8 50.2,204.9 		"/>
	</g>
	<g id="XMLID_3363_">
		<polyline id="XMLID_3366_" class="st0" points="499.8,111.5 477.7,89.5 454.6,112.5 		"/>
		<polyline id="XMLID_3365_" class="st0" points="499.8,135.6 477.7,113.5 454.6,136.6 		"/>
		<polyline id="XMLID_3364_" class="st0" points="499.8,159.7 477.7,137.6 454.6,160.7 		"/>
	</g>
</g>
</svg>
