<?xml version="1.0" encoding="utf-8"?>
<!-- Generator: Adobe Illustrator 19.0.0, SVG Export Plug-In . SVG Version: 6.00 Build 0)  -->
<svg version="1.1" id="Layer_1" xmlns="http://www.w3.org/2000/svg" xmlns:xlink="http://www.w3.org/1999/xlink" x="0px" y="0px"
	 viewBox="548 -28 100 100" style="enable-background:new 548 -28 100 100;" xml:space="preserve">



<style type="text/css">
	.st0{fill:none;stroke:#00acc8 ;stroke-width:7;stroke-linecap:round;stroke-linejoin:round;stroke-miterlimit:10;}
</style>

<g id="flower">
	<g id="XMLID_39_">
		<g id="XMLID_43_">
			<path id="XMLID_45_" class="st0" d="M598-20.8c-6.6,0-10.1,2.8-10.1,10.5c0,9.9,5.8,24,10.1,24c5.1,0,10.1-14.2,10.1-24
				C608.1-17.9,604.6-20.8,598-20.8z"/>
			<path id="XMLID_44_" class="st0" d="M598,64.8c6.6,0,10.1-2.8,10.1-10.5c0-9.9-5.8-24-10.1-24c-5.1,0-10.1,14.2-10.1,24
				C587.9,61.9,591.4,64.8,598,64.8z"/>
		</g>
		<g id="XMLID_40_">
			<path id="XMLID_42_" class="st0" d="M640.8,22.1c0-6.6-2.8-10.1-10.5-10.1c-9.9,0-24,5.8-24,10.1c0,5.1,14.2,10.1,24,10.1
				C637.9,32.1,640.8,28.6,640.8,22.1z"/>
			<path id="XMLID_41_" class="st0" d="M555.2,22.1c0,6.6,2.8,10.1,10.5,10.1c9.9,0,24-5.8,24-10.1c0-5.1-14.2-10.1-24-10.1
				C558.1,11.9,555.2,15.4,555.2,22.1z"/>
		</g>
	</g>
</g>
</svg>
