<?xml version="1.0" encoding="utf-8"?>
<!-- Generator: Adobe Illustrator 19.0.0, SVG Export Plug-In . SVG Version: 6.00 Build 0)  -->
<svg version="1.1" id="Layer_1" xmlns="http://www.w3.org/2000/svg" xmlns:xlink="http://www.w3.org/1999/xlink" x="0px" y="0px"
	 viewBox="0 0 20 80" style="enable-background:new 0 0 20 80;" xml:space="preserve">
<style type="text/css">
	.st0{opacity:0.5;}
	.st1{fill:#95d600;}
</style>
<g id="XMLID_142_" class="st0">
	<g id="XMLID_143_">
		<g id="XMLID_2945_">
			<path id="XMLID_2946_" class="st1" d="M4,12.4c0-0.4,0.1-0.7,0.4-1l9.1-9.1c0.6-0.6,1.5-0.6,2.1,0c0.6,0.6,0.6,1.5,0,2.1
				l-8.1,8.1l8.1,8.1c0.6,0.6,0.6,1.5,0,2.1c-0.6,0.6-1.5,0.6-2.1,0l-9.1-9.1C4.1,13.2,4,12.8,4,12.4z"/>
		</g>
	</g>
	<g id="XMLID_144_">
		<g id="XMLID_2942_">
			<path id="XMLID_2943_" class="st1" d="M4,30.7c0-0.4,0.1-0.7,0.4-1l9.1-9.1c0.6-0.6,1.5-0.6,2.1,0c0.6,0.6,0.6,1.5,0,2.1
				l-8.1,8.1l8.1,8.1c0.6,0.6,0.6,1.5,0,2.1c-0.6,0.6-1.5,0.6-2.1,0l-9.1-9.1C4.1,31.4,4,31.1,4,30.7z"/>
		</g>
		<g id="XMLID_2940_">
			<path id="XMLID_2941_" class="st1" d="M4,48.9c0-0.4,0.1-0.7,0.4-1l9.1-9.1c0.6-0.6,1.5-0.6,2.1,0c0.6,0.6,0.6,1.5,0,2.1
				l-8.1,8.1l8.1,8.1c0.6,0.6,0.6,1.5,0,2.1c-0.6,0.6-1.5,0.6-2.1,0l-9.1-9.1C4.1,49.6,4,49.2,4,48.9z"/>
		</g>
	</g>
	<g id="XMLID_145_">
		<g id="XMLID_2950_">
			<path id="XMLID_2951_" class="st1" d="M4,67.6c0-0.4,0.1-0.7,0.4-1l9.1-9.1c0.6-0.6,1.5-0.6,2.1,0c0.6,0.6,0.6,1.5,0,2.1
				l-8.1,8.1l8.1,8.1c0.6,0.6,0.6,1.5,0,2.1c-0.6,0.6-1.5,0.6-2.1,0l-9.1-9.1C4.1,68.3,4,67.9,4,67.6z"/>
		</g>
	</g>
</g>
</svg>
