<?xml version="1.0" encoding="utf-8"?>
<!-- Generator: Adobe Illustrator 19.0.0, SVG Export Plug-In . SVG Version: 6.00 Build 0)  -->
<svg version="1.1" id="Layer_1" xmlns="http://www.w3.org/2000/svg" xmlns:xlink="http://www.w3.org/1999/xlink" x="0px" y="0px"
	 viewBox="0 0 57 57" style="enable-background:new 0 0 57 57;" xml:space="preserve">
<style type="text/css">
	.st0{fill:none;stroke:#FFDC3E;stroke-width:7;stroke-linecap:round;stroke-linejoin:round;stroke-miterlimit:10;}
</style>
<g id="XMLID_1705_">
	<g id="XMLID_1709_">
		<path id="XMLID_1711_" class="st0" d="M28.5,3.5c-3.9,0-5.9,1.7-5.9,6.1c0,5.8,3.4,14,5.9,14c3,0,5.9-8.3,5.9-14
			C34.4,5.2,32.4,3.5,28.5,3.5z"/>
		<path id="XMLID_1710_" class="st0" d="M28.5,53.5c3.9,0,5.9-1.7,5.9-6.1c0-5.8-3.4-14-5.9-14c-3,0-5.9,8.3-5.9,14
			C22.6,51.8,24.6,53.5,28.5,53.5z"/>
	</g>
	<g id="XMLID_1706_">
		<path id="XMLID_1708_" class="st0" d="M53.5,28.5c0-3.9-1.7-5.9-6.1-5.9c-5.8,0-14,3.4-14,5.9c0,3,8.3,5.9,14,5.9
			C51.8,34.4,53.5,32.4,53.5,28.5z"/>
		<path id="XMLID_1707_" class="st0" d="M3.5,28.5c0,3.9,1.7,5.9,6.1,5.9c5.8,0,14-3.4,14-5.9c0-3-8.3-5.9-14-5.9
			C5.2,22.6,3.5,24.6,3.5,28.5z"/>
	</g>
</g>
</svg>
