<?xml version="1.0" encoding="utf-8"?>
<!-- Generator: Adobe Illustrator 19.0.0, SVG Export Plug-In . SVG Version: 6.00 Build 0)  -->
<svg version="1.1" id="Layer_1" xmlns="http://www.w3.org/2000/svg" xmlns:xlink="http://www.w3.org/1999/xlink" x="0px" y="0px"
	 viewBox="0 0 110 110" style="enable-background:new 0 0 110 110;" xml:space="preserve">
<style type="text/css">
	.st0{fill:none;stroke:#FFFFFF;stroke-width:3;stroke-linecap:round;stroke-linejoin:round;stroke-miterlimit:10;}
	.st1{fill:#FFFFFF;}
</style>
<g id="XMLID_380_">
	<g id="XMLID_431_">
		<path id="XMLID_433_" class="st0" d="M27.6,41.4c-2,4.1-3.2,8.8-3.2,13.7"/>
		<path id="XMLID_432_" class="st0" d="M27.6,68.8c-2-4.1-3.2-8.8-3.2-13.7"/>
	</g>
	<g id="XMLID_403_">
		<path id="XMLID_430_" class="st0" d="M41.6,82.8c4.1,2,8.8,3.2,13.7,3.2"/>
		<path id="XMLID_404_" class="st0" d="M69,82.8c-4.1,2-8.8,3.2-13.7,3.2"/>
	</g>
	<g id="XMLID_400_">
		<path id="XMLID_402_" class="st0" d="M83,68.8c2-4.1,3.2-8.8,3.2-13.7"/>
		<path id="XMLID_401_" class="st0" d="M83,41.4c2,4.1,3.2,8.8,3.2,13.7"/>
	</g>
	<g id="XMLID_397_">
		<path id="XMLID_399_" class="st0" d="M69,27.4c-4.1-2-8.8-3.2-13.7-3.2"/>
		<path id="XMLID_398_" class="st0" d="M41.6,27.4c4.1-2,8.8-3.2,13.7-3.2"/>
	</g>
	<polygon id="XMLID_396_" class="st0" points="54.9,32.6 46.6,55.1 54.9,77.7 63.1,55.1 	"/>
	<g id="XMLID_395_">
		<path id="XMLID_93_" class="st1" d="M54.9,51.3c2.1,0,3.8,1.7,3.8,3.8S57,59,54.9,59c-2.1,0-3.8-1.7-3.8-3.8S52.7,51.3,54.9,51.3
			 M54.9,48.3c-3.8,0-6.8,3.1-6.8,6.8s3.1,6.8,6.8,6.8s6.8-3.1,6.8-6.8S58.6,48.3,54.9,48.3L54.9,48.3z"/>
	</g>
	<g id="XMLID_17_">
		<path id="XMLID_18_" class="st1" d="M57.6,12.9c0.2-0.4,0.4-0.8,0.7-1c0.2-0.1,0.5-0.2,0.8-0.2c0.4,0,0.7,0.1,1,0.4
			c0.3,0.3,0.4,0.6,0.4,1.1c0,0.6-0.3,1.6-1.3,2.5c-0.9,0.9-2,1.3-3.8,1.3c-1.6,0-2.9-0.5-3.9-1.5c-1.5-1.5-1.5-3.1-1.5-5.9
			c0-2.8,0.1-4.5,1.5-5.9c1-1,2.3-1.5,3.9-1.5c1.8,0,2.8,0.4,3.8,1.3c1,0.9,1.3,2,1.3,2.5c0,0.5-0.1,0.8-0.4,1.1
			c-0.3,0.3-0.6,0.4-1,0.4c-0.3,0-0.6-0.1-0.8-0.2c-0.3-0.2-0.5-0.6-0.7-1c-0.5-1-1.2-1.5-2.2-1.5c-0.8,0-1.3,0.3-1.7,0.8
			C53.1,6.1,53,6.9,53,9.6s0.1,3.4,0.7,4.1c0.4,0.5,1,0.8,1.7,0.8C56.5,14.5,57.2,14,57.6,12.9z"/>
	</g>
	<g id="XMLID_10_">
		<path id="XMLID_11_" class="st1" d="M62,106.4c-1,1-2.2,1.5-3.9,1.5c-1.7,0-2.9-0.5-3.9-1.5c-1.2-1.2-1.5-2.6-1.5-4.7h-2.2v4.3
			c0,0.7,0,0.9-0.2,1.3c-0.2,0.4-0.7,0.7-1.2,0.7c-0.6,0-1-0.3-1.2-0.7c-0.2-0.3-0.2-0.6-0.2-1.3V95c0-0.7,0-0.9,0.2-1.3
			C48,93.3,48.4,93,49,93c0.6,0,1,0.3,1.2,0.7c0.2,0.4,0.2,0.6,0.2,1.3v4.1h2.2c0-2,0.3-3.3,1.5-4.6c1-1,2.2-1.5,3.9-1.5
			c1.7,0,2.9,0.5,3.9,1.5c1.5,1.5,1.5,3.1,1.5,5.9C63.5,103.2,63.4,104.9,62,106.4z M56.2,96.3c-0.5,0.6-0.7,1.3-0.7,4.1
			c0,2.8,0.2,3.5,0.7,4.1c0.4,0.5,1.1,0.8,1.8,0.8s1.4-0.3,1.8-0.8c0.5-0.6,0.7-1.3,0.7-4.1c0-2.8-0.2-3.5-0.7-4.1
			c-0.4-0.5-1.1-0.8-1.8-0.8S56.6,95.8,56.2,96.3z"/>
	</g>
	<g id="XMLID_6_">
		<path id="XMLID_7_" class="st1" d="M5.1,47.5c1-1,2.3-1.4,4-1.4c3,0,5,1.6,5,4.1c0,1.4-0.8,2.5-1.9,3.2c1.3,0.6,2.1,1.7,2.1,3.3
			c0,2.7-2.2,4.4-5.3,4.4C7.3,61,6,60.6,5,59.6c-0.7-0.7-1.2-1.6-1.2-2.4c0-0.4,0.1-0.8,0.4-1c0.3-0.3,0.6-0.4,1-0.4
			c0.5,0,0.7,0.1,1,0.3c0.2,0.2,0.4,0.4,0.7,1C7.3,58,8,58.5,9.2,58.5c1.5,0,2.3-0.8,2.3-2c0-1.2-0.7-2-2.2-2H8.8
			c-0.6,0-0.8,0-1.1-0.2c-0.3-0.2-0.6-0.5-0.6-1c0-0.5,0.2-0.8,0.6-1c0.3-0.1,0.5-0.2,1.1-0.2h0.6c1.3,0,2-0.7,2-1.9
			c0-1.1-0.8-1.8-2.1-1.8c-1.2,0-1.9,0.6-2.3,1.4c-0.3,0.6-0.5,0.8-0.7,1c-0.3,0.2-0.5,0.3-0.9,0.3c-0.4,0-0.7-0.1-0.9-0.4
			c-0.3-0.2-0.4-0.6-0.4-1C4,49.1,4.4,48.2,5.1,47.5z"/>
	</g>
	<g id="XMLID_1_">
		<path id="XMLID_2_" class="st1" d="M97.2,60.9c-0.4,0-0.9,0-1.3-0.4c-0.4-0.4-0.4-0.9-0.4-1.3V48c0-0.4,0-0.9,0.4-1.3
			c0.4-0.4,0.9-0.4,1.3-0.4h4.2c2.9,0,4.6,1.6,4.6,4.1c0,1.6-1.1,2.7-1.8,3c0.9,0.4,2,1.3,2,3.3c0,2.7-1.9,4.2-4.5,4.2H97.2z
			 M98.3,48.8v3.4h2.8c1.2,0,1.9-0.7,1.9-1.7s-0.7-1.7-1.9-1.7H98.3z M101.3,58.3c1.3,0,1.9-0.8,1.9-1.8c0-1-0.6-1.8-1.9-1.8h-3v3.6
			H101.3z"/>
	</g>
	<g id="XMLID_381_">
		<line id="XMLID_389_" class="st0" x1="81" y1="29.3" x2="74.2" y2="36.1"/>
		<line id="XMLID_388_" class="st0" x1="29" y1="81.2" x2="35.8" y2="74.4"/>
		<line id="XMLID_386_" class="st0" x1="29" y1="29.3" x2="35.8" y2="36.1"/>
		<line id="XMLID_382_" class="st0" x1="81" y1="81.2" x2="74.2" y2="74.4"/>
	</g>
</g>
</svg>
