<?xml version="1.0" encoding="utf-8"?>
<!-- Generator: Adobe Illustrator 19.0.0, SVG Export Plug-In . SVG Version: 6.00 Build 0)  -->
<svg version="1.1" id="Layer_1" xmlns="http://www.w3.org/2000/svg" xmlns:xlink="http://www.w3.org/1999/xlink" x="0px" y="0px"
	 viewBox="22.5 -3 35 50" style="enable-background:new 22.5 -3 35 50;" xml:space="preserve">
<style type="text/css">
	.st0{fill:#95D600;stroke:#95D600;stroke-width:3;stroke-linecap:round;stroke-linejoin:round;stroke-miterlimit:10;}
	.st1{fill:none;stroke:#FFFFFF;stroke-width:3;stroke-linecap:round;stroke-linejoin:round;stroke-miterlimit:10;}
</style>
<g id="XMLID_3595_">
	<path id="XMLID_3286_" class="st0" d="M40,45c0,0,15.6-13.8,15.6-30.4C55.6,6,48.6-1,40-1S24.4,6,24.4,14.6C24.4,31.2,40,45,40,45z
		"/>
	<g id="XMLID_3285_">
		<g id="XMLID_2352_">
			<path id="XMLID_2354_" class="st1" d="M30.3,17c0,1.4,0.6,2.1,2.2,2.1c2.1,0,5.2-1.2,5.2-2.1c0-1.1-3-2.1-5.2-2.1
				C30.9,14.8,30.3,15.5,30.3,17z"/>
		</g>
		<g id="XMLID_3282_">
			<path id="XMLID_3388_" class="st1" d="M49.7,17c0,1.4-0.6,2.1-2.2,2.1c-2.1,0-5.2-1.2-5.2-2.1c0-1.1,3-2.1,5.2-2.1
				C49.1,14.8,49.7,15.5,49.7,17z"/>
		</g>
		<g id="XMLID_3393_">
			<path id="XMLID_3394_" class="st1" d="M40,26.7c1.4,0,2.1-0.6,2.1-2.2c0-2.1-1.2-5.2-2.1-5.2c-1.1,0-2.1,3-2.1,5.2
				C37.9,26,38.6,26.7,40,26.7z"/>
		</g>
		<g id="XMLID_3390_">
			<path id="XMLID_3392_" class="st1" d="M40,7.2c1.4,0,2.1,0.6,2.1,2.2c0,2.1-1.2,5.2-2.1,5.2c-1.1,0-2.1-3-2.1-5.2
				C37.9,7.9,38.6,7.2,40,7.2z"/>
		</g>
	</g>
</g>
</svg>
