<?xml version="1.0" encoding="utf-8"?>
<!-- Generator: Adobe Illustrator 19.0.0, SVG Export Plug-In . SVG Version: 6.00 Build 0)  -->
<svg version="1.1" id="Layer_1" xmlns="http://www.w3.org/2000/svg" xmlns:xlink="http://www.w3.org/1999/xlink" x="0px" y="0px"
	 viewBox="-193 186 42 60" style="enable-background:new -193 186 42 60;" xml:space="preserve">
<style type="text/css">
	.st0{fill:#95D600;stroke:#95D600;stroke-width:3;stroke-linecap:round;stroke-linejoin:round;stroke-miterlimit:10;}
	.st1{fill:none;stroke:#FFFFFF;stroke-width:3;stroke-linecap:round;stroke-linejoin:round;stroke-miterlimit:10;}
</style>
<g id="XMLID_3595_">
	<path id="XMLID_3286_" class="st0" d="M-172,244c0,0,19-16.8,19-37c0-10.5-8.5-19-19-19s-19,8.5-19,19C-191,227.2-172,244-172,244z
		"/>
	<g id="XMLID_3285_">
		<g id="XMLID_2352_">
			<path id="XMLID_2354_" class="st1" d="M-183.8,209.9c0,1.7,0.7,2.6,2.7,2.6c2.6,0,6.3-1.5,6.3-2.6c0-1.3-3.7-2.6-6.3-2.6
				C-183.1,207.2-183.8,208.1-183.8,209.9z"/>
		</g>
		<g id="XMLID_3282_">
			<path id="XMLID_3388_" class="st1" d="M-160.2,209.9c0,1.7-0.7,2.6-2.7,2.6c-2.6,0-6.3-1.5-6.3-2.6c0-1.3,3.7-2.6,6.3-2.6
				C-160.9,207.2-160.2,208.1-160.2,209.9z"/>
		</g>
		<g id="XMLID_3393_">
			<path id="XMLID_3394_" class="st1" d="M-172,221.7c1.7,0,2.6-0.7,2.6-2.7c0-2.6-1.5-6.3-2.6-6.3c-1.3,0-2.6,3.7-2.6,6.3
				C-174.6,220.9-173.7,221.7-172,221.7z"/>
		</g>
		<g id="XMLID_3390_">
			<path id="XMLID_3392_" class="st1" d="M-172,198c1.7,0,2.6,0.7,2.6,2.7c0,2.6-1.5,6.3-2.6,6.3c-1.3,0-2.6-3.7-2.6-6.3
				C-174.6,198.8-173.7,198-172,198z"/>
		</g>
	</g>
</g>
</svg>
