<?xml version="1.0" encoding="utf-8"?>
<!-- Generator: Adobe Illustrator 19.0.0, SVG Export Plug-In . SVG Version: 6.00 Build 0)  -->
<svg version="1.1" id="Isolation_Mode" xmlns="http://www.w3.org/2000/svg" xmlns:xlink="http://www.w3.org/1999/xlink" x="0px"
	 y="0px" viewBox="0 0 3108.6 1031.8" style="enable-background:new 0 0 3108.6 1031.8;" xml:space="preserve">
<style type="text/css">
	.st0{fill:#FFD100;stroke:#FFD100;stroke-width:3;stroke-linecap:round;stroke-linejoin:round;stroke-miterlimit:10;}
	.st1{fill:none;stroke:#FFFFFF;stroke-width:3;stroke-linecap:round;stroke-linejoin:round;stroke-miterlimit:10;}
</style>
<path id="XMLID_3593_" class="st0" d="M-2915-4181c0,0,20-17.7,20-39c0-11.1-9-20-20-20c-11.1,0-20,9-20,20
	C-2935-4198.8-2915-4181-2915-4181z"/>
<g id="XMLID_1_">
	<path id="XMLID_3614_" class="st1" d="M-2915-4222.7l8,0.1v7.6c0,0,0,2.5-2.6,2.5c-1.9,0-3.1,1-2.6,5c0.4,3.6,0.7,4.3,0.7,8.1
		c0,4.5-3.1,4.5-3.1,4.5h-0.7c0,0-3.1,0-3.1-4.5c0-3.9,0.3-4.6,0.7-8.1c0.5-4-0.7-5-2.6-5c-2.6,0-2.6-2.5-2.6-2.5v-7.6L-2915-4222.7
		"/>
	<g id="XMLID_3615_">
		<line id="XMLID_3618_" class="st1" x1="-2918.4" y1="-4228.2" x2="-2918.4" y2="-4232.3"/>
	</g>
	<polyline id="XMLID_3652_" class="st1" points="-2908.2,-4223.8 -2908.2,-4232.3 -2921.9,-4232.3 -2921.9,-4223.8 	"/>
	<line id="XMLID_3616_" class="st1" x1="-2911" y1="-4218.9" x2="-2919" y2="-4218.9"/>
</g>
</svg>
