<?xml version="1.0" encoding="utf-8"?>
<!-- Generator: Adobe Illustrator 19.0.0, SVG Export Plug-In . SVG Version: 6.00 Build 0)  -->
<svg version="1.1" id="Layer_1" xmlns="http://www.w3.org/2000/svg" xmlns:xlink="http://www.w3.org/1999/xlink" x="0px" y="0px"
	 viewBox="16 -3 36 50" style="enable-background:new 16 -3 36 50;" xml:space="preserve">
<style type="text/css">
	.st0{fill:#E21E81;stroke:#E21E81;stroke-width:3;stroke-linecap:round;stroke-linejoin:round;stroke-miterlimit:10;}
	.st1{fill:none;stroke:#FFFFFF;stroke-width:3;stroke-linecap:round;stroke-linejoin:round;stroke-miterlimit:10;}
	.st2{fill:#FFFFFF;}
</style>
<g>
	<g id="XMLID_1_">
		<g id="XMLID_3598_">
			<path id="XMLID_3593_" class="st0" d="M34,45c0,0,15.6-13.8,15.6-30.4C49.6,6,42.6-1,34-1S18.4,6,18.4,14.6
				C18.4,31.2,34,45,34,45z"/>
		</g>
	</g>
</g>
<g>
	<g>
		<polyline id="XMLID_6078_" class="st1" points="23,15.5 24.6,10.1 29.5,10.1 36,10.1 37.8,15.7 43.2,15.7 		"/>
		<g id="XMLID_3651_">
			<g id="XMLID_3621_">
				<path id="XMLID_18_" class="st2" d="M27.5,20.4c0.6,0,1.1,0.5,1.1,1.1s-0.5,1.1-1.1,1.1s-1.1-0.5-1.1-1.1S26.9,20.4,27.5,20.4
					 M27.5,17.9c-2,0-3.5,1.6-3.5,3.5c0,2,1.6,3.5,3.5,3.5c2,0,3.5-1.6,3.5-3.5S29.4,17.9,27.5,17.9L27.5,17.9z"/>
			</g>
			<g id="XMLID_3654_">
				<path id="XMLID_15_" class="st2" d="M41.5,20.4c0.6,0,1.1,0.5,1.1,1.1s-0.5,1.1-1.1,1.1s-1.1-0.5-1.1-1.1S40.9,20.4,41.5,20.4
					 M41.5,17.9c-2,0-3.5,1.6-3.5,3.5c0,2,1.6,3.5,3.5,3.5c2,0,3.5-1.6,3.5-3.5S43.5,17.9,41.5,17.9L41.5,17.9z"/>
			</g>
		</g>
	</g>
</g>
</svg>
