<?xml version="1.0" encoding="utf-8"?>
<!-- Generator: Adobe Illustrator 19.0.0, SVG Export Plug-In . SVG Version: 6.00 Build 0)  -->
<svg version="1.1" id="Layer_1" xmlns="http://www.w3.org/2000/svg" xmlns:xlink="http://www.w3.org/1999/xlink" x="0px" y="0px"
	 viewBox="22.5 -3 35 50" style="enable-background:new 22.5 -3 35 50;" xml:space="preserve">
<style type="text/css">
	.st0{fill:#00ACC8;stroke:#00ACC8;stroke-width:3;stroke-linecap:round;stroke-linejoin:round;stroke-miterlimit:10;}
	.st1{fill:none;stroke:#FFFFFF;stroke-width:3;stroke-linecap:round;stroke-linejoin:round;stroke-miterlimit:10;}
</style>
<g id="XMLID_3599_">
	<path id="XMLID_3591_" class="st0" d="M40,45c0,0,15.6-13.8,15.6-30.4C55.6,6,48.6-1,40-1S24.4,6,24.4,14.6C24.4,31.2,40,45,40,45z
		"/>
	<g id="XMLID_3383_">
		<path id="XMLID_3386_" class="st1" d="M40,12.6c0,0,0.2-3.9,5.2-3.9c1.2,0,4.1,0,4.1,0v8.5"/>
		<path id="XMLID_3385_" class="st1" d="M30.6,8.8c0,0,2.9,0,4.1,0c5.1,0,5.2,3.9,5.2,3.9v11.3c0,0-0.2-2.9-5.2-2.9
			c-1.2,0-4.1,0-4.1,0v-8.6"/>
		<path id="XMLID_3384_" class="st1" d="M40,23.9c0,0,0.2-2.9,5.2-2.9c1.2,0,4.1,0,4.1,0"/>
	</g>
</g>
</svg>
