<?xml version="1.0" encoding="utf-8"?>
<!-- Generator: Adobe Illustrator 19.0.0, SVG Export Plug-In . SVG Version: 6.00 Build 0)  -->
<svg version="1.1" id="Layer_1" xmlns="http://www.w3.org/2000/svg" xmlns:xlink="http://www.w3.org/1999/xlink" x="0px" y="0px"
	 viewBox="-193 186 42 60" style="enable-background:new -193 186 42 60;" xml:space="preserve">
<style type="text/css">
	.st0{fill:#00ACC8;stroke:#00ACC8;stroke-width:3;stroke-linecap:round;stroke-linejoin:round;stroke-miterlimit:10;}
	.st1{fill:none;stroke:#FFFFFF;stroke-width:3;stroke-linecap:round;stroke-linejoin:round;stroke-miterlimit:10;}
</style>
<g id="XMLID_3599_">
	<path id="XMLID_3591_" class="st0" d="M-172,244c0,0,19-16.8,19-37c0-10.5-8.5-19-19-19s-19,8.5-19,19C-191,227.2-172,244-172,244z
		"/>
	<g id="XMLID_3383_">
		<path id="XMLID_3386_" class="st1" d="M-172,204.6c0,0,0.2-4.7,6.3-4.7c1.5,0,5,0,5,0v10.4"/>
		<path id="XMLID_3385_" class="st1" d="M-183.4,199.9c0,0,3.5,0,5,0c6.2,0,6.3,4.7,6.3,4.7v13.7c0,0-0.2-3.5-6.3-3.5
			c-1.5,0-5,0-5,0v-10.5"/>
		<path id="XMLID_3384_" class="st1" d="M-172,218.3c0,0,0.2-3.5,6.3-3.5c1.5,0,5,0,5,0"/>
	</g>
</g>
</svg>
