<?xml version="1.0" encoding="utf-8"?>
<!-- Generator: Adobe Illustrator 19.0.0, SVG Export Plug-In . SVG Version: 6.00 Build 0)  -->
<svg version="1.1" id="Layer_1" xmlns="http://www.w3.org/2000/svg" xmlns:xlink="http://www.w3.org/1999/xlink" x="0px" y="0px"
	 viewBox="-193 186 42 60" style="enable-background:new -193 186 42 60;" xml:space="preserve">
<style type="text/css">
	.st0{fill:#F38B00;stroke:#F38B00;stroke-width:3;stroke-linecap:round;stroke-linejoin:round;stroke-miterlimit:10;}
	.st1{fill:none;stroke:#FFFFFF;stroke-width:3;stroke-linecap:round;stroke-linejoin:round;stroke-miterlimit:10;}
	.st2{fill:#FFFFFF;}
</style>
<g id="XMLID_64_">
	<g id="XMLID_3594_">
		<path id="XMLID_3284_" class="st0" d="M-172,244c0,0,19-16.8,19-37c0-10.5-8.5-19-19-19s-19,8.5-19,19C-191,227.2-172,244-172,244
			z"/>
	</g>
	<g id="XMLID_1_">
		<polyline id="XMLID_3283_" class="st1" points="-166.5,213 -178.3,213 -180.8,204.7 		"/>
		<polyline id="XMLID_3609_" class="st1" points="-166.5,213 -164,201.2 -158.8,201.2 		"/>
		<line id="XMLID_2353_" class="st1" x1="-180.8" y1="204.7" x2="-168.5" y2="204.7"/>
		<g id="XMLID_3651_">
			<g id="XMLID_3621_">
				<path id="XMLID_18_" class="st2" d="M-177.8,218.5c0.7,0,1.3,0.6,1.3,1.3s-0.6,1.3-1.3,1.3s-1.3-0.6-1.3-1.3
					S-178.5,218.5-177.8,218.5 M-177.8,215.5c-2.4,0-4.3,1.9-4.3,4.3c0,2.4,1.9,4.3,4.3,4.3c2.4,0,4.3-1.9,4.3-4.3
					C-173.5,217.4-175.4,215.5-177.8,215.5L-177.8,215.5z"/>
			</g>
			<g id="XMLID_3654_">
				<path id="XMLID_15_" class="st2" d="M-166.8,218.5c0.7,0,1.3,0.6,1.3,1.3s-0.6,1.3-1.3,1.3s-1.3-0.6-1.3-1.3
					S-167.6,218.5-166.8,218.5 M-166.8,215.5c-2.4,0-4.3,1.9-4.3,4.3c0,2.4,1.9,4.3,4.3,4.3c2.4,0,4.3-1.9,4.3-4.3
					C-162.5,217.4-164.4,215.5-166.8,215.5L-166.8,215.5z"/>
			</g>
		</g>
	</g>
</g>
</svg>
