<?xml version="1.0" encoding="utf-8"?>
<!-- Generator: Adobe Illustrator 19.0.0, SVG Export Plug-In . SVG Version: 6.00 Build 0)  -->
<svg version="1.1" id="Layer_1" xmlns="http://www.w3.org/2000/svg" xmlns:xlink="http://www.w3.org/1999/xlink" x="0px" y="0px"
	 viewBox="18.9 -3 35 50" style="enable-background:new 18.9 -3 35 50;" xml:space="preserve">
<style type="text/css">
	.st0{fill:#F38B00;stroke:#F38B00;stroke-width:3;stroke-linecap:round;stroke-linejoin:round;stroke-miterlimit:10;}
	.st1{fill:none;stroke:#FFFFFF;stroke-width:3;stroke-linecap:round;stroke-linejoin:round;stroke-miterlimit:10;}
	.st2{fill:#FFFFFF;}
</style>
<g id="XMLID_64_">
	<g id="XMLID_3594_">
		<path id="XMLID_3284_" class="st0" d="M36.4,45c0,0,15.6-13.8,15.6-30.4C52,6,45.1-1,36.4-1S20.8,6,20.8,14.6
			C20.8,31.2,36.4,45,36.4,45z"/>
	</g>
	<g id="XMLID_1_">
		<polyline id="XMLID_3283_" class="st1" points="41,19.5 31.3,19.5 29.2,12.7 		"/>
		<polyline id="XMLID_3609_" class="st1" points="41,19.5 43,9.8 47.3,9.8 		"/>
		<line id="XMLID_2353_" class="st1" x1="29.2" y1="12.7" x2="38.3" y2="12.7"/>
		<g id="XMLID_3651_">
			<g id="XMLID_3621_">
				<path id="XMLID_18_" class="st2" d="M31.7,24.1c0.6,0,1.1,0.5,1.1,1.1s-0.5,1.1-1.1,1.1c-0.6,0-1.1-0.5-1.1-1.1
					S31.1,24.1,31.7,24.1 M31.7,21.6c-2,0-3.5,1.6-3.5,3.5c0,2,1.6,3.5,3.5,3.5c2,0,3.5-1.6,3.5-3.5S33.6,21.6,31.7,21.6L31.7,21.6z
					"/>
			</g>
			<g id="XMLID_3654_">
				<path id="XMLID_15_" class="st2" d="M40.7,24.1c0.6,0,1.1,0.5,1.1,1.1s-0.5,1.1-1.1,1.1s-1.1-0.5-1.1-1.1S40.1,24.1,40.7,24.1
					 M40.7,21.6c-2,0-3.5,1.6-3.5,3.5c0,2,1.6,3.5,3.5,3.5c2,0,3.5-1.6,3.5-3.5S42.7,21.6,40.7,21.6L40.7,21.6z"/>
			</g>
		</g>
	</g>
</g>
</svg>
