<?xml version="1.0" encoding="utf-8"?>
<!-- Generator: Adobe Illustrator 19.0.0, SVG Export Plug-In . SVG Version: 6.00 Build 0)  -->
<svg version="1.1" id="Layer_1" xmlns="http://www.w3.org/2000/svg" xmlns:xlink="http://www.w3.org/1999/xlink" x="0px" y="0px"
	 viewBox="0 0 46 46" style="enable-background:new 0 0 46 46;" xml:space="preserve">
<style type="text/css">
	.st0{fill:#EEEEED;}
	.st1{fill:#BFBEC0;}
</style>
<circle id="XMLID_1_" class="st0" cx="23" cy="23" r="23"/>
<path class="st1" d="M33.9,18.5c-0.1-1.2-0.2-2-0.5-2.7c-0.3-0.7-0.7-1.3-1.3-1.9c-0.6-0.6-1.2-1-1.9-1.3c-0.7-0.3-1.5-0.5-2.7-0.5
	C26.4,12,26,12,23,12s-3.4,0-4.5,0.1c-1.2,0.1-2,0.2-2.7,0.5c-0.7,0.3-1.3,0.7-1.9,1.3c-0.6,0.6-1,1.2-1.3,1.9
	c-0.3,0.7-0.5,1.5-0.5,2.7C12,19.6,12,20,12,23c0,3,0,3.4,0.1,4.5c0.1,1.2,0.2,2,0.5,2.7c0.3,0.7,0.7,1.3,1.3,1.9
	c0.6,0.6,1.2,1,1.9,1.3c0.7,0.3,1.5,0.5,2.7,0.5C19.6,34,20,34,23,34s3.4,0,4.5-0.1c1.2-0.1,2-0.2,2.7-0.5c0.7-0.3,1.3-0.7,1.9-1.3
	c0.6-0.6,1-1.2,1.3-1.9c0.3-0.7,0.5-1.5,0.5-2.7C34,26.4,34,26,34,23S34,19.6,33.9,18.5z M23,26.7c-2,0-3.7-1.6-3.7-3.7
	c0-2,1.6-3.7,3.7-3.7c2,0,3.7,1.6,3.7,3.7C26.7,25,25,26.7,23,26.7z M28.9,18.4c-0.7,0-1.3-0.6-1.3-1.3s0.6-1.3,1.3-1.3
	c0.7,0,1.3,0.6,1.3,1.3S29.6,18.4,28.9,18.4z"/>
</svg>
