<?xml version="1.0" encoding="utf-8"?>
<!-- Generator: Adobe Illustrator 19.0.0, SVG Export Plug-In . SVG Version: 6.00 Build 0)  -->
<svg version="1.1" id="Layer_1" xmlns="http://www.w3.org/2000/svg" xmlns:xlink="http://www.w3.org/1999/xlink" x="0px" y="0px"
	 viewBox="0 0 46 46" style="enable-background:new 0 0 46 46;" xml:space="preserve">
<style type="text/css">
	.st0{fill:#EEEEED;}
	.st1{fill-rule:evenodd;clip-rule:evenodd;fill:#BFBEC0;}
</style>
<circle id="XMLID_1_" class="st0" cx="23" cy="23" r="23"/>
<path id="XMLID_2_" class="st1" d="M22.8,29.4h1.4c0,0,0.4,0,0.6-0.3c0.2-0.2,0.2-0.6,0.2-0.6s0-1.8,0.8-2.1c0.8-0.3,1.9,1.8,3,2.5
	c0.9,0.6,1.5,0.5,1.5,0.5l3,0c0,0,1.6-0.1,0.8-1.3c-0.1-0.1-0.4-0.9-2.3-2.6c-1.9-1.8-1.7-1.5,0.6-4.5c1.4-1.9,2-3,1.8-3.5
	c-0.2-0.5-1.2-0.3-1.2-0.3l-3.4,0c0,0-0.3,0-0.4,0.1c-0.2,0.1-0.3,0.4-0.3,0.4s-0.5,1.4-1.3,2.7c-1.5,2.6-2.1,2.7-2.4,2.6
	c-0.6-0.4-0.4-1.5-0.4-2.3c0-2.5,0.4-3.6-0.7-3.8c-0.4-0.1-0.6-0.1-1.6-0.2c-1.2,0-2.3,0-2.8,0.3c-0.4,0.2-0.7,0.6-0.5,0.6
	c0.2,0,0.7,0.1,1,0.5c0.4,0.5,0.3,1.6,0.3,1.6s0.2,3-0.5,3.3c-0.5,0.3-1.1-0.3-2.5-2.6c-0.7-1.2-1.2-2.5-1.2-2.5s-0.1-0.2-0.3-0.4
	c-0.2-0.2-0.5-0.2-0.5-0.2l-3.3,0c0,0-0.5,0-0.7,0.2c-0.2,0.2,0,0.6,0,0.6s2.5,6,5.4,9C19.8,29.6,22.8,29.4,22.8,29.4L22.8,29.4z"/>
</svg>
