<?xml version="1.0" encoding="utf-8"?>
<!-- Generator: Adobe Illustrator 19.0.0, SVG Export Plug-In . SVG Version: 6.00 Build 0)  -->
<svg version="1.1" id="Layer_1" xmlns="http://www.w3.org/2000/svg" xmlns:xlink="http://www.w3.org/1999/xlink" x="0px" y="0px"
	 viewBox="0 0 46 46" style="enable-background:new 0 0 46 46;" xml:space="preserve">
<style type="text/css">
	.st0{fill:#c6c6c5;}
	.st1{fill:#222222;}
</style>
<circle id="XMLID_1_" class="st0" cx="23" cy="23" r="23"/>
<g>
	<g>
		<path class="st1" d="M23,23.4c3.4,0,6.2-2.8,6.2-6.2c0-3.4-2.8-6.2-6.2-6.2c-3.4,0-6.2,2.8-6.2,6.2C16.8,20.6,19.6,23.4,23,23.4z
			 M23,14.6c1.4,0,2.6,1.2,2.6,2.6c0,1.4-1.2,2.6-2.6,2.6c-1.4,0-2.6-1.2-2.6-2.6C20.4,15.8,21.6,14.6,23,14.6z"/>
		<path id="XMLID_2_" class="st1" d="M25.5,28.4c1.3-0.3,2.5-0.8,3.6-1.5c0.8-0.5,1.1-1.7,0.6-2.5c-0.5-0.8-1.7-1.1-2.5-0.6
			c-2.5,1.6-5.8,1.6-8.3,0c-0.8-0.5-2-0.3-2.5,0.6c-0.5,0.8-0.3,2,0.6,2.5c1.1,0.7,2.3,1.2,3.6,1.5L17,31.9c-0.7,0.7-0.7,1.9,0,2.6
			c0.4,0.4,0.8,0.5,1.3,0.5c0.5,0,0.9-0.2,1.3-0.5l3.4-3.4l3.4,3.4c0.7,0.7,1.9,0.7,2.6,0c0.7-0.7,0.7-1.9,0-2.6L25.5,28.4z"/>
	</g>
</g>
</svg>
