<?xml version="1.0" encoding="utf-8"?>
<!-- Generator: Adobe Illustrator 19.0.0, SVG Export Plug-In . SVG Version: 6.00 Build 0)  -->
<svg version="1.1" id="Layer_1" xmlns="http://www.w3.org/2000/svg" xmlns:xlink="http://www.w3.org/1999/xlink" x="0px" y="0px"
	 viewBox="0 0 167 40" style="enable-background:new 0 0 167 40;" xml:space="preserve">
<style type="text/css">
	.st0{fill:#95D600;}
	.st1{fill:#5C4925;}
</style>
<g>
	<g id="XMLID_636_">
		<g id="XMLID_726_">
			<path id="XMLID_727_" class="st0" d="M27.1,12.6C26.8,12.9,26.4,13,26,13H13.1v12.7c0,0.9-0.7,1.6-1.6,1.6
				c-0.9,0-1.6-0.7-1.6-1.6V11.4c0-0.9,0.7-1.6,1.6-1.6H26c0.9,0,1.6,0.7,1.6,1.6C27.6,11.9,27.4,12.3,27.1,12.6z"/>
		</g>
		<g id="XMLID_723_">
			<path id="XMLID_725_" class="st0" d="M18.1,2.7c-0.3,0.3-0.7,0.5-1.1,0.5H4.1v12.7c0,0.9-0.7,1.6-1.6,1.6c-0.9,0-1.6-0.7-1.6-1.6
				V1.6C0.9,0.7,1.6,0,2.5,0h14.5c0.9,0,1.6,0.7,1.6,1.6C18.5,2,18.4,2.4,18.1,2.7z"/>
		</g>
		<path id="XMLID_667_" class="st1" d="M18.8,34.7V19.8c0-0.6,0-1.3,0.5-1.8c0.5-0.5,1.2-0.5,1.8-0.5h13.2c0.8,0,1.1,0,1.5,0.2
			c0.5,0.2,0.8,0.8,0.8,1.5c0,0.7-0.3,1.2-0.8,1.5c-0.4,0.2-0.7,0.2-1.5,0.2H22.6v13.7c0,0.9,0,1.2-0.3,1.7
			c-0.3,0.5-0.9,0.9-1.7,0.9c-0.8,0-1.4-0.4-1.7-0.9C18.8,35.9,18.8,35.6,18.8,34.7z"/>
		<path id="XMLID_662_" class="st1" d="M39.5,34.7V19.8c0-0.6,0-1.3,0.5-1.8c0.5-0.5,1.2-0.5,1.8-0.5h8.2c4.1,0,6.5,2.8,6.5,6.1
			c0,3.3-2.4,6.1-6.5,6.1h-6.7v4.9c0,0.9,0,1.2-0.3,1.7c-0.3,0.5-0.9,0.9-1.7,0.9s-1.4-0.4-1.7-0.9C39.6,35.9,39.5,35.6,39.5,34.7z
			 M49.9,26.3c1.7,0,2.8-1.1,2.8-2.7c0-1.6-1.1-2.7-2.8-2.7h-6.5v5.4H49.9z"/>
		<path id="XMLID_660_" class="st1" d="M72.9,19.2c1.2-1.2,1.5-1.7,2.3-1.7c0.6,0,1,0.2,1.4,0.6c0.4,0.5,0.5,1,0.5,1.8v14.9
			c0,0.9,0,1.2-0.3,1.7c-0.3,0.5-0.9,0.9-1.7,0.9c-0.8,0-1.4-0.4-1.7-0.9c-0.2-0.5-0.3-0.8-0.3-1.7v-9.9l-9.9,10.8
			c-1.2,1.2-1.4,1.7-2.3,1.7c-0.6,0-1-0.2-1.4-0.6c-0.4-0.5-0.5-1-0.5-1.8V20c0-0.9,0-1.2,0.3-1.7c0.3-0.5,0.9-0.9,1.7-0.9
			c0.8,0,1.4,0.4,1.7,0.9C63,18.8,63,19.1,63,20V30L72.9,19.2z"/>
		<path id="XMLID_658_" class="st1" d="M85,34.7c0,0.9,0,1.2-0.3,1.7c-0.3,0.5-0.9,0.9-1.7,0.9c-0.8,0-1.4-0.4-1.7-0.9
			c-0.2-0.5-0.3-0.8-0.3-1.7V20c0-0.9,0-1.2,0.3-1.7c0.3-0.5,0.9-0.9,1.7-0.9c0.8,0,1.4,0.4,1.7,0.9C85,18.8,85,19.1,85,20v5.5h10.2
			V20c0-0.9,0-1.2,0.3-1.7c0.3-0.5,0.9-0.9,1.7-0.9c0.8,0,1.4,0.4,1.7,0.9c0.2,0.5,0.3,0.8,0.3,1.7v14.7c0,0.9,0,1.2-0.3,1.7
			c-0.3,0.5-0.9,0.9-1.7,0.9c-0.8,0-1.4-0.4-1.7-0.9c-0.2-0.5-0.3-0.8-0.3-1.7V29H85V34.7z"/>
		<path id="XMLID_655_" class="st1" d="M124.1,36.6c0-0.9,0-1.2,0.3-1.6c0.3-0.5,0.9-0.9,1.6-0.9c1.4-3.3,2.1-7.9,2.1-12.4v-1.9
			c0-0.6,0-1.3,0.5-1.8c0.5-0.5,1.2-0.5,1.8-0.5h9.7c0.6,0,1.3,0,1.8,0.5c0.5,0.5,0.5,1.2,0.5,1.8V34c0.7,0,1.4,0.4,1.6,0.9
			c0.2,0.5,0.3,0.8,0.3,1.6v0.9c0,0.9,0,1.2-0.3,1.6c-0.3,0.5-0.9,0.9-1.6,0.9c-0.7,0-1.4-0.4-1.6-0.9c-0.2-0.5-0.3-0.8-0.3-1.6v0
			h-12.7v0c0,0.9,0,1.2-0.3,1.6c-0.3,0.5-0.9,0.9-1.6,0.9c-0.7,0-1.4-0.4-1.6-0.9c-0.2-0.5-0.3-0.8-0.3-1.6V36.6z M131.8,20.9v2.5
			c0,4.4-0.7,7.9-1.9,10.7h8.7V20.9H131.8z"/>
		<path id="XMLID_648_" class="st1" d="M121.3,34.2c0.4,1,0.6,1.7-0.1,2.5c-0.4,0.4-0.9,0.6-1.4,0.6c-0.4,0-0.8-0.1-1.1-0.4
			c-0.3-0.3-0.5-0.6-0.8-1.4l-0.6-1.8h-11l-0.6,1.8c-0.3,0.9-0.5,1.2-0.8,1.4c-0.3,0.2-0.6,0.4-1.1,0.4c-0.5,0-1-0.2-1.4-0.6
			c-0.7-0.7-0.5-1.5-0.1-2.5l5.7-14.6c0.3-0.7,1.2-2.2,4-2.2c2.2,0,3.4,1.5,3.7,2.2L121.3,34.2z M107.5,30.5h8.6l-2-5.8
			c0,0-0.4-0.9-1-2.5c-0.4-1-0.9-1.1-1.4-1.1c-0.5,0-0.9,0.1-1.3,1.1c-0.4,0.8-0.9,2.5-0.9,2.5L107.5,30.5z"/>
		<path id="XMLID_637_" class="st1" d="M165.8,34.2c0.4,1,0.6,1.7-0.1,2.5c-0.4,0.4-0.9,0.6-1.4,0.6c-0.4,0-0.8-0.1-1.1-0.4
			c-0.3-0.3-0.5-0.6-0.8-1.4l-0.6-1.8h-11l-0.6,1.8c-0.3,0.9-0.5,1.2-0.8,1.4c-0.3,0.2-0.6,0.4-1.1,0.4c-0.5,0-1-0.2-1.4-0.6
			c-0.7-0.7-0.5-1.5-0.1-2.5l5.7-14.6c0.3-0.7,1.2-2.2,4-2.2c2.2,0,3.4,1.5,3.7,2.2L165.8,34.2z M151.9,30.5h8.6l-2-5.8
			c0,0-0.4-0.9-1-2.5c-0.4-1-0.9-1.1-1.4-1.1c-0.5,0-0.9,0.1-1.3,1.1c-0.4,0.8-0.9,2.5-0.9,2.5L151.9,30.5z"/>
	</g>
</g>
</svg>
