<?xml version="1.0" encoding="utf-8"?>
<!-- Generator: Adobe Illustrator 19.0.0, SVG Export Plug-In . SVG Version: 6.00 Build 0)  -->
<svg version="1.1" id="Layer_1" xmlns="http://www.w3.org/2000/svg" xmlns:xlink="http://www.w3.org/1999/xlink" x="0px" y="0px"
	 viewBox="120 -32 280 105" style="enable-background:new 120 -32 280 105;" xml:space="preserve">
<style type="text/css">
	.st0{fill:#95D600;}
	.st1{fill:#ffffff;}
</style>
<g>
	<g id="XMLID_1_">
		<g id="XMLID_11_">
			<path id="XMLID_12_" class="st0" d="M164.4-10c-0.5,0.5-1.2,0.8-1.9,0.8h-21.7v21.4c0,1.5-1.2,2.7-2.7,2.7s-2.7-1.2-2.7-2.7V-12
				c0-1.5,1.2-2.7,2.7-2.7h24.4c1.5,0,2.7,1.2,2.7,2.7C165.1-11.2,164.7-10.5,164.4-10z"/>
		</g>
		<g id="XMLID_9_">
			<path id="XMLID_10_" class="st0" d="M149-26.7c-0.5,0.5-1.2,0.8-1.9,0.8h-21.7v21.4c0,1.5-1.2,2.7-2.7,2.7S120-3,120-4.5v-24
				c0-1.5,1.2-2.7,2.7-2.7h24.4c1.5,0,2.7,1.2,2.7,2.7C149.8-27.9,149.5-27.2,149-26.7z"/>
		</g>
		<path id="XMLID_8_" class="st1" d="M150.2,27.2V2.1c0-1,0-2.2,0.8-3.1c0.8-0.8,2-0.8,3.1-0.8h22.4c1.4,0,1.9,0,2.5,0.3
			c0.8,0.3,1.4,1.4,1.4,2.5s-0.5,2-1.4,2.5c-0.7,0.3-1.2,0.3-2.5,0.3h-19.8V27c0,1.5,0,2-0.5,2.9c-0.5,0.8-1.5,1.5-2.9,1.5
			c-1.4,0-2.4-0.7-2.9-1.5C150.3,29.5,150.2,28.8,150.2,27.2z"/>
		<path id="XMLID_7_" class="st1" d="M185.3,27.2V2.1c0-1,0-2.2,0.8-3.1s2-0.8,3.1-0.8h13.9c6.9,0,11,4.7,11,10.3s-4.1,10.3-11,10.3
			h-11.4v8.3c0,1.5,0,2-0.5,2.9s-1.5,1.5-2.9,1.5s-2.4-0.7-2.9-1.5C185.4,29.5,185.3,28.8,185.3,27.2z M202.7,13.1
			c2.9,0,4.7-1.9,4.7-4.6s-1.9-4.6-4.7-4.6h-11v9.2H202.7L202.7,13.1z"/>
		<path id="XMLID_6_" class="st1" d="M241.7,1.1c2-2,2.5-2.9,3.9-2.9c1,0,1.7,0.3,2.2,0.8c0.7,0.8,0.8,1.7,0.8,3.1v25.1
			c0,1.5,0,2-0.5,2.9c-0.5,0.8-1.5,1.5-2.9,1.5c-1.4,0-2.4-0.7-2.9-1.5c-0.3-0.8-0.5-1.4-0.5-2.9V10.4L225,28.7
			c-2,2-2.2,2.9-3.9,2.9c-1,0-1.7-0.3-2.2-0.8c-0.7-0.8-0.8-1.7-0.8-3.1V2.6c0-1.5,0-2,0.5-2.9c0.5-0.8,1.5-1.5,2.9-1.5
			s2.4,0.7,2.9,1.5c0.3,0.8,0.5,1.4,0.5,2.9v16.8L241.7,1.1z"/>
		<path id="XMLID_5_" class="st1" d="M262.2,27.3c0,1.5,0,2-0.5,2.9c-0.5,0.8-1.5,1.5-2.9,1.5c-1.4,0-2.4-0.7-2.9-1.5
			c-0.3-0.8-0.5-1.4-0.5-2.9V2.6c0-1.5,0-2,0.5-2.9c0.5-0.8,1.5-1.5,2.9-1.5c1.4,0,2.4,0.7,2.9,1.5c0.3,0.8,0.5,1.4,0.5,2.9v9.3
			h17.3V2.6c0-1.5,0-2,0.5-2.9c0.5-0.8,1.5-1.5,2.9-1.5s2.4,0.7,2.9,1.5c0.3,0.8,0.5,1.4,0.5,2.9v24.7c0,1.5,0,2-0.5,2.9
			c-0.5,0.8-1.5,1.5-2.9,1.5s-2.4-0.7-2.9-1.5c-0.3-0.8-0.5-1.4-0.5-2.9v-9.7h-17.3V27.3z"/>
		<path id="XMLID_4_" class="st1" d="M328.1,30.6c0-1.5,0-2,0.5-2.7c0.5-0.8,1.5-1.5,2.7-1.5c2.4-5.4,3.6-13.2,3.6-21V2.2
			c0-1,0-2.2,0.8-3.1c0.8-0.8,2-0.8,3.1-0.8h16.4c1,0,2.2,0,3.1,0.8c0.9,0.8,0.8,2,0.8,3.1v24.1c1.2,0,2.2,0.7,2.7,1.5
			c0.3,0.8,0.5,1.4,0.5,2.7V32c0,1.5,0,2-0.5,2.7c-0.5,0.8-1.5,1.5-2.7,1.5s-2.2-0.7-2.7-1.5c-0.3-0.8-0.5-1.4-0.5-2.7l0,0h-21.5
			l0,0c0,1.5,0,2-0.5,2.7c-0.5,0.8-1.5,1.5-2.7,1.5c-1.2,0-2.2-0.7-2.7-1.5c-0.3-0.8-0.5-1.4-0.5-2.7L328.1,30.6L328.1,30.6
			L328.1,30.6z M341.2,4v4.2c0,7.3-1.2,13.4-3.2,18.1h14.7V4.1L341.2,4L341.2,4z"/>
		<path id="XMLID_3_" class="st1" d="M323.4,26.5c0.7,1.7,1,2.9-0.2,4.2c-0.7,0.7-1.5,1-2.4,1c-0.7,0-1.4-0.2-1.9-0.7
			s-0.8-1-1.4-2.4l-1-3.1h-18.6l-1,3.1c-0.5,1.5-0.8,2-1.4,2.4c-0.5,0.3-1,0.7-1.9,0.7s-1.7-0.3-2.4-1c-1.2-1.2-0.8-2.5-0.2-4.2
			l9.5-24.7c0.5-1.2,2-3.7,6.8-3.7c3.7,0,5.8,2.5,6.3,3.7L323.4,26.5z M300.2,20.2h14.6l-3.4-9.8c0,0-0.7-1.5-1.7-4.2
			c-0.7-1.7-1.5-1.9-2.4-1.9c-0.8,0-1.5,0.2-2.2,1.9c-0.7,1.4-1.5,4.2-1.5,4.2L300.2,20.2z"/>
		<path id="XMLID_2_" class="st1" d="M398.5,26.5c0.7,1.7,1,2.9-0.2,4.2c-0.7,0.7-1.5,1-2.4,1c-0.7,0-1.4-0.2-1.9-0.7
			s-0.8-1-1.4-2.4l-1-3.1H373l-1,3.1c-0.5,1.5-0.8,2-1.4,2.4c-0.5,0.3-1,0.7-1.9,0.7c-0.8,0-1.7-0.3-2.4-1c-1.2-1.2-0.8-2.5-0.2-4.2
			l9.5-24.7c0.5-1.2,2-3.7,6.8-3.7c3.7,0,5.8,2.5,6.3,3.7L398.5,26.5z M375.3,20.2h14.6l-3.4-9.8c0,0-0.7-1.5-1.7-4.2
			c-0.7-1.7-1.5-1.9-2.4-1.9s-1.5,0.2-2.2,1.9c-0.7,1.4-1.5,4.2-1.5,4.2L375.3,20.2z"/>
	</g>
	<g>
		<path class="st1" d="M160.3,51.1c0-0.5,0-0.8,0.2-1c0.2-0.3,0.5-0.5,1-0.5s0.8,0.2,1,0.5s0.2,0.5,0.2,1v5.1h1l5.3-5.9
			c0.5-0.5,0.7-0.7,1-0.7c0.2,0,0.5,0.2,0.7,0.2c0.2,0.2,0.3,0.5,0.3,0.7c0,0.3-0.2,0.5-0.5,1l-4.9,5.4l5.4,6.3
			c0.5,0.5,0.5,0.8,0.5,1c0,0.3-0.2,0.5-0.3,0.7c-0.2,0.2-0.5,0.2-0.7,0.2c-0.3,0-0.7-0.2-1-0.7l-5.8-6.6h-1v5.8c0,0.5,0,0.8-0.2,1
			c-0.2,0.3-0.5,0.5-1,0.5s-0.8-0.2-1-0.5s-0.2-0.5-0.2-1v-5.8h-1l-5.8,6.6c-0.5,0.5-0.7,0.7-1,0.7c-0.2,0-0.5-0.2-0.7-0.2
			c-0.2-0.2-0.3-0.5-0.3-0.7c0-0.3,0.2-0.5,0.5-1l5.4-6.3l-4.9-5.4c-0.5-0.5-0.5-0.8-0.5-1c0-0.3,0.2-0.5,0.3-0.7
			c0.2-0.2,0.5-0.2,0.7-0.2c0.3,0,0.7,0.2,1,0.7l5.3,5.9h1V51.1L160.3,51.1z"/>
		<path class="st1" d="M181.5,64.1c-0.5,0.7-0.8,1-1.5,1c-0.3,0-0.7-0.2-0.8-0.3c-0.3-0.3-0.3-0.7-0.3-1.2V50.9c0-0.5,0-0.8,0.2-1
			c0.2-0.3,0.5-0.5,1-0.5s0.8,0.2,1,0.5s0.2,0.5,0.2,1v10.5l7.3-11c0.5-0.7,0.8-1,1.5-1c0.3,0,0.7,0.2,0.8,0.3
			c0.3,0.3,0.3,0.7,0.3,1.2v12.7c0,0.5,0,0.8-0.2,1c-0.2,0.3-0.5,0.5-1,0.5s-0.8-0.2-1-0.5s-0.2-0.5-0.2-1V53.1L181.5,64.1z"/>
		<path class="st1" d="M203.9,57c0,6.4-2,8.3-4.9,8.3c-0.3,0-0.7,0-0.8-0.2c-0.3-0.2-0.5-0.5-0.5-0.8s0.2-0.7,0.5-0.8
			c0.2-0.2,0.3-0.2,0.7-0.2c1.4-0.2,2.9-1.4,2.9-6.9v-5.3c0-0.3,0-0.7,0.3-1c0.3-0.3,0.7-0.3,1-0.3h7.1c0.3,0,0.7,0,1,0.3
			s0.3,0.7,0.3,1v12.7c0,0.5,0,0.8-0.2,1c-0.2,0.3-0.5,0.5-1,0.5s-0.8-0.2-1-0.5c-0.2-0.3-0.2-0.5-0.2-1v-12h-5.4v5.3L203.9,57
			L203.9,57z"/>
		<path class="st1" d="M230.5,51.2c1.7,1.7,1.9,3.7,1.9,6.3c0,2.4-0.3,4.6-1.9,6.3c-1,1-2.5,1.7-4.4,1.7c-1.9,0-3.4-0.7-4.4-1.7
			c-1.7-1.7-1.9-3.9-1.9-6.3s0.3-4.6,1.9-6.3c1-1,2.5-1.7,4.4-1.7C228,49.5,229.5,50.1,230.5,51.2z M229,62.1c1-1,1.2-3.1,1.2-4.7
			c0-1.9-0.2-3.7-1.2-4.7c-0.7-0.7-1.7-1.2-2.9-1.2c-1.2,0-2,0.3-2.9,1.2c-1,1-1.2,3.1-1.2,4.7c0,1.9,0.2,3.7,1.2,4.7
			c0.7,0.7,1.7,1.2,2.9,1.2C227.3,63.3,228.1,63,229,62.1z"/>
		<path class="st1" d="M243.2,64.1c-0.5,0.7-0.8,1-1.5,1c-0.3,0-0.7-0.2-0.8-0.3c-0.3-0.3-0.3-0.7-0.3-1.2V50.9c0-0.5,0-0.8,0.2-1
			c0.2-0.3,0.5-0.5,1-0.5s0.8,0.2,1,0.5s0.2,0.5,0.2,1v10.5l7.3-11c0.5-0.7,0.8-1,1.5-1c0.3,0,0.7,0.2,0.8,0.3
			c0.3,0.3,0.3,0.7,0.3,1.2v12.7c0,0.5,0,0.8-0.2,1c-0.2,0.3-0.5,0.5-1,0.5s-0.8-0.2-1-0.5s-0.2-0.5-0.2-1V53.1L243.2,64.1z
			 M242.9,44.8c-0.3-0.3-0.5-0.7-0.5-0.8c0-0.3,0-0.5,0.2-0.7c0.2-0.2,0.5-0.3,0.7-0.3s0.5,0.2,0.7,0.3c0.7,0.7,1.5,1.2,2.7,1.2
			c1.2,0,1.9-0.5,2.7-1.2c0.3-0.3,0.5-0.3,0.7-0.3s0.5,0,0.7,0.3c0.2,0.2,0.3,0.5,0.2,0.7c0,0.3-0.2,0.5-0.5,0.8
			c-1,1-2.4,1.7-3.9,1.7S243.9,45.8,242.9,44.8z"/>
		<path class="st1" d="M275.3,56.2h1l5.3-5.9c0.5-0.5,0.7-0.7,1-0.7c0.2,0,0.5,0.2,0.7,0.2c0.2,0.2,0.3,0.5,0.3,0.7
			c0,0.3-0.2,0.5-0.5,1l-4.9,5.5l5.4,6.3c0.5,0.5,0.5,0.8,0.5,1c0,0.3-0.2,0.5-0.3,0.7c-0.2,0.2-0.5,0.2-0.7,0.2
			c-0.3,0-0.7-0.2-1-0.7l-5.8-6.6h-1v5.8c0,0.5,0,0.8-0.2,1c-0.2,0.3-0.5,0.5-1,0.5s-0.8-0.2-1-0.5c-0.2-0.3-0.2-0.5-0.2-1V51
			c0-0.5,0-0.8,0.2-1c0.2-0.3,0.5-0.5,1-0.5s0.8,0.2,1,0.5c0.2,0.3,0.2,0.5,0.2,1V56.2L275.3,56.2z"/>
		<path class="st1" d="M292.7,65.1c-0.3,0-0.7,0-1-0.3c-0.3-0.3-0.3-0.7-0.3-1V51.1c0-0.3,0-0.7,0.3-1c0.3-0.3,0.7-0.3,1-0.3h5.9
			c2.7,0,4.6,1.7,4.6,4.1c0,1.7-0.8,2.9-2.5,3.4c1.7,0.7,2.7,1.9,2.7,3.7c0,2.7-1.7,4.2-4.6,4.2L292.7,65.1L292.7,65.1z M298.3,51.6
			h-4.6v4.6h4.6c1.9,0,2.7-0.8,2.7-2.4C301,52.5,300,51.6,298.3,51.6z M298.5,58h-4.7v5.1h4.7c1.7,0,2.9-1,2.9-2.5
			C301.2,59,300.2,58,298.5,58z"/>
		<path class="st1" d="M315.8,56.2h4.7V55c0-2.4-1.2-3.6-3.9-3.6c-1.5,0-2.5,0.5-3.6,1.4c-0.3,0.3-0.7,0.3-1,0.3s-0.5-0.2-0.7-0.3
			c-0.2-0.2-0.3-0.3-0.3-0.7c0-0.5,0.5-1.2,1.5-1.7c1.2-0.7,2.4-1,4.1-1c4.1,0,6.1,1.9,6.1,5.3v9.2c0,0.5,0,0.8-0.2,1
			c-0.2,0.3-0.5,0.5-1,0.5s-0.8-0.2-1-0.5s-0.2-0.5-0.2-1l0,0c-1.2,1.2-2.4,1.7-4.4,1.7c-2.2,0-3.4-0.5-4.4-1.4
			c-0.7-0.8-1.2-1.9-1.2-3.2C310.3,58,312.4,56.2,315.8,56.2z M316.1,63.5c1.4,0,2.5-0.2,3.4-1c0.5-0.5,0.8-1.4,0.8-2.7V58h-4.4
			c-2.2,0-3.4,1-3.4,2.7S313.7,63.5,316.1,63.5z"/>
		<path class="st1" d="M342,64c-0.8,0.8-2.2,1.4-3.7,1.4c-1.7,0-3.1-0.3-4.4-2v7.3c0,0.5,0,0.8-0.2,1c-0.2,0.3-0.5,0.5-1,0.5
			s-0.8-0.2-1-0.5c-0.2-0.3-0.2-0.5-0.2-1V51c0-0.5,0-0.8,0.2-1c0.2-0.3,0.5-0.5,1-0.5s0.8,0.2,1,0.5c0.2,0.3,0.2,0.5,0.2,1v0.5
			c1.4-1.7,2.7-2,4.4-2c1.7,0,3.1,0.5,3.7,1.4c1.5,1.5,1.9,4.1,1.9,6.6S343.6,62.5,342,64z M337.6,63.3c3.4,0,3.9-2.9,3.9-5.9
			s-0.5-5.9-3.9-5.9s-3.9,2.9-3.9,5.9S334.2,63.3,337.6,63.3z"/>
		<path class="st1" d="M361.9,51.5c-0.2,0.2-0.5,0.2-1,0.2H357v12c0,0.5,0,0.8-0.2,1c-0.2,0.3-0.5,0.5-1,0.5s-0.8-0.2-1-0.5
			c-0.2-0.3-0.2-0.5-0.2-1v-12h-3.9c-0.5,0-0.7,0-1-0.2c-0.3-0.2-0.5-0.5-0.5-0.8s0.2-0.7,0.5-0.8c0.2-0.2,0.5-0.2,1-0.2h10
			c0.5,0,0.7,0,1,0.2c0.3,0.2,0.5,0.5,0.5,0.8C362.4,51.1,362.2,51.2,361.9,51.5z"/>
		<path class="st1" d="M372.7,56.2h4.7V55c0-2.4-1.2-3.6-3.9-3.6c-1.5,0-2.5,0.5-3.6,1.4c-0.3,0.3-0.7,0.3-1,0.3s-0.5-0.2-0.7-0.3
			c-0.2-0.2-0.3-0.3-0.3-0.7c0-0.5,0.5-1.2,1.5-1.7c1.2-0.7,2.4-1,4.1-1c4.1,0,6.1,1.9,6.1,5.3v9.2c0,0.5,0,0.8-0.2,1
			c-0.2,0.3-0.5,0.5-1,0.5s-0.8-0.2-1-0.5s-0.2-0.5-0.2-1l0,0c-1.2,1.2-2.4,1.7-4.4,1.7c-2.2,0-3.4-0.5-4.4-1.4
			c-0.7-0.8-1.2-1.9-1.2-3.2C367.3,58,369.3,56.2,372.7,56.2z M373.2,63.5c1.4,0,2.5-0.2,3.4-1c0.5-0.5,0.8-1.4,0.8-2.7V58H373
			c-2.2,0-3.4,1-3.4,2.7C369.7,62.5,370.8,63.5,373.2,63.5z"/>
		<path class="st1" d="M392.4,57c0,6.4-2,8.3-4.9,8.3c-0.3,0-0.7,0-0.8-0.2c-0.3-0.2-0.5-0.5-0.5-0.8s0.2-0.7,0.5-0.8
			c0.2-0.2,0.3-0.2,0.7-0.2c1.4-0.2,2.9-1.4,2.9-6.9v-5.3c0-0.3,0-0.7,0.3-1c0.3-0.3,0.7-0.3,1-0.3h7.1c0.3,0,0.7,0,1,0.3
			c0.3,0.3,0.3,0.7,0.3,1v12.7c0,0.5,0,0.8-0.2,1c-0.2,0.3-0.5,0.5-1,0.5s-0.8-0.2-1-0.5c-0.2-0.3-0.2-0.5-0.2-1v-12h-5.4v5.3
			L392.4,57L392.4,57z"/>
	</g>
</g>
</svg>
