<?xml version="1.0" encoding="utf-8"?>
<!-- Generator: Adobe Illustrator 19.0.0, SVG Export Plug-In . SVG Version: 6.00 Build 0)  -->
<svg version="1.1" id="Layer_1" xmlns="http://www.w3.org/2000/svg" xmlns:xlink="http://www.w3.org/1999/xlink" x="0px" y="0px"
	 viewBox="-1252.5 510.9 280 105" style="enable-background:new -1252.5 510.9 280 105;" xml:space="preserve">
<style type="text/css">
	.st0{fill:#FFFFFF;}
</style>
<g>
	<g id="XMLID_1_">
		<g id="XMLID_11_">
			<path id="XMLID_12_" class="st0" d="M-1208.1,532.9c-0.5,0.5-1.2,0.8-1.9,0.8h-21.7v21.4c0,1.5-1.2,2.7-2.7,2.7
				c-1.5,0-2.7-1.2-2.7-2.7V531c0-1.5,1.2-2.7,2.7-2.7h24.4c1.5,0,2.7,1.2,2.7,2.7C-1207.4,531.7-1207.8,532.4-1208.1,532.9z"/>
		</g>
		<g id="XMLID_9_">
			<path id="XMLID_10_" class="st0" d="M-1223.5,516.3c-0.5,0.5-1.2,0.8-1.9,0.8h-21.7v21.4c0,1.5-1.2,2.7-2.7,2.7
				c-1.5,0-2.7-1.2-2.7-2.7v-24.1c0-1.5,1.2-2.7,2.7-2.7h24.4c1.5,0,2.7,1.2,2.7,2.7C-1222.7,515.1-1223,515.8-1223.5,516.3z"/>
		</g>
		<path id="XMLID_8_" class="st0" d="M-1222.3,570.2v-25.1c0-1,0-2.2,0.8-3.1c0.8-0.8,2-0.8,3.1-0.8h22.4c1.4,0,1.9,0,2.5,0.3
			c0.8,0.3,1.4,1.4,1.4,2.5s-0.5,2-1.4,2.5c-0.7,0.3-1.2,0.3-2.5,0.3h-19.8v23.2c0,1.5,0,2-0.5,2.9c-0.5,0.8-1.5,1.5-2.9,1.5
			c-1.4,0-2.4-0.7-2.9-1.5C-1222.2,572.4-1222.3,571.7-1222.3,570.2z"/>
		<path id="XMLID_7_" class="st0" d="M-1187.2,570.2v-25.1c0-1,0-2.2,0.8-3.1s2-0.8,3.1-0.8h13.9c6.9,0,11,4.7,11,10.3
			c0,5.6-4.1,10.3-11,10.3h-11.4v8.3c0,1.5,0,2-0.5,2.9s-1.5,1.5-2.9,1.5s-2.4-0.7-2.9-1.5C-1187.1,572.4-1187.2,571.7-1187.2,570.2
			z M-1169.8,556.1c2.9,0,4.7-1.9,4.7-4.6c0-2.7-1.9-4.6-4.7-4.6h-11v9.2H-1169.8z"/>
		<path id="XMLID_6_" class="st0" d="M-1130.8,544.1c2-2,2.5-2.9,3.9-2.9c1,0,1.7,0.3,2.2,0.8c0.7,0.8,0.8,1.7,0.8,3.1v25.1
			c0,1.5,0,2-0.5,2.9c-0.5,0.8-1.5,1.5-2.9,1.5c-1.4,0-2.4-0.7-2.9-1.5c-0.3-0.8-0.5-1.4-0.5-2.9v-16.8l-16.8,18.3
			c-2,2-2.2,2.9-3.9,2.9c-1,0-1.7-0.3-2.2-0.8c-0.7-0.8-0.8-1.7-0.8-3.1v-25.1c0-1.5,0-2,0.5-2.9c0.5-0.8,1.5-1.5,2.9-1.5
			c1.4,0,2.4,0.7,2.9,1.5c0.3,0.8,0.5,1.4,0.5,2.9v16.8L-1130.8,544.1z"/>
		<path id="XMLID_5_" class="st0" d="M-1110.3,570.3c0,1.5,0,2-0.5,2.9c-0.5,0.8-1.5,1.5-2.9,1.5s-2.4-0.7-2.9-1.5
			c-0.3-0.8-0.5-1.4-0.5-2.9v-24.7c0-1.5,0-2,0.5-2.9c0.5-0.8,1.5-1.5,2.9-1.5s2.4,0.7,2.9,1.5c0.3,0.8,0.5,1.4,0.5,2.9v9.3h17.3
			v-9.3c0-1.5,0-2,0.5-2.9c0.5-0.8,1.5-1.5,2.9-1.5c1.4,0,2.4,0.7,2.9,1.5c0.3,0.8,0.5,1.4,0.5,2.9v24.7c0,1.5,0,2-0.5,2.9
			c-0.5,0.8-1.5,1.5-2.9,1.5c-1.4,0-2.4-0.7-2.9-1.5c-0.3-0.8-0.5-1.4-0.5-2.9v-9.7h-17.3V570.3z"/>
		<path id="XMLID_4_" class="st0" d="M-1044.4,573.6c0-1.5,0-2,0.5-2.7c0.5-0.8,1.5-1.5,2.7-1.5c2.4-5.4,3.6-13.2,3.6-21v-3.2
			c0-1,0-2.2,0.8-3.1c0.8-0.8,2-0.8,3.1-0.8h16.4c1,0,2.2,0,3.1,0.8s0.8,2,0.8,3.1v24.1c1.2,0,2.2,0.7,2.7,1.5
			c0.3,0.8,0.5,1.4,0.5,2.7v1.5c0,1.5,0,2-0.5,2.7c-0.5,0.8-1.5,1.5-2.7,1.5c-1.2,0-2.2-0.7-2.7-1.5c-0.3-0.8-0.5-1.4-0.5-2.7l0,0
			h-21.5l0,0c0,1.5,0,2-0.5,2.7c-0.5,0.8-1.5,1.5-2.7,1.5s-2.2-0.7-2.7-1.5c-0.3-0.8-0.5-1.4-0.5-2.7v-1.4H-1044.4z M-1031.3,547
			v4.2c0,7.3-1.2,13.4-3.2,18.1h14.7v-22.2h-11.5V547z"/>
		<path id="XMLID_3_" class="st0" d="M-1049.1,569.5c0.7,1.7,1,2.9-0.2,4.2c-0.7,0.7-1.5,1-2.4,1c-0.7,0-1.4-0.2-1.9-0.7
			c-0.5-0.5-0.8-1-1.4-2.4l-1-3.1h-18.6l-1,3.1c-0.5,1.5-0.8,2-1.4,2.4c-0.5,0.3-1,0.7-1.9,0.7s-1.7-0.3-2.4-1
			c-1.2-1.2-0.8-2.5-0.2-4.2l9.5-24.7c0.5-1.2,2-3.7,6.8-3.7c3.7,0,5.8,2.5,6.3,3.7L-1049.1,569.5z M-1072.3,563.2h14.6l-3.4-9.8
			c0,0-0.7-1.5-1.7-4.2c-0.7-1.7-1.5-1.9-2.4-1.9c-0.8,0-1.5,0.2-2.2,1.9c-0.7,1.4-1.5,4.2-1.5,4.2L-1072.3,563.2z"/>
		<path id="XMLID_2_" class="st0" d="M-974,569.5c0.7,1.7,1,2.9-0.2,4.2c-0.7,0.7-1.5,1-2.4,1c-0.7,0-1.4-0.2-1.9-0.7
			c-0.5-0.5-0.8-1-1.4-2.4l-1-3.1h-18.6l-1,3.1c-0.5,1.5-0.8,2-1.4,2.4c-0.5,0.3-1,0.7-1.9,0.7c-0.8,0-1.7-0.3-2.4-1
			c-1.2-1.2-0.8-2.5-0.2-4.2l9.5-24.7c0.5-1.2,2-3.7,6.8-3.7c3.7,0,5.8,2.5,6.3,3.7L-974,569.5z M-997.2,563.2h14.6l-3.4-9.8
			c0,0-0.7-1.5-1.7-4.2c-0.7-1.7-1.5-1.9-2.4-1.9s-1.5,0.2-2.2,1.9c-0.7,1.4-1.5,4.2-1.5,4.2L-997.2,563.2z"/>
	</g>
	<g>
		<path class="st0" d="M-1212.2,594.1c0-0.5,0-0.8,0.2-1c0.2-0.3,0.5-0.5,1-0.5c0.5,0,0.8,0.2,1,0.5c0.2,0.3,0.2,0.5,0.2,1v5.1h1
			l5.3-5.9c0.5-0.5,0.7-0.7,1-0.7c0.2,0,0.5,0.2,0.7,0.2c0.2,0.2,0.3,0.5,0.3,0.7c0,0.3-0.2,0.5-0.5,1l-4.9,5.4l5.4,6.3
			c0.5,0.5,0.5,0.8,0.5,1c0,0.3-0.2,0.5-0.3,0.7c-0.2,0.2-0.5,0.2-0.7,0.2c-0.3,0-0.7-0.2-1-0.7l-5.8-6.6h-1v5.8c0,0.5,0,0.8-0.2,1
			c-0.2,0.3-0.5,0.5-1,0.5c-0.5,0-0.8-0.2-1-0.5s-0.2-0.5-0.2-1v-5.8h-1l-5.8,6.6c-0.5,0.5-0.7,0.7-1,0.7c-0.2,0-0.5-0.2-0.7-0.2
			c-0.2-0.2-0.3-0.5-0.3-0.7c0-0.3,0.2-0.5,0.5-1l5.4-6.3l-4.9-5.4c-0.5-0.5-0.5-0.8-0.5-1c0-0.3,0.2-0.5,0.3-0.7
			c0.2-0.2,0.5-0.2,0.7-0.2c0.3,0,0.7,0.2,1,0.7l5.3,5.9h1L-1212.2,594.1L-1212.2,594.1z"/>
		<path class="st0" d="M-1191,607.1c-0.5,0.7-0.8,1-1.5,1c-0.3,0-0.7-0.2-0.8-0.3c-0.3-0.3-0.3-0.7-0.3-1.2v-12.7c0-0.5,0-0.8,0.2-1
			c0.2-0.3,0.5-0.5,1-0.5c0.5,0,0.8,0.2,1,0.5c0.2,0.3,0.2,0.5,0.2,1v10.5l7.3-11c0.5-0.7,0.8-1,1.5-1c0.3,0,0.7,0.2,0.8,0.3
			c0.3,0.3,0.3,0.7,0.3,1.2v12.7c0,0.5,0,0.8-0.2,1c-0.2,0.3-0.5,0.5-1,0.5c-0.5,0-0.8-0.2-1-0.5c-0.2-0.3-0.2-0.5-0.2-1v-10.5
			L-1191,607.1z"/>
		<path class="st0" d="M-1168.6,600c0,6.4-2,8.3-4.9,8.3c-0.3,0-0.7,0-0.8-0.2c-0.3-0.2-0.5-0.5-0.5-0.8s0.2-0.7,0.5-0.8
			c0.2-0.2,0.3-0.2,0.7-0.2c1.4-0.2,2.9-1.4,2.9-6.9v-5.3c0-0.3,0-0.7,0.3-1c0.3-0.3,0.7-0.3,1-0.3h7.1c0.3,0,0.7,0,1,0.3
			c0.3,0.3,0.3,0.7,0.3,1v12.7c0,0.5,0,0.8-0.2,1c-0.2,0.3-0.5,0.5-1,0.5c-0.5,0-0.8-0.2-1-0.5c-0.2-0.3-0.2-0.5-0.2-1v-12h-5.4v5.3
			H-1168.6z"/>
		<path class="st0" d="M-1142,594.2c1.7,1.7,1.9,3.7,1.9,6.3c0,2.4-0.3,4.6-1.9,6.3c-1,1-2.5,1.7-4.4,1.7s-3.4-0.7-4.4-1.7
			c-1.7-1.7-1.9-3.9-1.9-6.3s0.3-4.6,1.9-6.3c1-1,2.5-1.7,4.4-1.7S-1143,593.1-1142,594.2z M-1143.5,605.1c1-1,1.2-3.1,1.2-4.7
			c0-1.9-0.2-3.7-1.2-4.7c-0.7-0.7-1.7-1.2-2.9-1.2c-1.2,0-2,0.3-2.9,1.2c-1,1-1.2,3.1-1.2,4.7c0,1.9,0.2,3.7,1.2,4.7
			c0.7,0.7,1.7,1.2,2.9,1.2C-1145.2,606.3-1144.4,605.9-1143.5,605.1z"/>
		<path class="st0" d="M-1129.3,607.1c-0.5,0.7-0.8,1-1.5,1c-0.3,0-0.7-0.2-0.8-0.3c-0.3-0.3-0.3-0.7-0.3-1.2v-12.7
			c0-0.5,0-0.8,0.2-1c0.2-0.3,0.5-0.5,1-0.5c0.5,0,0.8,0.2,1,0.5c0.2,0.3,0.2,0.5,0.2,1v10.5l7.3-11c0.5-0.7,0.8-1,1.5-1
			c0.3,0,0.7,0.2,0.8,0.3c0.3,0.3,0.3,0.7,0.3,1.2v12.7c0,0.5,0,0.8-0.2,1c-0.2,0.3-0.5,0.5-1,0.5c-0.5,0-0.8-0.2-1-0.5
			c-0.2-0.3-0.2-0.5-0.2-1v-10.5L-1129.3,607.1z M-1129.6,587.8c-0.3-0.3-0.5-0.7-0.5-0.8c0-0.3,0-0.5,0.2-0.7
			c0.2-0.2,0.5-0.3,0.7-0.3s0.5,0.2,0.7,0.3c0.7,0.7,1.5,1.2,2.7,1.2c1.2,0,1.9-0.5,2.7-1.2c0.3-0.3,0.5-0.3,0.7-0.3s0.5,0,0.7,0.3
			c0.2,0.2,0.3,0.5,0.2,0.7c0,0.3-0.2,0.5-0.5,0.8c-1,1-2.4,1.7-3.9,1.7C-1127.4,589.5-1128.6,588.8-1129.6,587.8z"/>
		<path class="st0" d="M-1097.2,599.2h1l5.3-5.9c0.5-0.5,0.7-0.7,1-0.7c0.2,0,0.5,0.2,0.7,0.2c0.2,0.2,0.3,0.5,0.3,0.7
			c0,0.3-0.2,0.5-0.5,1l-4.9,5.4l5.4,6.3c0.5,0.5,0.5,0.8,0.5,1c0,0.3-0.2,0.5-0.3,0.7c-0.2,0.2-0.5,0.2-0.7,0.2
			c-0.3,0-0.7-0.2-1-0.7l-5.8-6.6h-1v5.8c0,0.5,0,0.8-0.2,1c-0.2,0.3-0.5,0.5-1,0.5c-0.5,0-0.8-0.2-1-0.5s-0.2-0.5-0.2-1v-12.7
			c0-0.5,0-0.8,0.2-1c0.2-0.3,0.5-0.5,1-0.5c0.5,0,0.8,0.2,1,0.5c0.2,0.3,0.2,0.5,0.2,1L-1097.2,599.2L-1097.2,599.2z"/>
		<path class="st0" d="M-1079.8,608.1c-0.3,0-0.7,0-1-0.3c-0.3-0.3-0.3-0.7-0.3-1v-12.7c0-0.3,0-0.7,0.3-1c0.3-0.3,0.7-0.3,1-0.3
			h5.9c2.7,0,4.6,1.7,4.6,4.1c0,1.7-0.8,2.9-2.5,3.4c1.7,0.7,2.7,1.9,2.7,3.7c0,2.7-1.7,4.2-4.6,4.2L-1079.8,608.1L-1079.8,608.1z
			 M-1074.2,594.6h-4.6v4.6h4.6c1.9,0,2.7-0.8,2.7-2.4C-1071.5,595.4-1072.5,594.6-1074.2,594.6z M-1074,601h-4.7v5.1h4.7
			c1.7,0,2.9-1,2.9-2.5C-1071.3,602-1072.3,601-1074,601z"/>
		<path class="st0" d="M-1056.7,599.2h4.7V598c0-2.4-1.2-3.6-3.9-3.6c-1.5,0-2.5,0.5-3.6,1.4c-0.3,0.3-0.7,0.3-1,0.3
			s-0.5-0.2-0.7-0.3c-0.2-0.2-0.3-0.3-0.3-0.7c0-0.5,0.5-1.2,1.5-1.7c1.2-0.7,2.4-1,4.1-1c4.1,0,6.1,1.9,6.1,5.3v9.2
			c0,0.5,0,0.8-0.2,1c-0.2,0.3-0.5,0.5-1,0.5c-0.5,0-0.8-0.2-1-0.5s-0.2-0.5-0.2-1l0,0c-1.2,1.2-2.4,1.7-4.4,1.7
			c-2.2,0-3.4-0.5-4.4-1.4c-0.7-0.8-1.2-1.9-1.2-3.2C-1062.2,601-1060.1,599.2-1056.7,599.2z M-1056.4,606.5c1.4,0,2.5-0.2,3.4-1
			c0.5-0.5,0.8-1.4,0.8-2.7V601h-4.4c-2.2,0-3.4,1-3.4,2.7C-1060,605.4-1058.8,606.5-1056.4,606.5z"/>
		<path class="st0" d="M-1030.5,607c-0.8,0.8-2.2,1.4-3.7,1.4c-1.7,0-3.1-0.3-4.4-2v7.3c0,0.5,0,0.8-0.2,1c-0.2,0.3-0.5,0.5-1,0.5
			c-0.5,0-0.8-0.2-1-0.5s-0.2-0.5-0.2-1v-19.7c0-0.5,0-0.8,0.2-1c0.2-0.3,0.5-0.5,1-0.5c0.5,0,0.8,0.2,1,0.5s0.2,0.5,0.2,1v0.5
			c1.4-1.7,2.7-2,4.4-2s3.1,0.5,3.7,1.4c1.5,1.5,1.9,4.1,1.9,6.6S-1028.9,605.4-1030.5,607z M-1034.9,606.3c3.4,0,3.9-2.9,3.9-5.9
			s-0.5-5.9-3.9-5.9c-3.4,0-3.9,2.9-3.9,5.9S-1038.3,606.3-1034.9,606.3z"/>
		<path class="st0" d="M-1010.6,594.4c-0.2,0.2-0.5,0.2-1,0.2h-3.9v12c0,0.5,0,0.8-0.2,1c-0.2,0.3-0.5,0.5-1,0.5
			c-0.5,0-0.8-0.2-1-0.5c-0.2-0.3-0.2-0.5-0.2-1v-12h-3.9c-0.5,0-0.7,0-1-0.2c-0.3-0.2-0.5-0.5-0.5-0.8s0.2-0.7,0.5-0.8
			c0.2-0.2,0.5-0.2,1-0.2h10c0.5,0,0.7,0,1,0.2c0.3,0.2,0.5,0.5,0.5,0.8C-1010.1,594.1-1010.3,594.2-1010.6,594.4z"/>
		<path class="st0" d="M-999.8,599.2h4.7V598c0-2.4-1.2-3.6-3.9-3.6c-1.5,0-2.5,0.5-3.6,1.4c-0.3,0.3-0.7,0.3-1,0.3
			c-0.3,0-0.5-0.2-0.7-0.3c-0.2-0.2-0.3-0.3-0.3-0.7c0-0.5,0.5-1.2,1.5-1.7c1.2-0.7,2.4-1,4.1-1c4.1,0,6.1,1.9,6.1,5.3v9.2
			c0,0.5,0,0.8-0.2,1c-0.2,0.3-0.5,0.5-1,0.5c-0.5,0-0.8-0.2-1-0.5c-0.2-0.3-0.2-0.5-0.2-1l0,0c-1.2,1.2-2.4,1.7-4.4,1.7
			c-2.2,0-3.4-0.5-4.4-1.4c-0.7-0.8-1.2-1.9-1.2-3.2C-1005.2,601-1003.2,599.2-999.8,599.2z M-999.3,606.5c1.4,0,2.5-0.2,3.4-1
			c0.5-0.5,0.8-1.4,0.8-2.7V601h-4.4c-2.2,0-3.4,1-3.4,2.7C-1002.8,605.4-1001.7,606.5-999.3,606.5z"/>
		<path class="st0" d="M-980.1,600c0,6.4-2,8.3-4.9,8.3c-0.3,0-0.7,0-0.8-0.2c-0.3-0.2-0.5-0.5-0.5-0.8s0.2-0.7,0.5-0.8
			c0.2-0.2,0.3-0.2,0.7-0.2c1.4-0.2,2.9-1.4,2.9-6.9v-5.3c0-0.3,0-0.7,0.3-1c0.3-0.3,0.7-0.3,1-0.3h7.1c0.3,0,0.7,0,1,0.3
			c0.3,0.3,0.3,0.7,0.3,1v12.7c0,0.5,0,0.8-0.2,1c-0.2,0.3-0.5,0.5-1,0.5c-0.5,0-0.8-0.2-1-0.5c-0.2-0.3-0.2-0.5-0.2-1v-12h-5.4v5.3
			H-980.1z"/>
	</g>
</g>
</svg>
