<?xml version="1.0" encoding="utf-8"?>
<!-- Generator: Adobe Illustrator 19.0.0, SVG Export Plug-In . SVG Version: 6.00 Build 0)  -->
<svg version="1.1" id="Layer_1" xmlns="http://www.w3.org/2000/svg" xmlns:xlink="http://www.w3.org/1999/xlink" x="0px" y="0px"
	 viewBox="-1196 521 167 61.1" style="enable-background:new -1196 521 167 61.1;" xml:space="preserve">
<style type="text/css">
	.st0{fill:#95D600;}
	.st1{fill:#5C4925;}
</style>
<g>
	<g id="XMLID_1_">
		<g id="XMLID_11_">
			<path id="XMLID_12_" class="st0" d="M-1168.9,533.5c-0.3,0.3-0.7,0.5-1.1,0.5h-12.8v12.6c0,0.9-0.7,1.6-1.6,1.6
				c-0.9,0-1.6-0.7-1.6-1.6v-14.2c0-0.9,0.7-1.6,1.6-1.6h14.4c0.9,0,1.6,0.7,1.6,1.6C-1168.5,532.8-1168.7,533.2-1168.9,533.5z"/>
		</g>
		<g id="XMLID_9_">
			<path id="XMLID_10_" class="st0" d="M-1178,523.7c-0.3,0.3-0.7,0.5-1.1,0.5h-12.8v12.6c0,0.9-0.7,1.6-1.6,1.6
				c-0.9,0-1.6-0.7-1.6-1.6v-14.2c0-0.9,0.7-1.6,1.6-1.6h14.4c0.9,0,1.6,0.7,1.6,1.6C-1177.5,523-1177.7,523.4-1178,523.7z"/>
		</g>
		<path id="XMLID_8_" class="st1" d="M-1177.3,555.5v-14.8c0-0.6,0-1.3,0.5-1.8c0.5-0.5,1.2-0.5,1.8-0.5h13.2c0.8,0,1.1,0,1.5,0.2
			c0.5,0.2,0.8,0.8,0.8,1.5c0,0.7-0.3,1.2-0.8,1.5c-0.4,0.2-0.7,0.2-1.5,0.2h-11.7v13.7c0,0.9,0,1.2-0.3,1.7
			c-0.3,0.5-0.9,0.9-1.7,0.9c-0.8,0-1.4-0.4-1.7-0.9C-1177.2,556.8-1177.3,556.4-1177.3,555.5z"/>
		<path id="XMLID_7_" class="st1" d="M-1156.6,555.5v-14.8c0-0.6,0-1.3,0.5-1.8c0.5-0.5,1.2-0.5,1.8-0.5h8.2c4.1,0,6.5,2.8,6.5,6.1
			c0,3.3-2.4,6.1-6.5,6.1h-6.7v4.9c0,0.9,0,1.2-0.3,1.7c-0.3,0.5-0.9,0.9-1.7,0.9s-1.4-0.4-1.7-0.9
			C-1156.5,556.8-1156.6,556.4-1156.6,555.5z M-1146.3,547.2c1.7,0,2.8-1.1,2.8-2.7c0-1.6-1.1-2.7-2.8-2.7h-6.5v5.4H-1146.3z"/>
		<path id="XMLID_6_" class="st1" d="M-1123.3,540.1c1.2-1.2,1.5-1.7,2.3-1.7c0.6,0,1,0.2,1.3,0.5c0.4,0.5,0.5,1,0.5,1.8v14.8
			c0,0.9,0,1.2-0.3,1.7c-0.3,0.5-0.9,0.9-1.7,0.9c-0.8,0-1.4-0.4-1.7-0.9c-0.2-0.5-0.3-0.8-0.3-1.7v-9.9l-9.9,10.8
			c-1.2,1.2-1.3,1.7-2.3,1.7c-0.6,0-1-0.2-1.3-0.5c-0.4-0.5-0.5-1-0.5-1.8V541c0-0.9,0-1.2,0.3-1.7c0.3-0.5,0.9-0.9,1.7-0.9
			c0.8,0,1.4,0.4,1.7,0.9c0.2,0.5,0.3,0.8,0.3,1.7v9.9L-1123.3,540.1z"/>
		<path id="XMLID_5_" class="st1" d="M-1111.2,555.6c0,0.9,0,1.2-0.3,1.7c-0.3,0.5-0.9,0.9-1.7,0.9s-1.4-0.4-1.7-0.9
			c-0.2-0.5-0.3-0.8-0.3-1.7V541c0-0.9,0-1.2,0.3-1.7c0.3-0.5,0.9-0.9,1.7-0.9s1.4,0.4,1.7,0.9c0.2,0.5,0.3,0.8,0.3,1.7v5.5h10.2
			V541c0-0.9,0-1.2,0.3-1.7c0.3-0.5,0.9-0.9,1.7-0.9c0.8,0,1.4,0.4,1.7,0.9c0.2,0.5,0.3,0.8,0.3,1.7v14.6c0,0.9,0,1.2-0.3,1.7
			c-0.3,0.5-0.9,0.9-1.7,0.9c-0.8,0-1.4-0.4-1.7-0.9c-0.2-0.5-0.3-0.8-0.3-1.7v-5.7h-10.2V555.6z"/>
		<path id="XMLID_4_" class="st1" d="M-1072.3,557.5c0-0.9,0-1.2,0.3-1.6c0.3-0.5,0.9-0.9,1.6-0.9c1.4-3.2,2.1-7.8,2.1-12.4v-1.9
			c0-0.6,0-1.3,0.5-1.8c0.5-0.5,1.2-0.5,1.8-0.5h9.7c0.6,0,1.3,0,1.8,0.5c0.5,0.5,0.5,1.2,0.5,1.8v14.2c0.7,0,1.3,0.4,1.6,0.9
			c0.2,0.5,0.3,0.8,0.3,1.6v0.9c0,0.9,0,1.2-0.3,1.6c-0.3,0.5-0.9,0.9-1.6,0.9s-1.3-0.4-1.6-0.9c-0.2-0.5-0.3-0.8-0.3-1.6v0h-12.7v0
			c0,0.9,0,1.2-0.3,1.6c-0.3,0.5-0.9,0.9-1.6,0.9s-1.3-0.4-1.6-0.9c-0.2-0.5-0.3-0.8-0.3-1.6V557.5z M-1064.6,541.8v2.5
			c0,4.3-0.7,7.9-1.9,10.7h8.7v-13.1H-1064.6z"/>
		<path id="XMLID_3_" class="st1" d="M-1075.1,555.1c0.4,1,0.6,1.7-0.1,2.5c-0.4,0.4-0.9,0.6-1.4,0.6c-0.4,0-0.8-0.1-1.1-0.4
			c-0.3-0.3-0.5-0.6-0.8-1.4l-0.6-1.8h-11l-0.6,1.8c-0.3,0.9-0.5,1.2-0.8,1.4c-0.3,0.2-0.6,0.4-1.1,0.4c-0.5,0-1-0.2-1.4-0.6
			c-0.7-0.7-0.5-1.5-0.1-2.5l5.6-14.6c0.3-0.7,1.2-2.2,4-2.2c2.2,0,3.4,1.5,3.7,2.2L-1075.1,555.1z M-1088.8,551.4h8.6l-2-5.8
			c0,0-0.4-0.9-1-2.5c-0.4-1-0.9-1.1-1.4-1.1c-0.5,0-0.9,0.1-1.3,1.1c-0.4,0.8-0.9,2.5-0.9,2.5L-1088.8,551.4z"/>
		<path id="XMLID_2_" class="st1" d="M-1030.8,555.1c0.4,1,0.6,1.7-0.1,2.5c-0.4,0.4-0.9,0.6-1.4,0.6c-0.4,0-0.8-0.1-1.1-0.4
			c-0.3-0.3-0.5-0.6-0.8-1.4l-0.6-1.8h-11l-0.6,1.8c-0.3,0.9-0.5,1.2-0.8,1.4c-0.3,0.2-0.6,0.4-1.1,0.4c-0.5,0-1-0.2-1.4-0.6
			c-0.7-0.7-0.5-1.5-0.1-2.5l5.6-14.6c0.3-0.7,1.2-2.2,4-2.2c2.2,0,3.4,1.5,3.7,2.2L-1030.8,555.1z M-1044.5,551.4h8.6l-2-5.8
			c0,0-0.4-0.9-1-2.5c-0.4-1-0.9-1.1-1.4-1.1c-0.5,0-0.9,0.1-1.3,1.1c-0.4,0.8-0.9,2.5-0.9,2.5L-1044.5,551.4z"/>
	</g>
	<g>
		<path class="st1" d="M-1171.3,569.6c0-0.3,0-0.5,0.1-0.6c0.1-0.2,0.3-0.3,0.6-0.3c0.3,0,0.5,0.1,0.6,0.3c0.1,0.2,0.1,0.3,0.1,0.6
			v3h0.6l3.1-3.5c0.3-0.3,0.4-0.4,0.6-0.4c0.1,0,0.3,0.1,0.4,0.1c0.1,0.1,0.2,0.3,0.2,0.4c0,0.2-0.1,0.3-0.3,0.6l-2.9,3.2l3.2,3.7
			c0.3,0.3,0.3,0.5,0.3,0.6c0,0.2-0.1,0.3-0.2,0.4c-0.1,0.1-0.3,0.1-0.4,0.1c-0.2,0-0.4-0.1-0.6-0.4l-3.4-3.9h-0.6v3.4
			c0,0.3,0,0.5-0.1,0.6c-0.1,0.2-0.3,0.3-0.6,0.3c-0.3,0-0.5-0.1-0.6-0.3c-0.1-0.2-0.1-0.3-0.1-0.6v-3.4h-0.6l-3.4,3.9
			c-0.3,0.3-0.4,0.4-0.6,0.4c-0.1,0-0.3-0.1-0.4-0.1c-0.1-0.1-0.2-0.3-0.2-0.4c0-0.2,0.1-0.3,0.3-0.6l3.2-3.7l-2.9-3.2
			c-0.3-0.3-0.3-0.5-0.3-0.6c0-0.2,0.1-0.3,0.2-0.4c0.1-0.1,0.3-0.1,0.4-0.1c0.2,0,0.4,0.1,0.6,0.4l3.1,3.5h0.6V569.6z"/>
		<path class="st1" d="M-1158.8,577.3c-0.3,0.4-0.5,0.6-0.9,0.6c-0.2,0-0.4-0.1-0.5-0.2c-0.2-0.2-0.2-0.4-0.2-0.7v-7.5
			c0-0.3,0-0.5,0.1-0.6c0.1-0.2,0.3-0.3,0.6-0.3c0.3,0,0.5,0.1,0.6,0.3c0.1,0.2,0.1,0.3,0.1,0.6v6.2l4.3-6.5
			c0.3-0.4,0.5-0.6,0.9-0.6c0.2,0,0.4,0.1,0.5,0.2c0.2,0.2,0.2,0.4,0.2,0.7v7.5c0,0.3,0,0.5-0.1,0.6c-0.1,0.2-0.3,0.3-0.6,0.3
			c-0.3,0-0.5-0.1-0.6-0.3c-0.1-0.2-0.1-0.3-0.1-0.6v-6.2L-1158.8,577.3z"/>
		<path class="st1" d="M-1145.6,573.1c0,3.8-1.2,4.9-2.9,4.9c-0.2,0-0.4,0-0.5-0.1c-0.2-0.1-0.3-0.3-0.3-0.5c0-0.2,0.1-0.4,0.3-0.5
			c0.1-0.1,0.2-0.1,0.4-0.1c0.8-0.1,1.7-0.8,1.7-4.1v-3.1c0-0.2,0-0.4,0.2-0.6c0.2-0.2,0.4-0.2,0.6-0.2h4.2c0.2,0,0.4,0,0.6,0.2
			c0.2,0.2,0.2,0.4,0.2,0.6v7.5c0,0.3,0,0.5-0.1,0.6c-0.1,0.2-0.3,0.3-0.6,0.3c-0.3,0-0.5-0.1-0.6-0.3c-0.1-0.2-0.1-0.3-0.1-0.6
			v-7.1h-3.2V573.1z"/>
		<path class="st1" d="M-1129.9,569.7c1,1,1.1,2.2,1.1,3.7c0,1.4-0.2,2.7-1.1,3.7c-0.6,0.6-1.5,1-2.6,1s-2-0.4-2.6-1
			c-1-1-1.1-2.3-1.1-3.7c0-1.4,0.2-2.7,1.1-3.7c0.6-0.6,1.5-1,2.6-1S-1130.5,569-1129.9,569.7z M-1130.8,576.1
			c0.6-0.6,0.7-1.8,0.7-2.8c0-1.1-0.1-2.2-0.7-2.8c-0.4-0.4-1-0.7-1.7-0.7c-0.7,0-1.2,0.2-1.7,0.7c-0.6,0.6-0.7,1.8-0.7,2.8
			c0,1.1,0.1,2.2,0.7,2.8c0.4,0.4,1,0.7,1.7,0.7C-1131.8,576.8-1131.3,576.6-1130.8,576.1z"/>
		<path class="st1" d="M-1122.4,577.3c-0.3,0.4-0.5,0.6-0.9,0.6c-0.2,0-0.4-0.1-0.5-0.2c-0.2-0.2-0.2-0.4-0.2-0.7v-7.5
			c0-0.3,0-0.5,0.1-0.6c0.1-0.2,0.3-0.3,0.6-0.3c0.3,0,0.5,0.1,0.6,0.3c0.1,0.2,0.1,0.3,0.1,0.6v6.2l4.3-6.5
			c0.3-0.4,0.5-0.6,0.9-0.6c0.2,0,0.4,0.1,0.5,0.2c0.2,0.2,0.2,0.4,0.2,0.7v7.5c0,0.3,0,0.5-0.1,0.6c-0.1,0.2-0.3,0.3-0.6,0.3
			c-0.3,0-0.5-0.1-0.6-0.3c-0.1-0.2-0.1-0.3-0.1-0.6v-6.2L-1122.4,577.3z M-1122.6,565.9c-0.2-0.2-0.3-0.4-0.3-0.5
			c0-0.2,0-0.3,0.1-0.4c0.1-0.1,0.3-0.2,0.4-0.2c0.1,0,0.3,0.1,0.4,0.2c0.4,0.4,0.9,0.7,1.6,0.7c0.7,0,1.1-0.3,1.6-0.7
			c0.2-0.2,0.3-0.2,0.4-0.2c0.1,0,0.3,0,0.4,0.2c0.1,0.1,0.2,0.3,0.1,0.4c0,0.2-0.1,0.3-0.3,0.5c-0.6,0.6-1.4,1-2.3,1
			C-1121.3,566.9-1122,566.5-1122.6,565.9z"/>
		<path class="st1" d="M-1103.5,572.6h0.6l3.1-3.5c0.3-0.3,0.4-0.4,0.6-0.4c0.1,0,0.3,0.1,0.4,0.1c0.1,0.1,0.2,0.3,0.2,0.4
			c0,0.2-0.1,0.3-0.3,0.6l-2.9,3.2l3.2,3.7c0.3,0.3,0.3,0.5,0.3,0.6c0,0.2-0.1,0.3-0.2,0.4c-0.1,0.1-0.3,0.1-0.4,0.1
			c-0.2,0-0.4-0.1-0.6-0.4l-3.4-3.9h-0.6v3.4c0,0.3,0,0.5-0.1,0.6c-0.1,0.2-0.3,0.3-0.6,0.3c-0.3,0-0.5-0.1-0.6-0.3
			c-0.1-0.2-0.1-0.3-0.1-0.6v-7.5c0-0.3,0-0.5,0.1-0.6c0.1-0.2,0.3-0.3,0.6-0.3c0.3,0,0.5,0.1,0.6,0.3c0.1,0.2,0.1,0.3,0.1,0.6
			V572.6z"/>
		<path class="st1" d="M-1093.2,577.9c-0.2,0-0.4,0-0.6-0.2c-0.2-0.2-0.2-0.4-0.2-0.6v-7.5c0-0.2,0-0.4,0.2-0.6
			c0.2-0.2,0.4-0.2,0.6-0.2h3.5c1.6,0,2.7,1,2.7,2.4c0,1-0.5,1.7-1.5,2c1,0.4,1.6,1.1,1.6,2.2c0,1.6-1,2.5-2.7,2.5H-1093.2z
			 M-1089.9,569.9h-2.7v2.7h2.7c1.1,0,1.6-0.5,1.6-1.4C-1088.3,570.4-1088.9,569.9-1089.9,569.9z M-1089.8,573.7h-2.8v3h2.8
			c1,0,1.7-0.6,1.7-1.5C-1088.2,574.3-1088.8,573.7-1089.8,573.7z"/>
		<path class="st1" d="M-1079.6,572.6h2.8v-0.7c0-1.4-0.7-2.1-2.3-2.1c-0.9,0-1.5,0.3-2.1,0.8c-0.2,0.2-0.4,0.2-0.6,0.2
			s-0.3-0.1-0.4-0.2c-0.1-0.1-0.2-0.2-0.2-0.4c0-0.3,0.3-0.7,0.9-1c0.7-0.4,1.4-0.6,2.4-0.6c2.4,0,3.6,1.1,3.6,3.1v5.4
			c0,0.3,0,0.5-0.1,0.6c-0.1,0.2-0.3,0.3-0.6,0.3c-0.3,0-0.5-0.1-0.6-0.3c-0.1-0.2-0.1-0.3-0.1-0.6v0c-0.7,0.7-1.4,1-2.6,1
			c-1.3,0-2-0.3-2.6-0.8c-0.4-0.5-0.7-1.1-0.7-1.9C-1082.8,573.7-1081.6,572.6-1079.6,572.6z M-1079.4,576.9c0.8,0,1.5-0.1,2-0.6
			c0.3-0.3,0.5-0.8,0.5-1.6v-1h-2.6c-1.3,0-2,0.6-2,1.6C-1081.5,576.3-1080.8,576.9-1079.4,576.9z"/>
		<path class="st1" d="M-1064.1,577.2c-0.5,0.5-1.3,0.8-2.2,0.8c-1,0-1.8-0.2-2.6-1.2v4.3c0,0.3,0,0.5-0.1,0.6
			c-0.1,0.2-0.3,0.3-0.6,0.3c-0.3,0-0.5-0.1-0.6-0.3c-0.1-0.2-0.1-0.3-0.1-0.6v-11.6c0-0.3,0-0.5,0.1-0.6c0.1-0.2,0.3-0.3,0.6-0.3
			c0.3,0,0.5,0.1,0.6,0.3c0.1,0.2,0.1,0.3,0.1,0.6v0.3c0.8-1,1.6-1.2,2.6-1.2c1,0,1.8,0.3,2.2,0.8c0.9,0.9,1.1,2.4,1.1,3.9
			C-1063,574.8-1063.2,576.3-1064.1,577.2z M-1066.7,576.8c2,0,2.3-1.7,2.3-3.5c0-1.8-0.3-3.5-2.3-3.5c-2,0-2.3,1.7-2.3,3.5
			C-1069,575.1-1068.7,576.8-1066.7,576.8z"/>
		<path class="st1" d="M-1052.4,569.8c-0.1,0.1-0.3,0.1-0.6,0.1h-2.3v7.1c0,0.3,0,0.5-0.1,0.6c-0.1,0.2-0.3,0.3-0.6,0.3
			c-0.3,0-0.5-0.1-0.6-0.3c-0.1-0.2-0.1-0.3-0.1-0.6v-7.1h-2.3c-0.3,0-0.4,0-0.6-0.1c-0.2-0.1-0.3-0.3-0.3-0.5
			c0-0.2,0.1-0.4,0.3-0.5c0.1-0.1,0.3-0.1,0.6-0.1h5.9c0.3,0,0.4,0,0.6,0.1c0.2,0.1,0.3,0.3,0.3,0.5
			C-1052.1,569.6-1052.2,569.7-1052.4,569.8z"/>
		<path class="st1" d="M-1046,572.6h2.8v-0.7c0-1.4-0.7-2.1-2.3-2.1c-0.9,0-1.5,0.3-2.1,0.8c-0.2,0.2-0.4,0.2-0.6,0.2
			s-0.3-0.1-0.4-0.2c-0.1-0.1-0.2-0.2-0.2-0.4c0-0.3,0.3-0.7,0.9-1c0.7-0.4,1.4-0.6,2.4-0.6c2.4,0,3.6,1.1,3.6,3.1v5.4
			c0,0.3,0,0.5-0.1,0.6c-0.1,0.2-0.3,0.3-0.6,0.3c-0.3,0-0.5-0.1-0.6-0.3c-0.1-0.2-0.1-0.3-0.1-0.6v0c-0.7,0.7-1.4,1-2.6,1
			c-1.3,0-2-0.3-2.6-0.8c-0.4-0.5-0.7-1.1-0.7-1.9C-1049.2,573.7-1048,572.6-1046,572.6z M-1045.7,576.9c0.8,0,1.5-0.1,2-0.6
			c0.3-0.3,0.5-0.8,0.5-1.6v-1h-2.6c-1.3,0-2,0.6-2,1.6C-1047.8,576.3-1047.1,576.9-1045.7,576.9z"/>
		<path class="st1" d="M-1034.4,573.1c0,3.8-1.2,4.9-2.9,4.9c-0.2,0-0.4,0-0.5-0.1c-0.2-0.1-0.3-0.3-0.3-0.5c0-0.2,0.1-0.4,0.3-0.5
			c0.1-0.1,0.2-0.1,0.4-0.1c0.8-0.1,1.7-0.8,1.7-4.1v-3.1c0-0.2,0-0.4,0.2-0.6c0.2-0.2,0.4-0.2,0.6-0.2h4.2c0.2,0,0.4,0,0.6,0.2
			c0.2,0.2,0.2,0.4,0.2,0.6v7.5c0,0.3,0,0.5-0.1,0.6c-0.1,0.2-0.3,0.3-0.6,0.3c-0.3,0-0.5-0.1-0.6-0.3c-0.1-0.2-0.1-0.3-0.1-0.6
			v-7.1h-3.2V573.1z"/>
	</g>
</g>
</svg>
