<?xml version="1.0" encoding="utf-8"?>
<!-- Generator: Adobe Illustrator 19.0.0, SVG Export Plug-In . SVG Version: 6.00 Build 0)  -->
<svg version="1.1" id="Layer_1" xmlns="http://www.w3.org/2000/svg" xmlns:xlink="http://www.w3.org/1999/xlink" x="0px" y="0px"
	 viewBox="-149 73 280 105" style="enable-background:new -149 73 280 105;" xml:space="preserve">
<style type="text/css">
	.st0{fill:#FFFFFF;}
	.st1{fill:#5C4925;}
</style>
<g>
	<g id="XMLID_1_">
		<g id="XMLID_11_">
			<path id="XMLID_12_" class="st0" d="M-104.6,95c-0.5,0.5-1.2,0.8-1.9,0.8h-21.7v21.4c0,1.5-1.2,2.7-2.7,2.7s-2.7-1.2-2.7-2.7V93
				c0-1.5,1.2-2.7,2.7-2.7h24.4c1.5,0,2.7,1.2,2.7,2.7C-103.9,93.8-104.3,94.5-104.6,95z"/>
		</g>
		<g id="XMLID_9_">
			<path id="XMLID_10_" class="st0" d="M-120,78.3c-0.5,0.5-1.2,0.8-1.9,0.8h-21.7v21.4c0,1.5-1.2,2.7-2.7,2.7s-2.7-1.2-2.7-2.7
				V76.5c0-1.5,1.2-2.7,2.7-2.7h24.4c1.5,0,2.7,1.2,2.7,2.7C-119.2,77.1-119.5,77.8-120,78.3z"/>
		</g>
		<path id="XMLID_8_" class="st1" d="M-118.8,132.2v-25.1c0-1,0-2.2,0.8-3.1c0.8-0.8,2-0.8,3.1-0.8h22.4c1.4,0,1.9,0,2.5,0.3
			c0.8,0.3,1.4,1.4,1.4,2.5s-0.5,2-1.4,2.5c-0.7,0.3-1.2,0.3-2.5,0.3h-19.8v23.2c0,1.5,0,2-0.5,2.9c-0.5,0.8-1.5,1.5-2.9,1.5
			s-2.4-0.7-2.9-1.5C-118.7,134.5-118.8,133.8-118.8,132.2z"/>
		<path id="XMLID_7_" class="st1" d="M-83.7,132.2v-25.1c0-1,0-2.2,0.8-3.1s2-0.8,3.1-0.8h13.9c6.9,0,11,4.7,11,10.3
			s-4.1,10.3-11,10.3h-11.4v8.3c0,1.5,0,2-0.5,2.9s-1.5,1.5-2.9,1.5s-2.4-0.7-2.9-1.5C-83.6,134.5-83.7,133.8-83.7,132.2z
			 M-66.3,118.1c2.9,0,4.7-1.9,4.7-4.6c0-2.7-1.9-4.6-4.7-4.6h-11v9.2L-66.3,118.1L-66.3,118.1z"/>
		<path id="XMLID_6_" class="st1" d="M-27.3,106.1c2-2,2.5-2.9,3.9-2.9c1,0,1.7,0.3,2.2,0.8c0.7,0.8,0.8,1.7,0.8,3.1v25.1
			c0,1.5,0,2-0.5,2.9c-0.5,0.8-1.5,1.5-2.9,1.5s-2.4-0.7-2.9-1.5c-0.3-0.8-0.5-1.4-0.5-2.9v-16.8L-44,133.7c-2,2-2.2,2.9-3.9,2.9
			c-1,0-1.7-0.3-2.2-0.8c-0.7-0.8-0.8-1.7-0.8-3.1v-25.1c0-1.5,0-2,0.5-2.9c0.5-0.8,1.5-1.5,2.9-1.5s2.4,0.7,2.9,1.5
			c0.3,0.8,0.5,1.4,0.5,2.9v16.8L-27.3,106.1z"/>
		<path id="XMLID_5_" class="st1" d="M-6.8,132.3c0,1.5,0,2-0.5,2.9c-0.5,0.8-1.5,1.5-2.9,1.5s-2.4-0.7-2.9-1.5
			c-0.3-0.8-0.5-1.4-0.5-2.9v-24.7c0-1.5,0-2,0.5-2.9c0.5-0.8,1.5-1.5,2.9-1.5s2.4,0.7,2.9,1.5c0.3,0.8,0.5,1.4,0.5,2.9v9.3h17.3
			v-9.3c0-1.5,0-2,0.5-2.9c0.5-0.8,1.5-1.5,2.9-1.5s2.4,0.7,2.9,1.5c0.3,0.8,0.5,1.4,0.5,2.9v24.7c0,1.5,0,2-0.5,2.9
			c-0.5,0.8-1.5,1.5-2.9,1.5s-2.4-0.7-2.9-1.5c-0.3-0.8-0.5-1.4-0.5-2.9v-9.7H-6.8V132.3z"/>
		<path id="XMLID_4_" class="st1" d="M59.1,135.6c0-1.5,0-2,0.5-2.7c0.5-0.8,1.5-1.5,2.7-1.5c2.4-5.4,3.6-13.2,3.6-21v-3.2
			c0-1,0-2.2,0.8-3.1c0.8-0.8,2-0.8,3.1-0.8h16.4c1,0,2.2,0,3.1,0.8s0.8,2,0.8,3.1v24.1c1.2,0,2.2,0.7,2.7,1.5
			c0.3,0.8,0.5,1.4,0.5,2.7v1.5c0,1.5,0,2-0.5,2.7c-0.5,0.8-1.5,1.5-2.7,1.5s-2.2-0.7-2.7-1.5c-0.3-0.8-0.5-1.4-0.5-2.7l0,0H65.4
			l0,0c0,1.5,0,2-0.5,2.7c-0.5,0.8-1.5,1.5-2.7,1.5s-2.2-0.7-2.7-1.5c-0.3-0.8-0.5-1.4-0.5-2.7L59.1,135.6L59.1,135.6L59.1,135.6z
			 M72.2,109v4.2c0,7.3-1.2,13.4-3.2,18.1h14.7v-22.2L72.2,109L72.2,109z"/>
		<path id="XMLID_3_" class="st1" d="M54.4,131.5c0.7,1.7,1,2.9-0.2,4.2c-0.7,0.7-1.5,1-2.4,1c-0.7,0-1.4-0.2-1.9-0.7
			s-0.8-1-1.4-2.4l-1-3.1H28.9l-1,3.1c-0.5,1.5-0.8,2-1.4,2.4c-0.5,0.3-1,0.7-1.9,0.7s-1.7-0.3-2.4-1c-1.2-1.2-0.8-2.5-0.2-4.2
			l9.5-24.7c0.5-1.2,2-3.7,6.8-3.7c3.7,0,5.8,2.5,6.3,3.7L54.4,131.5z M31.2,125.2h14.6l-3.4-9.8c0,0-0.7-1.5-1.7-4.2
			c-0.7-1.7-1.5-1.9-2.4-1.9c-0.8,0-1.5,0.2-2.2,1.9c-0.7,1.4-1.5,4.2-1.5,4.2L31.2,125.2z"/>
		<path id="XMLID_2_" class="st1" d="M129.5,131.5c0.7,1.7,1,2.9-0.2,4.2c-0.7,0.7-1.5,1-2.4,1c-0.7,0-1.4-0.2-1.9-0.7
			s-0.8-1-1.4-2.4l-1-3.1H104l-1,3.1c-0.5,1.5-0.8,2-1.4,2.4c-0.5,0.3-1,0.7-1.9,0.7c-0.8,0-1.7-0.3-2.4-1c-1.2-1.2-0.8-2.5-0.2-4.2
			l9.5-24.7c0.5-1.2,2-3.7,6.8-3.7c3.7,0,5.8,2.5,6.3,3.7L129.5,131.5z M106.3,125.2h14.6l-3.4-9.8c0,0-0.7-1.5-1.7-4.2
			c-0.7-1.7-1.5-1.9-2.4-1.9s-1.5,0.2-2.2,1.9c-0.7,1.4-1.5,4.2-1.5,4.2L106.3,125.2z"/>
	</g>
	<g>
		<path class="st1" d="M-108.7,156.1c0-0.5,0-0.8,0.2-1c0.2-0.3,0.5-0.5,1-0.5s0.8,0.2,1,0.5s0.2,0.5,0.2,1v5.1h1l5.3-5.9
			c0.5-0.5,0.7-0.7,1-0.7c0.2,0,0.5,0.2,0.7,0.2c0.2,0.2,0.3,0.5,0.3,0.7c0,0.3-0.2,0.5-0.5,1l-4.9,5.4l5.4,6.3
			c0.5,0.5,0.5,0.8,0.5,1c0,0.3-0.2,0.5-0.3,0.7c-0.2,0.2-0.5,0.2-0.7,0.2c-0.3,0-0.7-0.2-1-0.7l-5.8-6.6h-1v5.8c0,0.5,0,0.8-0.2,1
			c-0.2,0.3-0.5,0.5-1,0.5s-0.8-0.2-1-0.5s-0.2-0.5-0.2-1v-5.8h-1l-5.8,6.6c-0.5,0.5-0.7,0.7-1,0.7c-0.2,0-0.5-0.2-0.7-0.2
			c-0.2-0.2-0.3-0.5-0.3-0.7c0-0.3,0.2-0.5,0.5-1l5.4-6.3l-4.9-5.4c-0.5-0.5-0.5-0.8-0.5-1c0-0.3,0.2-0.5,0.3-0.7
			c0.2-0.2,0.5-0.2,0.7-0.2c0.3,0,0.7,0.2,1,0.7l5.3,5.9h1V156.1L-108.7,156.1z"/>
		<path class="st1" d="M-87.5,169.1c-0.5,0.7-0.8,1-1.5,1c-0.3,0-0.7-0.2-0.8-0.3c-0.3-0.3-0.3-0.7-0.3-1.2v-12.7c0-0.5,0-0.8,0.2-1
			c0.2-0.3,0.5-0.5,1-0.5s0.8,0.2,1,0.5s0.2,0.5,0.2,1v10.5l7.3-11c0.5-0.7,0.8-1,1.5-1c0.3,0,0.7,0.2,0.8,0.3
			c0.3,0.3,0.3,0.7,0.3,1.2v12.7c0,0.5,0,0.8-0.2,1c-0.2,0.3-0.5,0.5-1,0.5s-0.8-0.2-1-0.5s-0.2-0.5-0.2-1v-10.5L-87.5,169.1z"/>
		<path class="st1" d="M-65.1,162c0,6.4-2,8.3-4.9,8.3c-0.3,0-0.7,0-0.8-0.2c-0.3-0.2-0.5-0.5-0.5-0.8s0.2-0.7,0.5-0.8
			c0.2-0.2,0.3-0.2,0.7-0.2c1.4-0.2,2.9-1.4,2.9-6.9v-5.3c0-0.3,0-0.7,0.3-1s0.7-0.3,1-0.3h7.1c0.3,0,0.7,0,1,0.3s0.3,0.7,0.3,1
			v12.7c0,0.5,0,0.8-0.2,1c-0.2,0.3-0.5,0.5-1,0.5s-0.8-0.2-1-0.5s-0.2-0.5-0.2-1v-12h-5.4v5.3L-65.1,162L-65.1,162z"/>
		<path class="st1" d="M-38.5,156.2c1.7,1.7,1.9,3.7,1.9,6.3c0,2.4-0.3,4.6-1.9,6.3c-1,1-2.5,1.7-4.4,1.7s-3.4-0.7-4.4-1.7
			c-1.7-1.7-1.9-3.9-1.9-6.3s0.3-4.6,1.9-6.3c1-1,2.5-1.7,4.4-1.7S-39.5,155.1-38.5,156.2z M-40,167.1c1-1,1.2-3.1,1.2-4.7
			c0-1.9-0.2-3.7-1.2-4.7c-0.7-0.7-1.7-1.2-2.9-1.2c-1.2,0-2,0.3-2.9,1.2c-1,1-1.2,3.1-1.2,4.7c0,1.9,0.2,3.7,1.2,4.7
			c0.7,0.7,1.7,1.2,2.9,1.2S-40.9,168-40,167.1z"/>
		<path class="st1" d="M-25.8,169.1c-0.5,0.7-0.8,1-1.5,1c-0.3,0-0.7-0.2-0.8-0.3c-0.3-0.3-0.3-0.7-0.3-1.2v-12.7c0-0.5,0-0.8,0.2-1
			c0.2-0.3,0.5-0.5,1-0.5s0.8,0.2,1,0.5s0.2,0.5,0.2,1v10.5l7.3-11c0.5-0.7,0.8-1,1.5-1c0.3,0,0.7,0.2,0.8,0.3
			c0.3,0.3,0.3,0.7,0.3,1.2v12.7c0,0.5,0,0.8-0.2,1c-0.2,0.3-0.5,0.5-1,0.5s-0.8-0.2-1-0.5s-0.2-0.5-0.2-1v-10.5L-25.8,169.1z
			 M-26.1,149.8c-0.3-0.3-0.5-0.7-0.5-0.8c0-0.3,0-0.5,0.2-0.7s0.5-0.3,0.7-0.3s0.5,0.2,0.7,0.3c0.7,0.7,1.5,1.2,2.7,1.2
			s1.9-0.5,2.7-1.2c0.3-0.3,0.5-0.3,0.7-0.3s0.5,0,0.7,0.3c0.2,0.2,0.3,0.5,0.2,0.7c0,0.3-0.2,0.5-0.5,0.8c-1,1-2.4,1.7-3.9,1.7
			C-23.9,151.5-25.1,150.8-26.1,149.8z"/>
		<path class="st1" d="M6.3,161.2h1l5.3-5.9c0.5-0.5,0.7-0.7,1-0.7c0.2,0,0.5,0.2,0.7,0.2c0.2,0.2,0.3,0.5,0.3,0.7
			c0,0.3-0.2,0.5-0.5,1L9.2,162l5.4,6.3c0.5,0.5,0.5,0.8,0.5,1c0,0.3-0.2,0.5-0.3,0.7c-0.2,0.2-0.5,0.2-0.7,0.2
			c-0.3,0-0.7-0.2-1-0.7l-5.8-6.6h-1v5.8c0,0.5,0,0.8-0.2,1c-0.2,0.3-0.5,0.5-1,0.5s-0.8-0.2-1-0.5s-0.2-0.5-0.2-1V156
			c0-0.5,0-0.8,0.2-1c0.2-0.3,0.5-0.5,1-0.5s0.8,0.2,1,0.5s0.2,0.5,0.2,1V161.2L6.3,161.2z"/>
		<path class="st1" d="M23.7,170.1c-0.3,0-0.7,0-1-0.3s-0.3-0.7-0.3-1v-12.7c0-0.3,0-0.7,0.3-1s0.7-0.3,1-0.3h5.9
			c2.7,0,4.6,1.7,4.6,4.1c0,1.7-0.8,2.9-2.5,3.4c1.7,0.7,2.7,1.9,2.7,3.7c0,2.7-1.7,4.2-4.6,4.2L23.7,170.1L23.7,170.1z M29.3,156.6
			h-4.6v4.6h4.6c1.9,0,2.7-0.8,2.7-2.4C32,157.5,31,156.6,29.3,156.6z M29.5,163h-4.7v5.1h4.7c1.7,0,2.9-1,2.9-2.5
			C32.2,164,31.2,163,29.5,163z"/>
		<path class="st1" d="M46.8,161.2h4.7V160c0-2.4-1.2-3.6-3.9-3.6c-1.5,0-2.5,0.5-3.6,1.4c-0.3,0.3-0.7,0.3-1,0.3s-0.5-0.2-0.7-0.3
			c-0.2-0.2-0.3-0.3-0.3-0.7c0-0.5,0.5-1.2,1.5-1.7c1.2-0.7,2.4-1,4.1-1c4.1,0,6.1,1.9,6.1,5.3v9.2c0,0.5,0,0.8-0.2,1
			c-0.2,0.3-0.5,0.5-1,0.5s-0.8-0.2-1-0.5s-0.2-0.5-0.2-1l0,0c-1.2,1.2-2.4,1.7-4.4,1.7c-2.2,0-3.4-0.5-4.4-1.4
			c-0.7-0.8-1.2-1.9-1.2-3.2C41.3,163,43.4,161.2,46.8,161.2z M47.1,168.5c1.4,0,2.5-0.2,3.4-1c0.5-0.5,0.8-1.4,0.8-2.7V163h-4.4
			c-2.2,0-3.4,1-3.4,2.7S44.7,168.5,47.1,168.5z"/>
		<path class="st1" d="M73,169c-0.8,0.8-2.2,1.4-3.7,1.4c-1.7,0-3.1-0.3-4.4-2v7.3c0,0.5,0,0.8-0.2,1c-0.2,0.3-0.5,0.5-1,0.5
			s-0.8-0.2-1-0.5s-0.2-0.5-0.2-1V156c0-0.5,0-0.8,0.2-1c0.2-0.3,0.5-0.5,1-0.5s0.8,0.2,1,0.5s0.2,0.5,0.2,1v0.5
			c1.4-1.7,2.7-2,4.4-2s3.1,0.5,3.7,1.4c1.5,1.5,1.9,4.1,1.9,6.6S74.6,167.5,73,169z M68.6,168.3c3.4,0,3.9-2.9,3.9-5.9
			s-0.5-5.9-3.9-5.9s-3.9,2.9-3.9,5.9S65.2,168.3,68.6,168.3z"/>
		<path class="st1" d="M92.9,156.5c-0.2,0.2-0.5,0.2-1,0.2H88v12c0,0.5,0,0.8-0.2,1c-0.2,0.3-0.5,0.5-1,0.5s-0.8-0.2-1-0.5
			s-0.2-0.5-0.2-1v-12h-3.9c-0.5,0-0.7,0-1-0.2s-0.5-0.5-0.5-0.8s0.2-0.7,0.5-0.8c0.2-0.2,0.5-0.2,1-0.2h10c0.5,0,0.7,0,1,0.2
			s0.5,0.5,0.5,0.8C93.4,156.1,93.2,156.2,92.9,156.5z"/>
		<path class="st1" d="M103.7,161.2h4.7V160c0-2.4-1.2-3.6-3.9-3.6c-1.5,0-2.5,0.5-3.6,1.4c-0.3,0.3-0.7,0.3-1,0.3s-0.5-0.2-0.7-0.3
			c-0.2-0.2-0.3-0.3-0.3-0.7c0-0.5,0.5-1.2,1.5-1.7c1.2-0.7,2.4-1,4.1-1c4.1,0,6.1,1.9,6.1,5.3v9.2c0,0.5,0,0.8-0.2,1
			c-0.2,0.3-0.5,0.5-1,0.5s-0.8-0.2-1-0.5s-0.2-0.5-0.2-1l0,0c-1.2,1.2-2.4,1.7-4.4,1.7c-2.2,0-3.4-0.5-4.4-1.4
			c-0.7-0.8-1.2-1.9-1.2-3.2C98.3,163,100.3,161.2,103.7,161.2z M104.2,168.5c1.4,0,2.5-0.2,3.4-1c0.5-0.5,0.8-1.4,0.8-2.7V163H104
			c-2.2,0-3.4,1-3.4,2.7C100.7,167.5,101.8,168.5,104.2,168.5z"/>
		<path class="st1" d="M123.4,162c0,6.4-2,8.3-4.9,8.3c-0.3,0-0.7,0-0.8-0.2c-0.3-0.2-0.5-0.5-0.5-0.8s0.2-0.7,0.5-0.8
			c0.2-0.2,0.3-0.2,0.7-0.2c1.4-0.2,2.9-1.4,2.9-6.9v-5.3c0-0.3,0-0.7,0.3-1s0.7-0.3,1-0.3h7.1c0.3,0,0.7,0,1,0.3s0.3,0.7,0.3,1
			v12.7c0,0.5,0,0.8-0.2,1c-0.2,0.3-0.5,0.5-1,0.5s-0.8-0.2-1-0.5s-0.2-0.5-0.2-1v-12h-5.4v5.3L123.4,162L123.4,162z"/>
	</g>
</g>
</svg>
