<?xml version="1.0" encoding="utf-8"?>
<!-- Generator: Adobe Illustrator 19.0.0, SVG Export Plug-In . SVG Version: 6.00 Build 0)  -->
<svg version="1.1" id="Layer_1" xmlns="http://www.w3.org/2000/svg" xmlns:xlink="http://www.w3.org/1999/xlink" x="0px" y="0px"
	 viewBox="0 0 110 110" style="enable-background:new 0 0 110 110;" xml:space="preserve">
<style type="text/css">
	.st0{fill:#95D600;}
</style>
<g id="XMLID_264_">
	<path id="XMLID_249_" class="st0" d="M24.9,105c-2.5-0.1-5-0.9-7.4-2.2c-5.1-2.9-8.1-8.2-8-14l0.2-67.6c0-5.8,3.1-11.1,8.1-14
		C22.9,4.3,29,4.3,34,7.2l58.4,34c5.1,2.9,8.1,8.2,8,14c0,5.8-3.1,11.1-8.1,14l-58.7,33.6C31,104.4,27.9,105.1,24.9,105z M28,24.9
		l-0.2,60.1L80,55.2L28,24.9z"/>
</g>
</svg>
