<?xml version="1.0" encoding="utf-8"?>
<!-- Generator: Adobe Illustrator 19.0.0, SVG Export Plug-In . SVG Version: 6.00 Build 0)  -->
<svg version="1.1" id="Layer_1" xmlns="http://www.w3.org/2000/svg" xmlns:xlink="http://www.w3.org/1999/xlink" x="0px" y="0px"
	 viewBox="0 0 55 370" style="enable-background:new 0 0 55 370;" xml:space="preserve">
<style type="text/css">
	.st0{opacity:0.1;}
</style>
<g id="XMLID_142_" class="st0">
	<g id="XMLID_143_">
		<g id="XMLID_2947_">
			<path id="XMLID_2948_" d="M42,340.1c0,0.9-0.3,1.8-1,2.5l-22,22c-1.4,1.4-3.6,1.4-5,0c-1.4-1.4-1.4-3.6,0-5l19.6-19.6L14,320.6
				c-1.4-1.4-1.4-3.6,0-5c1.4-1.4,3.6-1.4,5,0l22,22.1C41.7,338.3,42,339.2,42,340.1z"/>
		</g>
		<g id="XMLID_2945_">
			<path id="XMLID_2946_" d="M42,296c0,0.9-0.3,1.8-1,2.5l-22,22.1c-1.4,1.4-3.6,1.4-5,0c-1.4-1.4-1.4-3.6,0-5L33.6,296L14,276.5
				c-1.4-1.4-1.4-3.6,0-5c1.4-1.4,3.6-1.4,5,0l22,22.1C41.7,294.2,42,295.1,42,296z"/>
		</g>
	</g>
	<g id="XMLID_144_">
		<g id="XMLID_2942_">
			<path id="XMLID_2943_" d="M42,251.9c0,0.9-0.3,1.8-1,2.5l-22,22c-1.4,1.4-3.6,1.4-5,0c-1.4-1.4-1.4-3.6,0-5l19.6-19.6L14,232.3
				c-1.4-1.4-1.4-3.6,0-5c1.4-1.4,3.6-1.4,5,0l22,22.1C41.7,250.1,42,251,42,251.9z"/>
		</g>
		<g id="XMLID_2940_">
			<path id="XMLID_2941_" d="M42,207.8c0,0.9-0.3,1.8-1,2.5l-22,22.1c-1.4,1.4-3.6,1.4-5,0c-1.4-1.4-1.4-3.6,0-5l19.6-19.6L14,188.2
				c-1.4-1.4-1.4-3.6,0-5c1.4-1.4,3.6-1.4,5,0l22,22.1C41.7,206,42,206.9,42,207.8z"/>
		</g>
	</g>
	<g id="XMLID_145_">
		<g id="XMLID_2950_">
			<path id="XMLID_2951_" d="M42,162.5c0,0.9-0.3,1.8-1,2.5l-22,22c-1.4,1.4-3.6,1.4-5,0c-1.4-1.4-1.4-3.6,0-5l19.6-19.6L14,143
				c-1.4-1.4-1.4-3.6,0-5c1.4-1.4,3.6-1.4,5,0L41,160C41.7,160.7,42,161.6,42,162.5z"/>
		</g>
		<g id="XMLID_2944_">
			<path id="XMLID_2949_" d="M42,118.4c0,0.9-0.3,1.8-1,2.5L19,143c-1.4,1.4-3.6,1.4-5,0c-1.4-1.4-1.4-3.6,0-5l19.6-19.6L14,98.9
				c-1.4-1.4-1.4-3.6,0-5c1.4-1.4,3.6-1.4,5,0l22,22.1C41.7,116.6,42,117.5,42,118.4z"/>
		</g>
	</g>
	<g id="XMLID_146_">
		<g id="XMLID_2954_">
			<path id="XMLID_2955_" d="M42,74c0,0.9-0.3,1.8-1,2.5l-22,22c-1.4,1.4-3.6,1.4-5,0c-1.4-1.4-1.4-3.6,0-5L33.6,74L14,54.4
				c-1.4-1.4-1.4-3.6,0-5c1.4-1.4,3.6-1.4,5,0l22,22.1C41.7,72.2,42,73.1,42,74z"/>
		</g>
		<g id="XMLID_2952_">
			<path id="XMLID_2953_" d="M42,29.9c0,0.9-0.3,1.8-1,2.5L19,54.4c-1.4,1.4-3.6,1.4-5,0c-1.4-1.4-1.4-3.6,0-5l19.6-19.6L14,10.3
				c-1.4-1.4-1.4-3.6,0-5c1.4-1.4,3.6-1.4,5,0l22,22.1C41.7,28.1,42,29,42,29.9z"/>
		</g>
	</g>
</g>
</svg>
