<?xml version="1.0" encoding="utf-8"?>
<!-- Generator: Adobe Illustrator 19.0.0, SVG Export Plug-In . SVG Version: 6.00 Build 0)  -->
<svg version="1.1" id="Layer_2" xmlns="http://www.w3.org/2000/svg" xmlns:xlink="http://www.w3.org/1999/xlink" x="0px" y="0px"
	 viewBox="-739 861 520 280" style="enable-background:new -739 861 520 280;" xml:space="preserve">
<style type="text/css">
	.st0{opacity:0.4;}
	.st1{fill:none;stroke:#95D600;stroke-width:7;stroke-linecap:round;stroke-linejoin:round;stroke-miterlimit:10;}
	.st2{fill:#95D600;}
</style>
<g id="XMLID_2_" class="st0">
	<g id="XMLID_67_">
		<polyline id="XMLID_80_" class="st1" points="-378.6,1110.3 -362.9,1133.7 -390.5,1133.7 		"/>
		<circle id="XMLID_79_" class="st1" cx="-409.4" cy="1096.7" r="14"/>
		<line id="XMLID_78_" class="st1" x1="-412.5" y1="1082.6" x2="-412.5" y2="1051.9"/>
		<line id="XMLID_77_" class="st1" x1="-406.3" y1="1133.7" x2="-406.3" y2="1112.9"/>
		<line id="XMLID_76_" class="st1" x1="-418.9" y1="1133.7" x2="-407.7" y2="1133.7"/>
		<line id="XMLID_75_" class="st1" x1="-400.1" y1="1085.8" x2="-400.1" y2="1055"/>
		<line id="XMLID_74_" class="st1" x1="-375.1" y1="1112.4" x2="-368.3" y2="1107.3"/>
		<g id="XMLID_68_">
			<g id="XMLID_69_">
				<g id="XMLID_70_">
					<g id="XMLID_71_">
						<path class="st2" d="M-413.3,1091.5c-0.9,0-1.8,0.3-2.5,1c-0.6,0.7-1,1.5-1,2.5c0,0.9,0.4,1.8,1.1,2.5c0.6,0.6,1.5,1,2.5,1
							c0.9,0,1.8-0.4,2.5-1c0.7-0.7,1-1.6,1-2.5c0-0.9-0.4-1.8-1-2.5C-411.5,1091.8-412.4,1091.5-413.3,1091.5L-413.3,1091.5z"/>
					</g>
				</g>
			</g>
		</g>
	</g>
	<g id="XMLID_63_">
		<polyline id="XMLID_66_" class="st1" points="-322.9,1081.4 -300.8,1059.3 -277.7,1082.4 		"/>
		<polyline id="XMLID_65_" class="st1" points="-322.9,1105.5 -300.8,1083.4 -277.7,1106.5 		"/>
		<polyline id="XMLID_64_" class="st1" points="-322.9,1129.6 -300.8,1107.5 -277.7,1130.6 		"/>
	</g>
	<g id="XMLID_59_">
		<polyline id="XMLID_62_" class="st1" points="-314.8,959.9 -292.7,937.8 -269.6,960.9 		"/>
		<polyline id="XMLID_61_" class="st1" points="-314.8,984 -292.7,961.9 -269.6,985 		"/>
		<polyline id="XMLID_60_" class="st1" points="-314.8,1008.1 -292.7,986 -269.6,1009.1 		"/>
	</g>
	<g id="XMLID_55_">
		<polyline id="XMLID_58_" class="st1" points="-373.4,931.2 -351.3,909.1 -328.2,932.2 		"/>
		<polyline id="XMLID_57_" class="st1" points="-373.4,955.3 -351.3,933.2 -328.2,956.2 		"/>
		<polyline id="XMLID_56_" class="st1" points="-373.4,979.3 -351.3,957.3 -328.2,980.3 		"/>
	</g>
	<g id="XMLID_51_">
		<polyline id="XMLID_54_" class="st1" points="-535,1050.5 -512.9,1028.4 -489.8,1051.5 		"/>
		<polyline id="XMLID_53_" class="st1" points="-535,1074.6 -512.9,1052.5 -489.8,1075.5 		"/>
		<polyline id="XMLID_52_" class="st1" points="-535,1098.6 -512.9,1076.6 -489.8,1099.6 		"/>
	</g>
	<g id="XMLID_47_">
		<polyline id="XMLID_50_" class="st1" points="-593.3,1050.5 -571.2,1028.4 -548.1,1051.5 		"/>
		<polyline id="XMLID_49_" class="st1" points="-593.3,1074.6 -571.2,1052.5 -548.1,1075.5 		"/>
		<polyline id="XMLID_48_" class="st1" points="-593.3,1098.6 -571.2,1076.6 -548.1,1099.6 		"/>
	</g>
	<path id="XMLID_46_" class="st1" d="M-730.3,1086.7c0,0,49.6,36.4,111,0.3"/>
	<g id="XMLID_39_">
		<g id="XMLID_43_">
			<path id="XMLID_45_" class="st1" d="M-674.8,966.3c-6.6,0-10.1,2.8-10.1,10.5c0,9.9,5.8,24,10.1,24c5.1,0,10.1-14.2,10.1-24
				C-664.7,969.2-668.2,966.3-674.8,966.3z"/>
			<path id="XMLID_44_" class="st1" d="M-674.8,1051.8c6.6,0,10.1-2.8,10.1-10.5c0-9.9-5.8-24-10.1-24c-5.1,0-10.1,14.2-10.1,24
				C-684.9,1049-681.4,1051.8-674.8,1051.8z"/>
		</g>
		<g id="XMLID_40_">
			<path id="XMLID_42_" class="st1" d="M-632,1009.1c0-6.6-2.8-10.1-10.5-10.1c-9.9,0-24,5.8-24,10.1c0,5.1,14.2,10.1,24,10.1
				C-634.9,1019.2-632,1015.7-632,1009.1z"/>
			<path id="XMLID_41_" class="st1" d="M-717.6,1009.1c0,6.6,2.8,10.1,10.5,10.1c9.9,0,24-5.8,24-10.1c0-5.1-14.2-10.1-24-10.1
				C-714.7,999-717.6,1002.4-717.6,1009.1z"/>
		</g>
	</g>
	<g id="XMLID_34_">
		<polyline id="XMLID_38_" class="st1" points="-247.9,870.9 -270,893 -293.1,869.9 		"/>
		<polyline id="XMLID_37_" class="st1" points="-258.9,915.6 -270.2,926.9 -282,915.1 		"/>
		<circle id="XMLID_36_" class="st1" cx="-238.9" cy="896.5" r="10.3"/>
		<circle id="XMLID_35_" class="st1" cx="-300.3" cy="896.5" r="10.3"/>
	</g>
	<g id="XMLID_24_">
		<line id="XMLID_33_" class="st1" x1="-451.4" y1="1035.6" x2="-451.4" y2="1016.4"/>
		<line id="XMLID_32_" class="st1" x1="-435.1" y1="1035.6" x2="-435.1" y2="1016.4"/>
		<path id="XMLID_31_" class="st1" d="M-397,968.7h-19.4c-0.3-0.4-0.5-0.8-0.8-1.2c-3.4-4.5-8-8.1-13.3-10.2l-6.6,9.4l-35.3,49.7v0
			h30.7c15.6,0,28.5-11.7,30.4-26.8L-397,968.7z"/>
		<g id="XMLID_25_">
			<g id="XMLID_26_">
				<g id="XMLID_27_">
					<g id="XMLID_28_">
						<path class="st2" d="M-431.2,976.6c-0.9,0-1.8,0.3-2.5,1c-0.6,0.7-1,1.5-1,2.5c0,0.9,0.4,1.8,1.1,2.5c0.6,0.6,1.5,1,2.5,1
							c0.9,0,1.8-0.4,2.5-1c0.7-0.7,1-1.6,1-2.5c0-0.9-0.4-1.8-1-2.5C-429.3,977-430.2,976.6-431.2,976.6L-431.2,976.6z"/>
					</g>
				</g>
			</g>
		</g>
	</g>
	<path id="XMLID_23_" class="st1" d="M-381.3,1021.3c0,0-60.9,8.5-79.7,77.2"/>
	<path id="XMLID_22_" class="st1" d="M-265.9,1062.6c0,0-31.1-53.1-101.7-44.3"/>
	<g id="XMLID_3_">
		<circle id="XMLID_21_" class="st1" cx="-591.2" cy="985.3" r="15.5"/>
		<path id="XMLID_20_" class="st1" d="M-558.8,969.8c4.3,0,7.7,6.9,7.7,15.5c0,8.6-3.5,15.5-7.7,15.5"/>
		<path id="XMLID_19_" class="st1" d="M-542.4,969.4c4.3,0,7.7,7,7.7,15.7c0,8.7-3.5,15.7-7.7,15.7"/>
		<path id="XMLID_18_" class="st1" d="M-539,1000.8h-17.3c-8.6,0-15.7-7.1-15.7-15.7l0,0c0-8.6,7.1-15.7,15.7-15.7h17.3
			c8.6,0,15.7,7.1,15.7,15.7l0,0C-523.3,993.8-530.4,1000.8-539,1000.8z"/>
		<line id="XMLID_17_" class="st1" x1="-557.4" y1="968" x2="-527.8" y2="946.7"/>
		<line id="XMLID_16_" class="st1" x1="-606.7" y1="985.3" x2="-616.1" y2="984.9"/>
		<g id="XMLID_4_">
			<g id="XMLID_5_">
				<g id="XMLID_6_">
					<g id="XMLID_7_">
						<path class="st2" d="M-596.4,979.3c-0.9,0-1.8,0.3-2.5,1c-0.6,0.7-1,1.5-1,2.5c0,0.9,0.4,1.8,1.1,2.5c0.6,0.6,1.5,1,2.5,1
							c0.9,0,1.8-0.4,2.5-1c0.7-0.7,1-1.6,1-2.5c0-0.9-0.4-1.8-1-2.5C-594.6,979.6-595.5,979.3-596.4,979.3L-596.4,979.3z"/>
					</g>
				</g>
			</g>
		</g>
	</g>
</g>
</svg>
