<?xml version="1.0" encoding="utf-8"?>
<!-- Generator: Adobe Illustrator 19.0.0, SVG Export Plug-In . SVG Version: 6.00 Build 0)  -->
<svg version="1.1" id="Layer_2" xmlns="http://www.w3.org/2000/svg" xmlns:xlink="http://www.w3.org/1999/xlink" x="0px" y="0px"
	 viewBox="0 0 520 280" style="enable-background:new 0 0 520 280;" xml:space="preserve">
<style type="text/css">
	.st0{opacity:0.2;}
	.st1{fill:none;stroke:#00ACC8;stroke-width:7;stroke-linecap:round;stroke-linejoin:round;stroke-miterlimit:10;}
	.st2{fill:#00ACC8;}
</style>
<g id="XMLID_1_" class="st0">
	<g id="XMLID_1691_">
		<polyline id="XMLID_1699_" class="st1" points="360.8,248.5 376.6,271.9 349,271.9 		"/>
		<circle id="XMLID_1698_" class="st1" cx="330.1" cy="234.8" r="14"/>
		<line id="XMLID_1697_" class="st1" x1="326.9" y1="220.8" x2="326.9" y2="190"/>
		<line id="XMLID_1696_" class="st1" x1="333.2" y1="271.9" x2="333.2" y2="251.1"/>
		<line id="XMLID_1695_" class="st1" x1="320.6" y1="271.9" x2="331.7" y2="271.9"/>
		<line id="XMLID_1694_" class="st1" x1="339.4" y1="223.9" x2="339.4" y2="193.2"/>
		<line id="XMLID_1693_" class="st1" x1="364.3" y1="250.6" x2="371.1" y2="245.5"/>
		<g id="XMLID_6_">
			<g id="XMLID_7_">
				<g id="XMLID_8_">
					<g id="XMLID_10_">
						<path id="XMLID_72_" class="st2" d="M326.2,229.7c-0.9,0-1.8,0.3-2.5,1c-0.6,0.7-1,1.5-1,2.5c0,0.9,0.4,1.8,1.1,2.5
							c0.6,0.6,1.5,1,2.5,1c0.9,0,1.8-0.4,2.5-1c0.7-0.7,1-1.6,1-2.5c0-0.9-0.4-1.8-1-2.5C328,230,327.1,229.7,326.2,229.7
							L326.2,229.7z"/>
					</g>
				</g>
			</g>
		</g>
	</g>
	<g id="XMLID_1687_">
		<polyline id="XMLID_1690_" class="st1" points="416.6,219.6 438.6,197.5 461.7,220.6 		"/>
		<polyline id="XMLID_1689_" class="st1" points="416.6,243.7 438.6,221.6 461.7,244.7 		"/>
		<polyline id="XMLID_1688_" class="st1" points="416.6,267.8 438.6,245.7 461.7,268.8 		"/>
	</g>
	<g id="XMLID_1683_">
		<polyline id="XMLID_1686_" class="st1" points="424.7,98.1 446.8,76 469.8,99.1 		"/>
		<polyline id="XMLID_1685_" class="st1" points="424.7,122.2 446.8,100.1 469.8,123.2 		"/>
		<polyline id="XMLID_1684_" class="st1" points="424.7,146.3 446.8,124.2 469.8,147.3 		"/>
	</g>
	<g id="XMLID_1679_">
		<polyline id="XMLID_1682_" class="st1" points="366.1,69.4 388.2,47.3 411.2,70.4 		"/>
		<polyline id="XMLID_1681_" class="st1" points="366.1,93.4 388.2,71.4 411.2,94.4 		"/>
		<polyline id="XMLID_1680_" class="st1" points="366.1,117.5 388.2,95.4 411.2,118.5 		"/>
	</g>
	<g id="XMLID_1675_">
		<polyline id="XMLID_1678_" class="st1" points="204.5,188.7 226.6,166.6 249.7,189.6 		"/>
		<polyline id="XMLID_1677_" class="st1" points="204.5,212.7 226.6,190.7 249.7,213.7 		"/>
		<polyline id="XMLID_1676_" class="st1" points="204.5,236.8 226.6,214.7 249.7,237.8 		"/>
	</g>
	<g id="XMLID_1671_">
		<polyline id="XMLID_1674_" class="st1" points="146.2,188.7 168.3,166.6 191.3,189.6 		"/>
		<polyline id="XMLID_1673_" class="st1" points="146.2,212.7 168.3,190.7 191.3,213.7 		"/>
		<polyline id="XMLID_1672_" class="st1" points="146.2,236.8 168.3,214.7 191.3,237.8 		"/>
	</g>
	<path id="XMLID_1670_" class="st1" d="M9.2,224.9c0,0,49.6,36.4,111,0.3"/>
	<g id="XMLID_1663_">
		<g id="XMLID_1667_">
			<path id="XMLID_1669_" class="st1" d="M64.6,104.5c-6.6,0-10.1,2.8-10.1,10.5c0,9.9,5.8,24,10.1,24c5.1,0,10.1-14.2,10.1-24
				C74.8,107.3,71.3,104.5,64.6,104.5z"/>
			<path id="XMLID_1668_" class="st1" d="M64.6,190c6.6,0,10.1-2.8,10.1-10.5c0-9.9-5.8-24-10.1-24c-5.1,0-10.1,14.2-10.1,24
				C54.5,187.2,58,190,64.6,190z"/>
		</g>
		<g id="XMLID_1664_">
			<path id="XMLID_1666_" class="st1" d="M107.4,147.3c0-6.6-2.8-10.1-10.5-10.1c-9.9,0-24,5.8-24,10.1c0,5.1,14.2,10.1,24,10.1
				C104.6,157.4,107.4,153.9,107.4,147.3z"/>
			<path id="XMLID_1665_" class="st1" d="M21.9,147.3c0,6.6,2.8,10.1,10.5,10.1c9.9,0,24-5.8,24-10.1c0-5.1-14.2-10.1-24-10.1
				C24.7,137.2,21.9,140.6,21.9,147.3z"/>
		</g>
	</g>
	<g id="XMLID_1658_">
		<polyline id="XMLID_1662_" class="st1" points="491.6,9.1 469.5,31.2 446.4,8.1 		"/>
		<polyline id="XMLID_1661_" class="st1" points="480.5,53.8 469.2,65.1 457.5,53.3 		"/>
		<circle id="XMLID_1660_" class="st1" cx="500.5" cy="34.7" r="10.3"/>
		<circle id="XMLID_1659_" class="st1" cx="439.1" cy="34.7" r="10.3"/>
	</g>
	<g id="XMLID_1653_">
		<line id="XMLID_1656_" class="st1" x1="288" y1="173.8" x2="288" y2="154.6"/>
		<line id="XMLID_1655_" class="st1" x1="304.4" y1="173.8" x2="304.4" y2="154.6"/>
		<path id="XMLID_1654_" class="st1" d="M342.5,106.9h-19.4c-0.3-0.4-0.5-0.8-0.8-1.2c-3.4-4.5-8-8.1-13.3-10.2l-6.6,9.4l-35.3,49.7
			v0h30.7c15.6,0,28.5-11.7,30.4-26.8L342.5,106.9z"/>
		<g id="XMLID_2_">
			<g id="XMLID_3_">
				<g id="XMLID_4_">
					<g id="XMLID_5_">
						<path id="XMLID_74_" class="st2" d="M308.3,114.8c-0.9,0-1.8,0.3-2.5,1c-0.6,0.7-1,1.5-1,2.5c0,0.9,0.4,1.8,1.1,2.5
							c0.6,0.6,1.5,1,2.5,1c0.9,0,1.8-0.4,2.5-1c0.7-0.7,1-1.6,1-2.5c0-0.9-0.4-1.8-1-2.5C310.1,115.1,309.2,114.8,308.3,114.8
							L308.3,114.8z"/>
					</g>
				</g>
			</g>
		</g>
	</g>
	<path id="XMLID_1652_" class="st1" d="M358.2,159.4c0,0-60.9,8.5-79.7,77.2"/>
	<path id="XMLID_1650_" class="st1" d="M473.5,200.8c0,0-31.1-53.1-101.7-44.3"/>
	<g id="XMLID_929_">
		<circle id="XMLID_1649_" class="st1" cx="148.2" cy="123.5" r="15.5"/>
		<path id="XMLID_1647_" class="st1" d="M180.7,108c4.3,0,7.7,6.9,7.7,15.5c0,8.6-3.5,15.5-7.7,15.5"/>
		<path id="XMLID_1646_" class="st1" d="M197.1,107.6c4.3,0,7.7,7,7.7,15.7c0,8.7-3.5,15.7-7.7,15.7"/>
		<path id="XMLID_1645_" class="st1" d="M200.4,139h-17.3c-8.6,0-15.7-7.1-15.7-15.7l0,0c0-8.6,7.1-15.7,15.7-15.7h17.3
			c8.6,0,15.7,7.1,15.7,15.7l0,0C216.1,131.9,209.1,139,200.4,139z"/>
		<line id="XMLID_1644_" class="st1" x1="182.1" y1="106.2" x2="211.7" y2="84.8"/>
		<line id="XMLID_1643_" class="st1" x1="132.7" y1="123.5" x2="123.4" y2="123.1"/>
		<g id="XMLID_930_">
			<g id="XMLID_931_">
				<g id="XMLID_932_">
					<g id="XMLID_933_">
						<path id="XMLID_75_" class="st2" d="M143,117.5c-0.9,0-1.8,0.3-2.5,1c-0.6,0.7-1,1.5-1,2.5c0,0.9,0.4,1.8,1.1,2.5
							c0.6,0.6,1.5,1,2.5,1c0.9,0,1.8-0.4,2.5-1c0.7-0.7,1-1.6,1-2.5c0-0.9-0.4-1.8-1-2.5C144.9,117.8,144,117.5,143,117.5
							L143,117.5z"/>
					</g>
				</g>
			</g>
		</g>
	</g>
</g>
</svg>
