<?xml version="1.0" encoding="utf-8"?>
<!-- Generator: Adobe Illustrator 19.0.0, SVG Export Plug-In . SVG Version: 6.00 Build 0)  -->
<svg version="1.1" id="Layer_1" xmlns="http://www.w3.org/2000/svg" xmlns:xlink="http://www.w3.org/1999/xlink" x="0px" y="0px"
	 viewBox="-399 881 800 240" style="enable-background:new -399 881 800 240;" xml:space="preserve">
<style type="text/css">
	.st0{opacity:0.2;}
	.st1{fill:none;stroke:#00ACC8;stroke-width:7;stroke-linecap:round;stroke-linejoin:round;stroke-miterlimit:10;}
	.st2{fill:#00ACC8;}
</style>
<g id="XMLID_230_" class="st0">
	<g id="XMLID_274_">
		<polyline id="XMLID_277_" class="st1" points="209.3,957 231.4,934.9 254.4,958 		"/>
		<polyline id="XMLID_276_" class="st1" points="209.3,981.1 231.4,959 254.4,982.1 		"/>
		<polyline id="XMLID_275_" class="st1" points="209.3,1005.2 231.4,983.1 254.4,1006.2 		"/>
	</g>
	<g id="XMLID_270_">
		<polyline id="XMLID_273_" class="st1" points="161.6,1062.7 183.7,1040.6 206.7,1063.7 		"/>
		<polyline id="XMLID_272_" class="st1" points="161.6,1086.8 183.7,1064.7 206.7,1087.8 		"/>
		<polyline id="XMLID_271_" class="st1" points="161.6,1110.9 183.7,1088.8 206.7,1111.9 		"/>
	</g>
	<g id="XMLID_266_">
		<polyline id="XMLID_269_" class="st1" points="281.6,957 303.7,934.9 326.8,958 		"/>
		<polyline id="XMLID_268_" class="st1" points="281.6,981.1 303.7,959 326.8,982.1 		"/>
		<polyline id="XMLID_267_" class="st1" points="281.6,1005.2 303.7,983.1 326.8,1006.2 		"/>
	</g>
	<g id="XMLID_262_">
		<circle id="XMLID_265_" class="st1" cx="101.4" cy="981.3" r="11.9"/>
		<circle id="XMLID_264_" class="st1" cx="154.5" cy="981.3" r="11.9"/>
		<path id="XMLID_263_" class="st1" d="M126.5,890.1V923H93.6c0,18.2,14.7,32.9,32.9,32.9s32.9-14.7,32.9-32.9
			S144.6,890.1,126.5,890.1z"/>
	</g>
	<g id="XMLID_258_">
		<polyline id="XMLID_261_" class="st1" points="389.6,971.9 369,991.4 348.4,971.9 		"/>
		<polyline id="XMLID_260_" class="st1" points="389.6,994.9 369,1014.4 348.4,994.9 		"/>
		<polygon id="XMLID_259_" class="st1" points="369,1084.2 355.3,1031.2 384,1031.2 		"/>
	</g>
	<line id="XMLID_257_" class="st1" x1="209.3" y1="1005.2" x2="93.4" y2="1005.2"/>
	<g id="XMLID_248_">
		<polyline id="XMLID_256_" class="st1" points="49.7,1018.8 65.4,1042.2 37.8,1042.2 		"/>
		<circle id="XMLID_255_" class="st1" cx="18.9" cy="1005.2" r="14"/>
		<line id="XMLID_254_" class="st1" x1="15.7" y1="991.1" x2="15.7" y2="960.4"/>
		<line id="XMLID_253_" class="st1" x1="22" y1="1042.2" x2="22" y2="1021.5"/>
		<line id="XMLID_252_" class="st1" x1="9.4" y1="1042.2" x2="20.5" y2="1042.2"/>
		<line id="XMLID_251_" class="st1" x1="28.2" y1="994.3" x2="28.2" y2="963.5"/>
		<line id="XMLID_250_" class="st1" x1="53.1" y1="1020.9" x2="59.9" y2="1015.8"/>
		<g id="XMLID_279_">
			<g id="XMLID_280_">
				<g id="XMLID_281_">
					<g id="XMLID_282_">
						<g id="XMLID_283_">
							<g>
								<g>
									<path class="st2" d="M14.2,1000c-0.9,0-1.8,0.3-2.5,1c-0.6,0.7-1,1.5-1,2.5c0,0.9,0.4,1.8,1.1,2.5c0.6,0.6,1.5,1,2.5,1
										c0.9,0,1.8-0.4,2.5-1c0.7-0.7,1-1.6,1-2.5s-0.4-1.8-1-2.5C16,1000.4,15.2,1000,14.2,1000L14.2,1000z"/>
								</g>
							</g>
						</g>
					</g>
				</g>
			</g>
		</g>
	</g>
	<polyline id="XMLID_247_" class="st1" points="-384.5,1025.3 -239.9,1025.3 -199.4,980.1 -38.6,980.1 	"/>
	<g id="XMLID_242_">
		<line id="XMLID_245_" class="st1" x1="-353.4" y1="1023.9" x2="-353.4" y2="1004.7"/>
		<line id="XMLID_244_" class="st1" x1="-337" y1="1023.9" x2="-337" y2="1004.7"/>
		<path id="XMLID_243_" class="st1" d="M-298.9,957h-19.4c-0.3-0.4-0.5-0.8-0.8-1.2c-3.4-4.5-8-8.1-13.3-10.2l-6.6,9.4l-35.3,49.7
			l0,0h30.7c15.6,0,28.5-11.7,30.4-26.8L-298.9,957z"/>
		<g id="XMLID_1_">
			<g id="XMLID_3_">
				<g id="XMLID_4_">
					<g id="XMLID_5_">
						<g id="XMLID_6_">
							<g>
								<g>
									<path class="st2" d="M-333.4,964.9c-0.9,0-1.8,0.3-2.5,1c-0.6,0.7-1,1.5-1,2.5c0,0.9,0.4,1.8,1.1,2.5c0.6,0.6,1.5,1,2.5,1
										c0.9,0,1.8-0.4,2.5-1c0.7-0.7,1-1.6,1-2.5s-0.4-1.8-1-2.5C-331.5,965.3-332.4,964.9-333.4,964.9L-333.4,964.9z"/>
								</g>
							</g>
						</g>
					</g>
				</g>
			</g>
		</g>
	</g>
	<g id="XMLID_237_">
		<g id="XMLID_239_">
			<circle id="XMLID_241_" class="st1" cx="-364.6" cy="1080.4" r="10.4"/>
			<circle id="XMLID_240_" class="st1" cx="-318.1" cy="1080.4" r="10.4"/>
		</g>
		<line id="XMLID_238_" class="st1" x1="-295.1" y1="1070" x2="-387.6" y2="1070"/>
	</g>
	<g id="XMLID_231_">
		<circle id="XMLID_236_" class="st1" cx="-83.7" cy="962.8" r="10.4"/>
		<circle id="XMLID_235_" class="st1" cx="-150.7" cy="962.8" r="10.4"/>
		<polyline id="XMLID_234_" class="st1" points="-143.3,936.4 -118.3,961.4 -96.8,940 		"/>
		<line id="XMLID_233_" class="st1" x1="-150.7" y1="936.4" x2="-130.4" y2="936.4"/>
		<polyline id="XMLID_232_" class="st1" points="-83.7,952.4 -83.7,918.8 -52.7,918.8 		"/>
	</g>
</g>
</svg>
