<?xml version="1.0" encoding="utf-8"?>
<!-- Generator: Adobe Illustrator 19.0.0, SVG Export Plug-In . SVG Version: 6.00 Build 0)  -->
<svg version="1.1" id="Layer_1" xmlns="http://www.w3.org/2000/svg" xmlns:xlink="http://www.w3.org/1999/xlink" x="0px" y="0px"
	 viewBox="0 0 520 190" style="enable-background:new 0 0 520 190;" xml:space="preserve">
<style type="text/css">
	.st0{opacity:0.2;}
	.st1{fill:none;stroke:#00ACC8;stroke-width:7;stroke-linecap:round;stroke-linejoin:round;stroke-miterlimit:10;}
</style>
<g id="XMLID_394_" class="st0">
	<g id="XMLID_2234_">
		<polyline id="XMLID_2154_" class="st1" points="515.8,77.9 496,97.7 475.3,77 454.6,97.7 433.9,77 		"/>
		<polyline id="XMLID_2153_" class="st1" points="515.8,104.5 496,124.3 475.3,103.6 454.6,124.3 433.9,103.6 		"/>
		<g id="XMLID_2160_">
			<polyline id="XMLID_2232_" class="st1" points="79.5,7 57.4,29.1 34.4,6 			"/>
			<polyline id="XMLID_2163_" class="st1" points="68.5,51.7 57.2,63 45.4,51.2 			"/>
			<circle id="XMLID_2162_" class="st1" cx="88.5" cy="32.6" r="10.3"/>
			<circle id="XMLID_2161_" class="st1" cx="27.1" cy="32.6" r="10.3"/>
		</g>
		<g id="XMLID_2043_">
			<polyline id="XMLID_2046_" class="st1" points="4.2,95.6 26.3,73.5 49.3,96.6 			"/>
			<polyline id="XMLID_2045_" class="st1" points="4.2,119.7 26.3,97.6 49.3,120.7 			"/>
			<polyline id="XMLID_2044_" class="st1" points="4.2,143.8 26.3,121.7 49.3,144.7 			"/>
		</g>
		<g id="XMLID_2047_">
			<polyline id="XMLID_2148_" class="st1" points="69.2,95.6 91.3,73.5 114.3,96.6 			"/>
			<polyline id="XMLID_2147_" class="st1" points="69.2,119.7 91.3,97.6 114.3,120.7 			"/>
			<polyline id="XMLID_2048_" class="st1" points="69.2,143.8 91.3,121.7 114.3,144.7 			"/>
		</g>
		<g id="XMLID_2149_">
			<polyline id="XMLID_2152_" class="st1" points="389.2,135.6 411.3,113.5 434.3,136.6 			"/>
			<polyline id="XMLID_2151_" class="st1" points="389.2,159.7 411.3,137.6 434.3,160.7 			"/>
			<polyline id="XMLID_2150_" class="st1" points="389.2,183.8 411.3,161.7 434.3,184.7 			"/>
		</g>
		<g id="XMLID_390_">
			<polyline id="XMLID_393_" class="st1" points="327.1,135.6 349.2,113.5 372.2,136.6 			"/>
			<polyline id="XMLID_392_" class="st1" points="327.1,159.7 349.2,137.6 372.2,160.7 			"/>
			<polyline id="XMLID_391_" class="st1" points="327.1,183.8 349.2,161.7 372.2,184.7 			"/>
		</g>
		<path id="XMLID_2233_" class="st1" d="M130.4,143c0,0,49.6-36.4,111-0.3"/>
	</g>
	<path id="XMLID_1749_" class="st1" d="M502.3,26.3c0,0-48.7-37.6-110.9-3"/>
	<g id="XMLID_1739_">
		<g id="XMLID_1743_">
			<path id="XMLID_1747_" class="st1" d="M364,5.3c-6.6,0-10.1,2.8-10.1,10.5c0,9.9,5.8,24,10.1,24c5.1,0,10.1-14.2,10.1-24
				C374.1,8.1,370.6,5.3,364,5.3z"/>
			<path id="XMLID_1746_" class="st1" d="M364,90.8c6.6,0,10.1-2.8,10.1-10.5c0-9.9-5.8-24-10.1-24c-5.1,0-10.1,14.2-10.1,24
				C353.9,87.9,357.3,90.8,364,90.8z"/>
		</g>
		<g id="XMLID_1740_">
			<path id="XMLID_1742_" class="st1" d="M406.7,48c0-6.6-2.8-10.1-10.5-10.1c-9.9,0-24,5.8-24,10.1c0,5.1,14.2,10.1,24,10.1
				C403.9,58.1,406.7,54.7,406.7,48z"/>
			<path id="XMLID_1741_" class="st1" d="M321.2,48c0,6.6,2.8,10.1,10.5,10.1c9.9,0,24-5.8,24-10.1c0-5.1-14.2-10.1-24-10.1
				C324.1,37.9,321.2,41.4,321.2,48z"/>
		</g>
	</g>
	<g id="XMLID_1726_">
		<polyline id="XMLID_1729_" class="st1" points="259.8,127.6 281.9,105.5 305,128.6 		"/>
		<polyline id="XMLID_1728_" class="st1" points="273.6,141.2 304.8,141.2 304.8,173.9 		"/>
		<polyline id="XMLID_1727_" class="st1" points="291.5,184.6 260.3,184.6 260.3,152 		"/>
	</g>
</g>
</svg>
