<?xml version="1.0" encoding="utf-8"?>
<!-- Generator: Adobe Illustrator 19.0.0, SVG Export Plug-In . SVG Version: 6.00 Build 0)  -->
<svg version="1.1" id="Layer_1" xmlns="http://www.w3.org/2000/svg" xmlns:xlink="http://www.w3.org/1999/xlink" x="0px" y="0px"
	 viewBox="-754 891 490 220" style="enable-background:new -754 891 490 220;" xml:space="preserve">
<style type="text/css">
	.st0{opacity:0.4;}
	.st1{fill:#95D600;}
	.st2{fill:none;stroke:#95D600;stroke-width:7;stroke-linecap:round;stroke-linejoin:round;stroke-miterlimit:10;}
	.st3{opacity:0.4;fill:none;stroke:#95D600;stroke-width:7;stroke-linecap:round;stroke-linejoin:round;stroke-miterlimit:10;}
</style>
<g id="XMLID_684_">
	<g id="XMLID_682_" class="st0">
		<g id="XMLID_683_">
			<path class="st1" d="M-289,1048.6c-2.1,0-3.7,1.7-3.7,3.7c0,2.1,1.7,3.7,3.7,3.7c2.1,0,3.7-1.7,3.7-3.7
				C-285.3,1050.3-287,1048.6-289,1048.6L-289,1048.6z"/>
		</g>
	</g>
	<g id="XMLID_679_" class="st0">
		<g id="XMLID_680_">
			<path class="st1" d="M-289,1027.2c-3.3,0-5.9,2.7-5.9,5.9c0,3.3,2.7,5.9,5.9,5.9c3.3,0,5.9-2.7,5.9-5.9
				C-283.1,1029.8-285.8,1027.2-289,1027.2L-289,1027.2z"/>
		</g>
	</g>
	<g id="XMLID_677_" class="st0">
		<g id="XMLID_678_">
			<path class="st1" d="M-289,1007.2c-3.3,0-5.9,2.7-5.9,5.9c0,3.3,2.7,5.9,5.9,5.9c3.3,0,5.9-2.7,5.9-5.9
				C-283.1,1009.9-285.8,1007.2-289,1007.2L-289,1007.2z"/>
		</g>
	</g>
	<g id="XMLID_674_" class="st0">
		<polyline id="XMLID_676_" class="st2" points="-323.2,896.4 -295.5,896.4 -295.5,909.4 		"/>
		<path id="XMLID_675_" class="st2" d="M-295.5,946.9v-26.7h-28.2c-15.6,0-28.3,12.7-28.3,28.3c0,0.5,0.1,1.1,0.1,1.6h28.2h28.2
			c0-0.5,0.1-1.1,0.1-1.6C-295.5,947.9-295.5,947.4-295.5,946.9z"/>
	</g>
	<g id="XMLID_670_" class="st0">
		<line id="XMLID_673_" class="st2" x1="-302.3" y1="1074" x2="-295.5" y2="1068.9"/>
		<path id="XMLID_672_" class="st2" d="M-295.5,1095.3c0-0.5,0.1-1.1,0.1-1.6c0-15.6-12.7-28.3-28.3-28.3
			c-15.6,0-28.3,12.7-28.3,28.3c0,0.5,0.1,1.1,0.1,1.6H-295.5z"/>
		<path id="XMLID_671_" class="st2" d="M-303.1,1054c-5.2-5.3-12.4-8.6-20.4-8.6c-7.2,0-13.8,2.7-18.8,7.1"/>
	</g>
	<path id="XMLID_669_" class="st3" d="M-269.1,982.5c0,0-48.7-37.6-110.9-3"/>
	<path id="XMLID_668_" class="st3" d="M-470.9,1056.7c0,0,48.7,37.6,110.9,3"/>
	<g id="XMLID_661_" class="st0">
		<g id="XMLID_665_">
			<path id="XMLID_667_" class="st2" d="M-407.4,961.4c-6.6,0-10.1,2.8-10.1,10.5c0,9.9,5.8,24,10.1,24c5.1,0,10.1-14.2,10.1-24
				C-397.3,964.2-400.8,961.4-407.4,961.4z"/>
			<path id="XMLID_666_" class="st2" d="M-407.4,1046.9c6.6,0,10.1-2.8,10.1-10.5c0-9.9-5.8-24-10.1-24c-5.1,0-10.1,14.2-10.1,24
				C-417.5,1044.1-414.1,1046.9-407.4,1046.9z"/>
		</g>
		<g id="XMLID_662_">
			<path id="XMLID_664_" class="st2" d="M-364.7,1004.2c0-6.6-2.8-10.1-10.5-10.1c-9.9,0-24,5.8-24,10.1c0,5.1,14.2,10.1,24,10.1
				C-367.5,1014.3-364.7,1010.8-364.7,1004.2z"/>
			<path id="XMLID_663_" class="st2" d="M-450.2,1004.2c0,6.6,2.8,10.1,10.5,10.1c9.9,0,24-5.8,24-10.1c0-5.1-14.2-10.1-24-10.1
				C-447.3,994.1-450.2,997.5-450.2,1004.2z"/>
		</g>
	</g>
	<g id="XMLID_654_" class="st0">
		<g id="XMLID_658_">
			<path id="XMLID_660_" class="st2" d="M-641.1,1017c-6.6,0-10.1,2.8-10.1,10.5c0,9.9,5.8,24,10.1,24c5.1,0,10.1-14.2,10.1-24
				C-631,1019.9-634.5,1017-641.1,1017z"/>
			<path id="XMLID_659_" class="st2" d="M-641.1,1102.5c6.6,0,10.1-2.8,10.1-10.5c0-9.9-5.8-24-10.1-24c-5.1,0-10.1,14.2-10.1,24
				C-651.2,1099.7-647.7,1102.5-641.1,1102.5z"/>
		</g>
		<g id="XMLID_655_">
			<path id="XMLID_657_" class="st2" d="M-598.3,1059.8c0-6.6-2.8-10.1-10.5-10.1c-9.9,0-24,5.8-24,10.1c0,5.1,14.2,10.1,24,10.1
				C-601.2,1069.9-598.3,1066.4-598.3,1059.8z"/>
			<path id="XMLID_656_" class="st2" d="M-683.9,1059.8c0,6.6,2.8,10.1,10.5,10.1c9.9,0,24-5.8,24-10.1c0-5.1-14.2-10.1-24-10.1
				C-681,1049.7-683.9,1053.1-683.9,1059.8z"/>
		</g>
	</g>
	<polyline id="XMLID_653_" class="st3" points="-497,968.3 -474.9,946.2 -451.8,969.2 	"/>
	<g id="XMLID_648_" class="st0">
		<polyline id="XMLID_652_" class="st2" points="-528.6,1021.1 -506.5,999 -483.5,1022.1 		"/>
		<polyline id="XMLID_651_" class="st2" points="-528.6,1049.6 -506.5,1027.5 -483.5,1050.6 		"/>
		<polyline id="XMLID_650_" class="st2" points="-514.9,1063.2 -483.6,1063.2 -483.6,1095.9 		"/>
		<polyline id="XMLID_649_" class="st2" points="-496.9,1106.6 -528.1,1106.6 -528.1,1074 		"/>
	</g>
	<path id="XMLID_647_" class="st3" d="M-654,988.9c0,0-61.4-4.2-93.9,59.1"/>
	<path id="XMLID_643_" class="st3" d="M-636.1,988.9c0,0,61.4-4.2,93.9,59.1"/>
	<g id="XMLID_627_" class="st0">
		<polyline id="XMLID_636_" class="st2" points="-681.8,954.8 -681.4,939 -664,939 		"/>
		<circle id="XMLID_635_" class="st2" cx="-643.8" cy="947.5" r="19.9"/>
		<line id="XMLID_630_" class="st2" x1="-624" y1="939.2" x2="-608.6" y2="927.6"/>
		<line id="XMLID_628_" class="st2" x1="-643.8" y1="927.6" x2="-643.8" y2="920.9"/>
	</g>
	<g id="XMLID_611_" class="st0">
		<g id="XMLID_614_">
			<polyline id="XMLID_617_" class="st2" points="-606.8,978.6 -606.8,969.9 -591.8,969.9 			"/>
			<path id="XMLID_616_" class="st2" d="M-589.7,962c0,0.2,0,0.5,0,0.7c0,13.2,10.7,23.9,23.9,23.9c13.2,0,23.9-10.7,23.9-23.9
				c0-0.2,0-0.5,0-0.7H-589.7z"/>
		</g>
		<circle id="XMLID_613_" class="st2" cx="-567.4" cy="934.5" r="10.4"/>
	</g>
</g>
</svg>
