<?xml version="1.0" encoding="utf-8"?>
<!-- Generator: Adobe Illustrator 19.0.0, SVG Export Plug-In . SVG Version: 6.00 Build 0)  -->
<svg version="1.1" id="Layer_1" xmlns="http://www.w3.org/2000/svg" xmlns:xlink="http://www.w3.org/1999/xlink" x="0px" y="0px"
	 viewBox="0 0 490 220" style="enable-background:new 0 0 490 220;" xml:space="preserve">
<style type="text/css">
	.st0{opacity:0.2;}
	.st1{fill:none;stroke:#00ACC8;stroke-width:7;stroke-linecap:round;stroke-linejoin:round;stroke-miterlimit:10;}
	.st2{opacity:0.2;fill:none;stroke:#00ACC8;stroke-width:7;stroke-linecap:round;stroke-linejoin:round;stroke-miterlimit:10;}
</style>
<g id="XMLID_433_">
	<g id="XMLID_1914_" class="st0">
		<circle id="XMLID_1915_" class="st1" cx="464.5" cy="160.8" r="3.7"/>
	</g>
	<g id="XMLID_1912_" class="st0">
		<circle id="XMLID_1913_" class="st1" cx="464.5" cy="141.6" r="5.9"/>
	</g>
	<g id="XMLID_1910_" class="st0">
		<circle id="XMLID_1911_" class="st1" cx="464.5" cy="121.7" r="5.9"/>
	</g>
	<g id="XMLID_1907_" class="st0">
		<polyline id="XMLID_1909_" class="st1" points="430.3,4.9 458,4.9 458,17.9 		"/>
		<path id="XMLID_1908_" class="st1" d="M458,55.4V28.7h-28.2c-15.6,0-28.3,12.7-28.3,28.3c0,0.5,0.1,1.1,0.1,1.6h28.2H458
			c0-0.5,0.1-1.1,0.1-1.6C458,56.5,458,55.9,458,55.4z"/>
	</g>
	<g id="XMLID_1903_" class="st0">
		<line id="XMLID_1906_" class="st1" x1="451.2" y1="182.5" x2="458" y2="177.4"/>
		<path id="XMLID_1905_" class="st1" d="M458,203.8c0-0.5,0.1-1.1,0.1-1.6c0-15.6-12.7-28.3-28.3-28.3c-15.6,0-28.3,12.7-28.3,28.3
			c0,0.5,0.1,1.1,0.1,1.6H458z"/>
		<path id="XMLID_1904_" class="st1" d="M450.4,162.5c-5.2-5.3-12.4-8.6-20.4-8.6c-7.2,0-13.8,2.7-18.8,7.1"/>
	</g>
	<path id="XMLID_417_" class="st2" d="M484.4,91c0,0-48.7-37.6-110.9-3"/>
	<path id="XMLID_1748_" class="st2" d="M282.6,165.2c0,0,48.7,37.6,110.9,3"/>
	<g id="XMLID_410_" class="st0">
		<g id="XMLID_414_">
			<path id="XMLID_416_" class="st1" d="M346.1,69.9c-6.6,0-10.1,2.8-10.1,10.5c0,9.9,5.8,24,10.1,24c5.1,0,10.1-14.2,10.1-24
				C356.2,72.8,352.7,69.9,346.1,69.9z"/>
			<path id="XMLID_415_" class="st1" d="M346.1,155.4c6.6,0,10.1-2.8,10.1-10.5c0-9.9-5.8-24-10.1-24c-5.1,0-10.1,14.2-10.1,24
				C336,152.6,339.4,155.4,346.1,155.4z"/>
		</g>
		<g id="XMLID_411_">
			<path id="XMLID_413_" class="st1" d="M388.8,112.7c0-6.6-2.8-10.1-10.5-10.1c-9.9,0-24,5.8-24,10.1c0,5.1,14.2,10.1,24,10.1
				C386,122.8,388.8,119.3,388.8,112.7z"/>
			<path id="XMLID_412_" class="st1" d="M303.3,112.7c0,6.6,2.8,10.1,10.5,10.1c9.9,0,24-5.8,24-10.1c0-5.1-14.2-10.1-24-10.1
				C306.2,102.6,303.3,106,303.3,112.7z"/>
		</g>
	</g>
	<g id="XMLID_1732_" class="st0">
		<g id="XMLID_1736_">
			<path id="XMLID_1738_" class="st1" d="M112.4,125.5c-6.6,0-10.1,2.8-10.1,10.5c0,9.9,5.8,24,10.1,24c5.1,0,10.1-14.2,10.1-24
				C122.5,128.4,119,125.5,112.4,125.5z"/>
			<path id="XMLID_1737_" class="st1" d="M112.4,211c6.6,0,10.1-2.8,10.1-10.5c0-9.9-5.8-24-10.1-24c-5.1,0-10.1,14.2-10.1,24
				C102.3,208.2,105.8,211,112.4,211z"/>
		</g>
		<g id="XMLID_1733_">
			<path id="XMLID_1735_" class="st1" d="M155.2,168.3c0-6.6-2.8-10.1-10.5-10.1c-9.9,0-24,5.8-24,10.1c0,5.1,14.2,10.1,24,10.1
				C152.3,178.4,155.2,174.9,155.2,168.3z"/>
			<path id="XMLID_1734_" class="st1" d="M69.7,168.3c0,6.6,2.8,10.1,10.5,10.1c9.9,0,24-5.8,24-10.1c0-5.1-14.2-10.1-24-10.1
				C72.5,158.2,69.7,161.6,69.7,168.3z"/>
		</g>
	</g>
	<polyline id="XMLID_1731_" class="st2" points="256.5,76.8 278.6,54.7 301.7,77.8 	"/>
	<g id="XMLID_395_" class="st0">
		<polyline id="XMLID_1730_" class="st1" points="224.9,129.6 247,107.5 270.1,130.6 		"/>
		<polyline id="XMLID_409_" class="st1" points="224.9,158.1 247,136 270.1,159.1 		"/>
		<polyline id="XMLID_408_" class="st1" points="238.6,171.7 269.9,171.7 269.9,204.4 		"/>
		<polyline id="XMLID_407_" class="st1" points="256.6,215.1 225.4,215.1 225.4,182.5 		"/>
	</g>
	<path id="XMLID_1725_" class="st2" d="M99.5,97.4c0,0-61.4-4.2-93.9,59.1"/>
	<path id="XMLID_1724_" class="st2" d="M117.4,97.4c0,0,61.4-4.2,93.9,59.1"/>
	<g id="XMLID_1715_" class="st0">
		<polyline id="XMLID_1720_" class="st1" points="71.7,63.3 72.1,47.5 89.5,47.5 		"/>
		<circle id="XMLID_1719_" class="st1" cx="109.7" cy="56" r="19.9"/>
		<line id="XMLID_1718_" class="st1" x1="129.5" y1="47.7" x2="144.9" y2="36.1"/>
		<line id="XMLID_1717_" class="st1" x1="109.7" y1="36.1" x2="109.7" y2="29.4"/>
	</g>
	<g id="XMLID_2303_" class="st0">
		<g id="XMLID_1721_">
			<polyline id="XMLID_1723_" class="st1" points="146.7,87.1 146.7,78.4 161.7,78.4 			"/>
			<path id="XMLID_1722_" class="st1" d="M163.8,70.5c0,0.2,0,0.5,0,0.7c0,13.2,10.7,23.9,23.9,23.9c13.2,0,23.9-10.7,23.9-23.9
				c0-0.2,0-0.5,0-0.7H163.8z"/>
		</g>
		<circle id="XMLID_1714_" class="st1" cx="186.1" cy="43" r="10.4"/>
	</g>
</g>
</svg>
