<?xml version="1.0" encoding="utf-8"?>
<!-- Generator: Adobe Illustrator 19.0.0, SVG Export Plug-In . SVG Version: 6.00 Build 0)  -->
<svg version="1.1" id="Layer_1" xmlns="http://www.w3.org/2000/svg" xmlns:xlink="http://www.w3.org/1999/xlink" x="0px" y="0px"
	 viewBox="0 0 460 170" style="enable-background:new 0 0 460 170;" xml:space="preserve">
<style type="text/css">
	.st0{opacity:0.2;}
	.st1{fill:none;stroke:#00ACC8;stroke-width:7;stroke-linecap:round;stroke-linejoin:round;stroke-miterlimit:10;}
</style>
<g id="XMLID_516_" class="st0">
	<polyline id="XMLID_3362_" class="st1" points="387.9,98.8 235.5,98.8 205.9,139.8 69.4,139.8 	"/>
	<g id="XMLID_3359_">
		<path id="XMLID_3361_" class="st1" d="M184.5,103.3c0,0.4,0.1,0.8,0.1,1.2c0,11.7-9.5,21.3-21.3,21.3c-11.7,0-21.3-9.5-21.3-21.3
			c0-0.4,0-0.8,0.1-1.2H184.5z"/>
		<polyline id="XMLID_3360_" class="st1" points="127.4,118.5 127.4,110.5 142.9,110.5 		"/>
	</g>
	<circle id="XMLID_3358_" class="st1" cx="165" cy="75.5" r="9.3"/>
	<g id="XMLID_3354_">
		<polyline id="XMLID_3357_" class="st1" points="340.8,27.2 362.9,5.1 385.9,28.2 		"/>
		<polyline id="XMLID_3356_" class="st1" points="354.5,40.9 385.7,40.9 385.7,73.5 		"/>
		<polyline id="XMLID_3355_" class="st1" points="372.5,84.3 341.3,84.3 341.3,51.7 		"/>
	</g>
	<g id="XMLID_3349_">
		<polyline id="XMLID_3353_" class="st1" points="218.7,69.5 219.1,53.7 236.4,53.7 		"/>
		<circle id="XMLID_3352_" class="st1" cx="256.6" cy="62.2" r="19.9"/>
		<line id="XMLID_3351_" class="st1" x1="276.5" y1="53.9" x2="291.9" y2="42.3"/>
		<line id="XMLID_3350_" class="st1" x1="256.6" y1="42.3" x2="256.6" y2="35.5"/>
	</g>
	<g id="XMLID_3339_">
		<g id="XMLID_3343_">
			<path id="XMLID_3348_" class="st1" d="M83.1,25.3c5.6,0,8.6,2.4,8.6,8.9c0,8.4-4.9,20.4-8.6,20.4c-4.3,0-8.6-12-8.6-20.4
				C74.5,27.7,77.4,25.3,83.1,25.3z"/>
			<path id="XMLID_3347_" class="st1" d="M83.1,97.9c-5.6,0-8.6-2.4-8.6-8.9c0-8.4,4.9-20.4,8.6-20.4c4.3,0,8.6,12,8.6,20.4
				C91.6,95.5,88.7,97.9,83.1,97.9z"/>
		</g>
		<g id="XMLID_3340_">
			<path id="XMLID_3342_" class="st1" d="M46.8,61.6c0-5.6,2.4-8.6,8.9-8.6c8.4,0,20.4,4.9,20.4,8.6c0,4.3-12,8.6-20.4,8.6
				C49.2,70.2,46.8,67.2,46.8,61.6z"/>
			<path id="XMLID_3341_" class="st1" d="M119.4,61.6c0,5.6-2.4,8.6-8.9,8.6c-8.4,0-20.4-4.9-20.4-8.6c0-4.3,12-8.6,20.4-8.6
				C116.9,53,119.4,56,119.4,61.6z"/>
		</g>
	</g>
	<g id="XMLID_3371_">
		<polyline id="XMLID_3373_" class="st1" points="306,116.6 325.8,136.4 346.4,115.7 367.2,136.4 387.9,115.7 		"/>
		<polyline id="XMLID_3372_" class="st1" points="306,143.2 325.8,163 346.4,142.3 367.2,163 387.9,142.3 		"/>
	</g>
	<g id="XMLID_3367_">
		<polyline id="XMLID_3370_" class="st1" points="50.4,115.7 28.3,93.6 5.2,116.7 		"/>
		<polyline id="XMLID_3369_" class="st1" points="50.4,139.8 28.3,117.7 5.2,140.8 		"/>
		<polyline id="XMLID_3368_" class="st1" points="50.4,163.9 28.3,141.8 5.2,164.9 		"/>
	</g>
	<g id="XMLID_3363_">
		<polyline id="XMLID_3366_" class="st1" points="454.8,71.5 432.7,49.5 409.6,72.5 		"/>
		<polyline id="XMLID_3365_" class="st1" points="454.8,95.6 432.7,73.5 409.6,96.6 		"/>
		<polyline id="XMLID_3364_" class="st1" points="454.8,119.7 432.7,97.6 409.6,120.7 		"/>
	</g>
</g>
</svg>
