<?xml version="1.0" encoding="utf-8"?>
<!-- Generator: Adobe Illustrator 19.0.0, SVG Export Plug-In . SVG Version: 6.00 Build 0)  -->
<svg version="1.1" id="Layer_1" xmlns="http://www.w3.org/2000/svg" xmlns:xlink="http://www.w3.org/1999/xlink" x="0px" y="0px"
	 viewBox="0 0 470 270" style="enable-background:new 0 0 470 270;" xml:space="preserve">
<style type="text/css">
	.st0{opacity:0.2;}
	.st1{fill:none;stroke:#00ACC8;stroke-width:7;stroke-linecap:round;stroke-linejoin:round;stroke-miterlimit:10;}
</style>
<g id="XMLID_3376_" class="st0">
	<polyline id="XMLID_3281_" class="st1" points="23.1,121.6 175.5,121.6 205.1,162.5 341.6,162.5 396.6,74.8 461.3,74.8 	"/>
	<polyline id="XMLID_2355_" class="st1" points="47.6,225.9 154.1,225.9 175.5,260.2 316.9,260.2 	"/>
	<g id="XMLID_2327_">
		<path id="XMLID_3412_" class="st1" d="M272.5,126.1c0,0.4,0.1,0.8,0.1,1.2c0,11.7-9.5,21.3-21.3,21.3c-11.7,0-21.3-9.5-21.3-21.3
			c0-0.4,0-0.8,0.1-1.2H272.5z"/>
		<polyline id="XMLID_3411_" class="st1" points="215.5,141.2 215.5,133.2 231,133.2 		"/>
	</g>
	<circle id="XMLID_3413_" class="st1" cx="253.1" cy="98.2" r="9.3"/>
	<g id="XMLID_3431_">
		<circle id="XMLID_3441_" class="st1" cx="258.2" cy="223.8" r="15.5"/>
		<path id="XMLID_3440_" class="st1" d="M225.7,208.3c-4.3,0-7.7,6.9-7.7,15.5s3.5,15.5,7.7,15.5"/>
		<path id="XMLID_3439_" class="st1" d="M209.3,207.9c-4.3,0-7.7,7-7.7,15.7c0,8.7,3.5,15.7,7.7,15.7"/>
		<path id="XMLID_3438_" class="st1" d="M206,239.3h17.3c8.6,0,15.7-7.1,15.7-15.7l0,0c0-8.6-7.1-15.7-15.7-15.7H206
			c-8.6,0-15.7,7.1-15.7,15.7l0,0C190.3,232.3,197.3,239.3,206,239.3z"/>
		<line id="XMLID_3437_" class="st1" x1="224.4" y1="206.5" x2="194.7" y2="185.2"/>
		<line id="XMLID_3436_" class="st1" x1="273.7" y1="223.8" x2="283" y2="223.5"/>
		<g id="XMLID_3432_">
			<g id="XMLID_3433_">
				<g id="XMLID_3434_">
					<path id="XMLID_3435_" class="st1" d="M263.4,221.9c0.2,0,0.3-0.1,0.4-0.2c0.1-0.1,0.2-0.3,0.2-0.4c0-0.2-0.1-0.3-0.2-0.4
						c-0.2-0.2-0.6-0.2-0.8,0c-0.1,0.1-0.2,0.3-0.2,0.4c0,0.2,0.1,0.3,0.2,0.4C263.1,221.8,263.2,221.9,263.4,221.9z"/>
				</g>
			</g>
		</g>
	</g>
	<g id="XMLID_3575_">
		<polyline id="XMLID_3583_" class="st1" points="316.9,218.7 335.9,199.7 355.8,219.6 		"/>
		<polyline id="XMLID_3578_" class="st1" points="316.9,239.5 335.9,220.4 355.8,240.3 		"/>
		<polyline id="XMLID_3576_" class="st1" points="316.9,260.2 335.9,241.2 355.8,261.1 		"/>
	</g>
	<g id="XMLID_3585_">
		<polyline id="XMLID_3588_" class="st1" points="8.7,204.3 27.7,185.2 47.6,205.1 		"/>
		<polyline id="XMLID_3587_" class="st1" points="8.7,225 27.7,206 47.6,225.9 		"/>
		<polyline id="XMLID_3586_" class="st1" points="8.7,245.8 27.7,226.7 47.6,246.6 		"/>
	</g>
	<g id="XMLID_3420_">
		<polyline id="XMLID_3423_" class="st1" points="25,50 47.1,27.9 70.2,50.9 		"/>
		<polyline id="XMLID_3422_" class="st1" points="38.8,63.6 70,63.6 70,96.2 		"/>
		<polyline id="XMLID_3421_" class="st1" points="56.8,107 25.5,107 25.5,74.4 		"/>
	</g>
	<g id="XMLID_3415_">
		<polyline id="XMLID_3419_" class="st1" points="119.1,92.2 119.5,76.4 136.8,76.4 		"/>
		<circle id="XMLID_3418_" class="st1" cx="157" cy="84.9" r="19.9"/>
		<line id="XMLID_3417_" class="st1" x1="176.9" y1="76.6" x2="192.3" y2="65"/>
		<line id="XMLID_3416_" class="st1" x1="157" y1="65" x2="157" y2="58.3"/>
	</g>
	<g id="XMLID_3397_">
		<g id="XMLID_3401_">
			<path id="XMLID_3403_" class="st1" d="M367.9,8.9c-5.6,0-8.6,2.4-8.6,8.9c0,8.4,4.9,20.4,8.6,20.4c4.3,0,8.6-12,8.6-20.4
				C376.5,11.3,373.5,8.9,367.9,8.9z"/>
			<path id="XMLID_3402_" class="st1" d="M367.9,81.5c5.6,0,8.6-2.4,8.6-8.9c0-8.4-4.9-20.4-8.6-20.4c-4.3,0-8.6,12-8.6,20.4
				C359.3,79.1,362.3,81.5,367.9,81.5z"/>
		</g>
		<g id="XMLID_3398_">
			<path id="XMLID_3400_" class="st1" d="M404.2,45.2c0-5.6-2.4-8.6-8.9-8.6c-8.4,0-20.4,4.9-20.4,8.6c0,4.3,12,8.6,20.4,8.6
				C401.8,53.8,404.2,50.8,404.2,45.2z"/>
			<path id="XMLID_3399_" class="st1" d="M331.6,45.2c0,5.6,2.4,8.6,8.9,8.6c8.4,0,20.4-4.9,20.4-8.6c0-4.3-12-8.6-20.4-8.6
				C334,36.6,331.6,39.6,331.6,45.2z"/>
		</g>
	</g>
	<g id="XMLID_3404_">
		<g id="XMLID_3408_">
			<path id="XMLID_3410_" class="st1" d="M112.2,137.5c-5.6,0-8.6,2.4-8.6,8.9c0,8.4,4.9,20.4,8.6,20.4c4.3,0,8.6-12,8.6-20.4
				C120.8,139.9,117.9,137.5,112.2,137.5z"/>
			<path id="XMLID_3409_" class="st1" d="M112.2,210.1c5.6,0,8.6-2.4,8.6-8.9c0-8.4-4.9-20.4-8.6-20.4c-4.3,0-8.6,12-8.6,20.4
				C103.7,207.6,106.6,210.1,112.2,210.1z"/>
		</g>
		<g id="XMLID_3405_">
			<path id="XMLID_3407_" class="st1" d="M148.5,173.8c0-5.6-2.4-8.6-8.9-8.6c-8.4,0-20.4,4.9-20.4,8.6c0,4.3,12,8.6,20.4,8.6
				C146.1,182.3,148.5,179.4,148.5,173.8z"/>
			<path id="XMLID_3406_" class="st1" d="M75.9,173.8c0,5.6,2.4,8.6,8.9,8.6c8.4,0,20.4-4.9,20.4-8.6c0-4.3-12-8.6-20.4-8.6
				C78.4,165.2,75.9,168.1,75.9,173.8z"/>
		</g>
	</g>
</g>
</svg>
