<?xml version="1.0" encoding="utf-8"?>
<!-- Generator: Adobe Illustrator 19.0.0, SVG Export Plug-In . SVG Version: 6.00 Build 0)  -->
<svg version="1.1" id="Layer_1" xmlns="http://www.w3.org/2000/svg" xmlns:xlink="http://www.w3.org/1999/xlink" x="0px" y="0px"
	 viewBox="0 0 100 100" style="enable-background:new 0 0 100 100;" xml:space="preserve">
<style type="text/css">
	.st0{fill:none;stroke:#FFDC3E;stroke-width:7;stroke-linecap:round;stroke-linejoin:round;stroke-miterlimit:10;}
</style>
<g id="XMLID_1705_">
	<g id="XMLID_1709_">
		<path id="XMLID_1711_" class="st0" d="M50,7.2c-6.6,0-10.1,2.8-10.1,10.5c0,9.9,5.8,24,10.1,24c5.1,0,10.1-14.2,10.1-24
			C60.1,10.1,56.6,7.2,50,7.2z"/>
		<path id="XMLID_1710_" class="st0" d="M50,92.8c6.6,0,10.1-2.8,10.1-10.5c0-9.9-5.8-24-10.1-24c-5.1,0-10.1,14.2-10.1,24
			C39.9,89.9,43.4,92.8,50,92.8z"/>
	</g>
	<g id="XMLID_1706_">
		<path id="XMLID_1708_" class="st0" d="M92.8,50c0-6.6-2.8-10.1-10.5-10.1c-9.9,0-24,5.8-24,10.1c0,5.1,14.2,10.1,24,10.1
			C89.9,60.1,92.8,56.6,92.8,50z"/>
		<path id="XMLID_1707_" class="st0" d="M7.2,50c0,6.6,2.8,10.1,10.5,10.1c9.9,0,24-5.8,24-10.1c0-5.1-14.2-10.1-24-10.1
			C10.1,39.9,7.2,43.4,7.2,50z"/>
	</g>
</g>
</svg>
