<?xml version="1.0" encoding="utf-8"?>
<!-- Generator: Adobe Illustrator 19.0.0, SVG Export Plug-In . SVG Version: 6.00 Build 0)  -->
<svg version="1.1" id="Layer_1" xmlns="http://www.w3.org/2000/svg" xmlns:xlink="http://www.w3.org/1999/xlink" x="0px" y="0px"
	 viewBox="0 0 85 55" style="enable-background:new 0 0 85 55;" xml:space="preserve">
<style type="text/css">
	.st0{opacity:0.4;}
	.st1{fill:none;stroke:#95D600;stroke-width:7;stroke-linecap:round;stroke-linejoin:round;stroke-miterlimit:10;}
	.st2{fill:#95D600;}
</style>
<g id="XMLID_2322_" class="st0">
	<circle id="XMLID_2338_" class="st1" cx="24.7" cy="37.1" r="12.9"/>
	<path id="XMLID_2337_" class="st1" d="M51.6,24.3c3.6,0,6.4,5.8,6.4,12.9c0,7.1-2.9,12.9-6.4,12.9"/>
	<path id="XMLID_2336_" class="st1" d="M65.2,23.9c3.6,0,6.4,5.8,6.4,13c0,7.2-2.9,13-6.4,13"/>
	<path id="XMLID_2335_" class="st1" d="M68,50H53.6c-7.2,0-13-5.9-13-13l0,0c0-7.2,5.9-13,13-13H68c7.2,0,13,5.9,13,13l0,0
		C81,44.1,75.1,50,68,50z"/>
	<line id="XMLID_2334_" class="st1" x1="52.7" y1="22.7" x2="77.3" y2="5"/>
	<line id="XMLID_2333_" class="st1" x1="11.8" y1="37.1" x2="4" y2="36.8"/>
	<g id="XMLID_2328_">
		<g id="XMLID_2330_">
			<g id="XMLID_2331_">
				<g id="XMLID_2332_">
					<path id="XMLID_62_" class="st2" d="M20.3,32.1c-0.8,0-1.5,0.3-2.1,0.8c-0.5,0.6-0.8,1.3-0.8,2.1c0,0.8,0.3,1.5,0.9,2.1
						c0.5,0.5,1.3,0.8,2,0.8c0.8,0,1.5-0.3,2.1-0.8c0.6-0.6,0.8-1.3,0.8-2.1c0-0.8-0.3-1.5-0.8-2.1C21.9,32.4,21.1,32.1,20.3,32.1
						L20.3,32.1z"/>
				</g>
			</g>
		</g>
	</g>
</g>
</svg>
