<?xml version="1.0" encoding="utf-8"?>
<!-- Generator: Adobe Illustrator 19.0.0, SVG Export Plug-In . SVG Version: 6.00 Build 0)  -->
<svg version="1.1" id="Layer_3" xmlns="http://www.w3.org/2000/svg" xmlns:xlink="http://www.w3.org/1999/xlink" x="0px" y="0px"
	 viewBox="-929 916 140 170" style="enable-background:new -929 916 140 170;" xml:space="preserve">
<style type="text/css">
	.st0{opacity:0.2;}
	.st1{fill:none;stroke:#00ACC9;stroke-width:7;stroke-linecap:round;stroke-linejoin:round;stroke-miterlimit:10;}
	.st2{fill:#00ACC9;}
</style>
<g id="XMLID_53_">
	<g id="XMLID_1931_" class="st0">
		<line id="XMLID_1934_" class="st1" x1="-870" y1="1021.1" x2="-870" y2="1002"/>
		<line id="XMLID_1933_" class="st1" x1="-853.7" y1="1021.1" x2="-853.7" y2="1002"/>
		<path id="XMLID_1932_" class="st1" d="M-815.6,954.2h-19.3c-0.3-0.4-0.5-0.8-0.8-1.2c-3.4-4.5-8-8.1-13.3-10.2l-6.6,9.4
			l-35.3,49.8l0,0h30.7c15.6,0,28.5-11.7,30.4-26.8L-815.6,954.2z"/>
		<g id="XMLID_279_">
			<g id="XMLID_280_">
				<g id="XMLID_281_">
					<g id="XMLID_282_">
						<g id="XMLID_283_">
							<path class="st2" d="M-850,962.2c-0.9,0-1.8,0.3-2.5,1c-0.6,0.7-1,1.5-1,2.5c0,0.9,0.4,1.8,1.1,2.5c0.6,0.6,1.5,1,2.5,1
								c0.9,0,1.8-0.4,2.5-1c0.7-0.7,1-1.6,1-2.5s-0.4-1.8-1-2.5C-848.1,962.6-849,962.2-850,962.2L-850,962.2z"/>
						</g>
					</g>
				</g>
			</g>
		</g>
	</g>
	<g id="XMLID_1926_" class="st0">
		<g id="XMLID_1928_">
			<circle id="XMLID_1930_" class="st1" cx="-882.2" cy="1048.7" r="10.4"/>
			<circle id="XMLID_1929_" class="st1" cx="-835.8" cy="1048.7" r="10.4"/>
		</g>
		<line id="XMLID_1927_" class="st1" x1="-812.8" y1="1038.3" x2="-905.2" y2="1038.3"/>
	</g>
</g>
</svg>
