<?xml version="1.0" encoding="utf-8"?>
<!-- Generator: Adobe Illustrator 19.0.0, SVG Export Plug-In . SVG Version: 6.00 Build 0)  -->
<svg version="1.1" id="Layer_3" xmlns="http://www.w3.org/2000/svg" xmlns:xlink="http://www.w3.org/1999/xlink" x="0px" y="0px"
	 viewBox="-929 916 140 170" style="enable-background:new -929 916 140 170;" xml:space="preserve">
<style type="text/css">
	.st0{opacity:0.4;}
	.st1{fill:none;stroke:#95D600;stroke-width:7;stroke-linecap:round;stroke-linejoin:round;stroke-miterlimit:10;}
	.st2{fill:#95D600;}
</style>
<g class="st0">
	<line id="XMLID_1934_" class="st1" x1="-870.1" y1="1021" x2="-870" y2="1001.9"/>
	<line id="XMLID_1933_" class="st1" x1="-853.8" y1="1021.1" x2="-853.7" y2="1002"/>
	<path id="XMLID_1932_" class="st1" d="M-815.4,954.4l-19.3-0.1c-0.3-0.4-0.5-0.8-0.8-1.2c-3.4-4.5-8-8.1-13.2-10.3l-6.6,9.4
		l-35.5,49.6l0,0l30.7,0.2c15.6,0.1,28.6-11.6,30.5-26.6L-815.4,954.4z"/>
	<g id="XMLID_279_">
		<g id="XMLID_280_">
			<g id="XMLID_281_">
				<g id="XMLID_282_">
					<g id="XMLID_283_">
						<path class="st2" d="M-849.8,962.2c-0.9,0-1.8,0.3-2.5,1c-0.6,0.7-1,1.5-1,2.5c0,0.9,0.4,1.8,1.1,2.5c0.6,0.6,1.5,1,2.5,1
							c0,0,0,0,0,0c0.9,0,1.8-0.4,2.5-1c0.7-0.7,1-1.6,1-2.5c0-0.9-0.4-1.8-1-2.5C-848,962.7-848.9,962.2-849.8,962.2
							C-849.8,962.2-849.8,962.2-849.8,962.2L-849.8,962.2z"/>
					</g>
				</g>
			</g>
		</g>
	</g>
	<g id="XMLID_1928_">
		<circle id="XMLID_1930_" class="st1" cx="-882.4" cy="1048.6" r="10.4"/>
		<circle id="XMLID_1929_" class="st1" cx="-836" cy="1048.8" r="10.4"/>
	</g>
	<line id="XMLID_1927_" class="st1" x1="-813" y1="1038.5" x2="-905.4" y2="1038.1"/>
</g>
</svg>
