<?xml version="1.0" encoding="utf-8"?>
<!-- Generator: Adobe Illustrator 19.0.0, SVG Export Plug-In . SVG Version: 6.00 Build 0)  -->
<svg version="1.1" id="Layer_1" xmlns="http://www.w3.org/2000/svg" xmlns:xlink="http://www.w3.org/1999/xlink" x="0px" y="0px"
	 viewBox="-749 751 500 500" style="enable-background:new -749 751 500 500;" xml:space="preserve">
<style type="text/css">
	.st0{fill:#95D600;}
</style>
<g id="XMLID_159_">
	<path id="XMLID_160_" class="st0" d="M-499,1249.7c-66.4,0-128.9-25.9-175.9-72.8c-47-47-72.8-109.4-72.8-175.9
		c0-66.4,25.9-128.9,72.8-175.9c47-47,109.4-72.8,175.9-72.8c66.4,0,128.9,25.9,175.9,72.8c47,47,72.8,109.4,72.8,175.9
		c0,66.4-25.9,128.9-72.8,175.9C-370.1,1223.8-432.6,1249.7-499,1249.7z M-499,852.3c-82,0-148.7,66.7-148.7,148.7
		s66.7,148.7,148.7,148.7s148.7-66.7,148.7-148.7S-417,852.3-499,852.3z"/>
</g>
</svg>
