<?xml version="1.0" encoding="utf-8"?>
<!-- Generator: Adobe Illustrator 19.0.0, SVG Export Plug-In . SVG Version: 6.00 Build 0)  -->
<svg version="1.1" id="Layer_4" xmlns="http://www.w3.org/2000/svg" xmlns:xlink="http://www.w3.org/1999/xlink" x="0px" y="0px"
	 viewBox="1544 -89.9 200 200" style="enable-background:new 1544 -89.9 200 200;" xml:space="preserve">
<style type="text/css">
	.st0{opacity:0.4;}
	.st1{fill:none;stroke:#94D60A;stroke-width:7;stroke-linecap:round;stroke-linejoin:round;stroke-miterlimit:10;}
</style>
<g id="XMLID_3019_" class="st0">
	<g id="XMLID_3023_">
		<path id="XMLID_3025_" class="st1" d="M1644-26.2c-5.6,0-8.6,2.4-8.6,8.9c0,8.4,4.9,20.4,8.6,20.4c4.3,0,8.6-12,8.6-20.4
			C1652.6-23.7,1649.6-26.2,1644-26.2z"/>
		<path id="XMLID_3024_" class="st1" d="M1644,46.3c5.6,0,8.6-2.4,8.6-8.9c0-8.4-4.9-20.4-8.6-20.4c-4.3,0-8.6,12-8.6,20.4
			C1635.4,44,1638.4,46.3,1644,46.3z"/>
	</g>
	<g id="XMLID_3020_">
		<path id="XMLID_3022_" class="st1" d="M1680.3,10.2c0-5.6-2.4-8.6-8.9-8.6c-8.4,0-20.4,4.9-20.4,8.6c0,4.3,12,8.6,20.4,8.6
			C1677.9,18.7,1680.3,15.8,1680.3,10.2z"/>
		<path id="XMLID_3021_" class="st1" d="M1607.7,10.2c0,5.6,2.4,8.6,8.9,8.6c8.4,0,20.4-4.9,20.4-8.6c0-4.3-12-8.6-20.4-8.6
			C1610.1,1.6,1607.7,4.5,1607.7,10.2z"/>
	</g>
</g>
</svg>
