<?xml version="1.0" encoding="utf-8"?>
<!-- Generator: Adobe Illustrator 19.0.0, SVG Export Plug-In . SVG Version: 6.00 Build 0)  -->
<svg version="1.1" id="Layer_1" xmlns="http://www.w3.org/2000/svg" xmlns:xlink="http://www.w3.org/1999/xlink" x="0px" y="0px"
	 viewBox="0 0 22 27" style="enable-background:new 0 0 22 27;" xml:space="preserve">
<style type="text/css">
	.st0{fill:none;stroke:#FFFFFF;stroke-width:2;stroke-linecap:round;stroke-linejoin:round;stroke-miterlimit:10;}
</style>
<g id="XMLID_2_">
	<path id="XMLID_464_" class="st0" d="M15.9,16.8c-2,1.5-3.1,2.6-4,1.2c-0.5-0.8-0.9-1.4-1-1.6c-0.1-0.1-0.1-0.1-0.1-0.1l-1-1.6
		l-1-1.6c0,0,0,0-0.1-0.1c-0.2-0.2-0.5-0.8-1-1.6c-0.9-1.4,0.7-2,2.8-3.1c2.5-1.3-1.5-7.9-4.4-6.2S2,5.6,2,5.6s-2.1,3.1,2.3,10.1
		l1,1.6l1,1.6c4.4,7,8.1,6.5,8.1,6.5s2.3-0.1,5.1-1.9S18.1,15.2,15.9,16.8z"/>
</g>
</svg>
