<?xml version="1.0" encoding="utf-8"?>
<!-- Generator: Adobe Illustrator 19.0.0, SVG Export Plug-In . SVG Version: 6.00 Build 0)  -->
<svg version="1.1" id="Layer_1" xmlns="http://www.w3.org/2000/svg" xmlns:xlink="http://www.w3.org/1999/xlink" x="0px" y="0px"
	 viewBox="-839 651 320 700" style="enable-background:new -839 651 320 700;" xml:space="preserve">
<style type="text/css">
	.st0{fill:#FFD100;}
</style>
<g id="XMLID_181_">
	<path id="XMLID_209_" class="st0" d="M-713.1,790.9c22.9-20.2,44.6-39.2,59.5-61.1c14.9-21.9,21.9-45.3,21.9-73.8
		c0-0.2,0-0.4,0-0.6l100-0.3c0,0.3,0,0.6,0,0.9c0,108.6-64,164.8-115.5,210c-22.9,20.2-44.6,39.2-59.5,61.1
		c-15,22.1-22,45.7-21.9,74.4c0.1,28.7,7.2,52.3,22.4,74.2c15,21.8,36.8,40.7,59.9,60.7c51.9,45,116.5,101,116.8,210.1l-100,0.3
		c-0.1-28.7-7.2-52.3-22.4-74.2c-15-21.8-36.8-40.7-59.9-60.7c-51.9-45-116.5-101-116.8-210.1c0-0.3,0-0.6,0-0.9
		C-828.6,892.3-764.6,836.1-713.1,790.9z"/>
</g>
</svg>
