<?xml version="1.0" encoding="utf-8"?>
<!-- Generator: Adobe Illustrator 19.0.0, SVG Export Plug-In . SVG Version: 6.00 Build 0)  -->
<svg version="1.1" id="Layer_1" xmlns="http://www.w3.org/2000/svg" xmlns:xlink="http://www.w3.org/1999/xlink" x="0px" y="0px"
	 viewBox="-839 651 320 700" style="enable-background:new -839 651 320 700;" xml:space="preserve">
<style type="text/css">
	.st0{fill:#95D600;}
</style>
<g id="XMLID_181_">
	<path id="XMLID_209_" class="st0" d="M-529.5,1000.9c0,0.3,0,0.6,0,0.9c-0.3,109.1-64.9,165.1-116.8,210.1
		c-23.1,20-44.9,38.9-59.9,60.7c-15.2,21.9-22.3,45.5-22.4,74.2l-100-0.3c0.3-109.1,64.9-165.1,116.8-210.1
		c23.1-20,44.9-38.9,59.9-60.7c15.2-21.9,22.3-45.5,22.4-74.2s-6.9-52.3-21.9-74.4c-14.9-21.9-36.6-40.9-59.5-61.1
		c-51.5-45.2-115.5-101.4-115.5-210c0-0.3,0-0.6,0-0.9l100,0.3c0,0.2,0,0.4,0,0.6c0,28.5,7,51.9,21.9,73.8
		c14.9,21.9,36.6,40.9,59.5,61.1C-593.5,836.1-529.5,892.3-529.5,1000.9z"/>
</g>
</svg>
