<?xml version="1.0" encoding="utf-8"?>
<!-- Generator: Adobe Illustrator 19.0.0, SVG Export Plug-In . SVG Version: 6.00 Build 0)  -->
<svg version="1.1" id="Layer_1" xmlns="http://www.w3.org/2000/svg" xmlns:xlink="http://www.w3.org/1999/xlink" x="0px" y="0px"
	 viewBox="0 0 700 300" style="enable-background:new 0 0 700 300;" xml:space="preserve">
<style type="text/css">
	.st0{fill:#95D600;}
</style>
<g id="XMLID_181_">
	<path id="XMLID_209_" class="st0" d="M350.1,299.5c-0.3,0-0.6,0-0.9,0c-109.1-0.3-165.1-64.9-210.1-116.8
		c-20-23.1-38.9-44.9-60.7-59.9c-21.9-15.2-45.5-22.3-74.2-22.4l0.3-100c109.1,0.3,165.1,64.9,210.1,116.8
		c20,23.1,38.9,44.9,60.7,59.9c21.9,15.2,45.5,22.3,74.2,22.4c28.7,0.1,52.3-6.9,74.4-21.9c21.9-14.9,40.9-36.6,61.1-59.5
		C530.2,66.6,586.4,2.6,695,2.6c0.3,0,0.6,0,0.9,0l-0.3,100c-0.2,0-0.4,0-0.6,0c-28.5,0-51.9,7-73.8,21.9
		c-21.9,14.9-40.9,36.6-61.1,59.5C514.9,235.5,458.7,299.5,350.1,299.5z"/>
</g>
</svg>
