<?xml version="1.0" encoding="utf-8"?>
<!-- Generator: Adobe Illustrator 19.0.0, SVG Export Plug-In . SVG Version: 6.00 Build 0)  -->
<svg version="1.1" id="Layer_1" xmlns="http://www.w3.org/2000/svg" xmlns:xlink="http://www.w3.org/1999/xlink" x="0px" y="0px"
	 viewBox="0 0 880 200" style="enable-background:new 0 0 880 200;" xml:space="preserve">
<style type="text/css">
	.st0{fill:#95D600;}
</style>
<g id="XMLID_40_">
	<g id="XMLID_163_">
		<path id="XMLID_164_" class="st0" d="M219.9,176.6c-66.8,0-103-19.5-132.1-35.1c-24.9-13.4-44.6-23.9-87.7-23.9c0,0-0.1,0-0.1,0
			l0-94c0,0,0.1,0,0.1,0c66.8,0,103,19.5,132.1,35.1c24.9,13.4,44.6,23.9,87.7,23.9c0,0,0.1,0,0.1,0c43.2,0,62.8-10.6,87.7-24
			c29.1-15.7,65.4-35.2,132.2-35.2l0,94c-43.2,0-62.8,10.6-87.7,24c-29.1,15.7-65.4,35.2-132.2,35.2
			C220,176.6,220,176.6,219.9,176.6z"/>
	</g>
	<g id="XMLID_166_">
		<path id="XMLID_167_" class="st0" d="M659.9,176.6c-66.8,0-103-19.5-132.1-35.1c-24.9-13.4-44.6-23.9-87.7-23.9c0,0-0.1,0-0.1,0
			l0-94c0,0,0.1,0,0.1,0c66.8,0,103,19.5,132.1,35.1c24.9,13.4,44.6,23.9,87.7,23.9c0,0,0.1,0,0.1,0c43.2,0,62.8-10.6,87.7-24
			c29.1-15.7,65.4-35.2,132.2-35.2l0,94c-43.2,0-62.8,10.6-87.7,24c-29.1,15.7-65.4,35.2-132.2,35.2
			C660,176.6,660,176.6,659.9,176.6z"/>
	</g>
</g>
</svg>
