<?xml version="1.0" encoding="utf-8"?>
<!-- Generator: Adobe Illustrator 19.0.0, SVG Export Plug-In . SVG Version: 6.00 Build 0)  -->
<svg version="1.1" id="Layer_1" xmlns="http://www.w3.org/2000/svg" xmlns:xlink="http://www.w3.org/1999/xlink" x="0px" y="0px"
	 viewBox="-559 901 880 200" style="enable-background:new -559 901 880 200;" xml:space="preserve">
<style type="text/css">
	.st0{fill:#FFD100;}
</style>
<g id="XMLID_40_">
	<g id="XMLID_163_">
		<path id="XMLID_164_" class="st0" d="M-339.1,1077.6c-66.8,0-103-19.5-132.1-35.1c-24.9-13.4-44.6-23.9-87.7-23.9h-0.1v-94h0.1
			c66.8,0,103,19.5,132.1,35.1c24.9,13.4,44.6,23.9,87.7,23.9h0.1c43.2,0,62.8-10.6,87.7-24c29.1-15.7,65.4-35.2,132.2-35.2v94
			c-43.2,0-62.8,10.6-87.7,24c-29.1,15.7-65.4,35.2-132.2,35.2C-339,1077.6-339,1077.6-339.1,1077.6z"/>
	</g>
	<g id="XMLID_166_">
		<path id="XMLID_167_" class="st0" d="M100.9,1077.6c-66.8,0-103-19.5-132.1-35.1c-24.9-13.4-44.6-23.9-87.7-23.9h-0.1v-94h0.1
			c66.8,0,103,19.5,132.1,35.1c24.9,13.4,44.6,23.9,87.7,23.9h0.1c43.2,0,62.8-10.6,87.7-24c29.1-15.7,65.4-35.2,132.2-35.2v94
			c-43.2,0-62.8,10.6-87.7,24c-29.1,15.7-65.4,35.2-132.2,35.2C101,1077.6,101,1077.6,100.9,1077.6z"/>
	</g>
</g>
</svg>
