<?xml version="1.0" encoding="utf-8"?>
<!-- Generator: Adobe Illustrator 19.0.0, SVG Export Plug-In . SVG Version: 6.00 Build 0)  -->
<svg version="1.1" id="Layer_1" xmlns="http://www.w3.org/2000/svg" xmlns:xlink="http://www.w3.org/1999/xlink" x="0px" y="0px"
	 viewBox="0 0 83 86.2" style="enable-background:new 0 0 83 86.2;" xml:space="preserve">
<style type="text/css">
	.st0{fill:none;stroke:#95d600;stroke-width:7;stroke-linecap:round;stroke-linejoin:round;stroke-miterlimit:10;}
	.st1{fill:#95d600;}
</style>
<g id="XMLID_242_">
	<line id="XMLID_245_" class="st0" x1="24.8" y1="82.1" x2="24.8" y2="62.9"/>
	<line id="XMLID_244_" class="st0" x1="41.2" y1="82.1" x2="41.2" y2="62.9"/>
	<path id="XMLID_243_" class="st0" d="M79.3,15.2H59.9c-0.3-0.4-0.5-0.8-0.8-1.2c-3.4-4.5-8-8.1-13.3-10.2l-6.6,9.4L3.9,62.9l0,0
		h30.7c15.6,0,28.5-11.7,30.4-26.8L79.3,15.2z"/>
	<g id="XMLID_131_">
		<g id="XMLID_132_">
			<g id="XMLID_133_">
				<g id="XMLID_134_">
					<g id="XMLID_135_">
						<g>
							<g>
								<path class="st1" d="M44.8,23.1c-0.9,0-1.8,0.3-2.5,1c-0.6,0.7-1,1.5-1,2.5c0,0.9,0.4,1.8,1.1,2.5c0.6,0.6,1.5,1,2.5,1
									c0.9,0,1.8-0.4,2.5-1c0.7-0.7,1-1.6,1-2.5s-0.4-1.8-1-2.5C46.7,23.5,45.8,23.1,44.8,23.1L44.8,23.1z"/>
							</g>
						</g>
					</g>
				</g>
			</g>
		</g>
	</g>
</g>
</svg>
