<?xml version="1.0" encoding="utf-8"?>
<!-- Generator: Adobe Illustrator 19.0.0, SVG Export Plug-In . SVG Version: 6.00 Build 0)  -->
<svg version="1.1" id="Layer_12" xmlns="http://www.w3.org/2000/svg" xmlns:xlink="http://www.w3.org/1999/xlink" x="0px" y="0px"
	 viewBox="15 -123 50 266" style="enable-background:new 15 -123 50 266;" xml:space="preserve">
<style type="text/css">
	.st0{opacity:0.1;enable-background:new    ;}
</style>
<path id="XMLID_28_" class="st0" d="M54.5,143h-8.4l-19.7-19.7c-1.3-1.3-1.3-3.6,0-4.9l19.7-19.7L26.4,79c-1.3-1.3-1.3-3.6,0-5
	l19.7-19.7L26.4,34.6c-1.3-1.3-1.3-3.6,0-5L46.1,10L26.4-9.7c-1.3-1.3-1.3-3.6,0-4.9l19.7-19.7L26.4-54c-1.3-1.3-1.3-3.6,0-4.9
	l19.7-19.7L26.4-98.4c-1.3-1.3-1.3-3.6,0-5L46.1-123h8.4c0,0.9-0.3,1.8-1,2.5l-19.6,19.7l19.7,19.7c1.3,1.3,1.3,3.6,0,4.9L33.9-56.5
	l19.7,19.7c1.3,1.3,1.3,3.6,0,4.9L33.9-12.2L53.6,7.5c1.3,1.3,1.3,3.6,0,5L33.9,32.2l19.7,19.7c1.3,1.3,1.3,3.6,0,4.9L33.9,76.5
	l19.7,19.7c1.3,1.3,1.3,3.6,0,5l-19.7,19.7l19.7,19.7C54.2,141.2,54.5,142.1,54.5,143z"/>
</svg>
