<?xml version="1.0" encoding="utf-8"?>
<!-- Generator: Adobe Illustrator 19.0.0, SVG Export Plug-In . SVG Version: 6.00 Build 0)  -->
<svg version="1.1" id="Layer_12" xmlns="http://www.w3.org/2000/svg" xmlns:xlink="http://www.w3.org/1999/xlink" x="0px" y="0px"
	 viewBox="157 -15 266 50" style="enable-background:new 157 -15 266 50;" xml:space="preserve">
<style type="text/css">
	.st0{opacity:0.1;enable-background:new    ;}
</style>
<path id="XMLID_28_" class="st0" d="M423-4.5v8.4l-19.7,19.7c-1.3,1.3-3.6,1.3-4.9,0L378.7,3.9L359,23.6c-1.3,1.3-3.6,1.3-5,0
	L334.3,3.9l-19.7,19.7c-1.3,1.3-3.6,1.3-5,0L290,3.9l-19.7,19.7c-1.3,1.3-3.6,1.3-4.9,0L245.7,3.9L226,23.6c-1.3,1.3-3.6,1.3-4.9,0
	L201.3,3.9l-19.7,19.7c-1.3,1.3-3.6,1.3-5,0L157,3.9v-8.4c0.9,0,1.8,0.3,2.5,1l19.7,19.7l19.7-19.7c1.3-1.3,3.6-1.3,4.9,0l19.7,19.7
	l19.7-19.7c1.3-1.3,3.6-1.3,4.9,0l19.7,19.7l19.7-19.7c1.3-1.3,3.6-1.3,5,0l19.7,19.7l19.7-19.7c1.3-1.3,3.6-1.3,4.9,0l19.7,19.7
	l19.7-19.7c1.3-1.3,3.6-1.3,5,0l19.7,19.7l19.7-19.7C421.2-4.2,422.1-4.5,423-4.5z"/>
</svg>
