<?xml version="1.0" encoding="utf-8"?>
<!-- Generator: Adobe Illustrator 19.0.0, SVG Export Plug-In . SVG Version: 6.00 Build 0)  -->
<svg version="1.1" id="Layer_1" xmlns="http://www.w3.org/2000/svg" xmlns:xlink="http://www.w3.org/1999/xlink" x="0px" y="0px"
	 viewBox="0 0 100 90" style="enable-background:new 0 0 100 90;" xml:space="preserve">
<style type="text/css">
	.st0{fill:none;stroke:#95D600;stroke-width:7;stroke-linecap:round;stroke-linejoin:round;stroke-miterlimit:10;}
	.st1{fill:#95D600;}
</style>
<g id="XMLID_67_">
	<polyline id="XMLID_80_" class="st0" points="64.9,62.2 80.6,85.6 53,85.6 	"/>
	<circle id="XMLID_79_" class="st0" cx="34.1" cy="48.6" r="14"/>
	<line id="XMLID_77_" class="st0" x1="37.2" y1="85.6" x2="37.2" y2="64.9"/>
	<line id="XMLID_76_" class="st0" x1="24.6" y1="85.6" x2="35.8" y2="85.6"/>
	<line id="XMLID_74_" class="st0" x1="68.4" y1="64.3" x2="75.2" y2="59.2"/>
	<g id="XMLID_68_">
		<g id="XMLID_69_">
			<g id="XMLID_70_">
				<g id="XMLID_71_">
					<path id="XMLID_36_" class="st1" d="M30.2,43.4c-0.9,0-1.8,0.3-2.5,1c-0.6,0.7-1,1.5-1,2.5c0,0.9,0.4,1.8,1.1,2.5
						c0.6,0.6,1.5,1,2.5,1c0.9,0,1.8-0.4,2.5-1c0.7-0.7,1-1.6,1-2.5c0-0.9-0.4-1.8-1-2.5C32,43.7,31.1,43.4,30.2,43.4L30.2,43.4z"/>
				</g>
			</g>
		</g>
	</g>
</g>
</svg>
