<?xml version="1.0" encoding="utf-8"?>
<!-- Generator: Adobe Illustrator 19.0.0, SVG Export Plug-In . SVG Version: 6.00 Build 0)  -->
<svg version="1.1" id="Layer_1" xmlns="http://www.w3.org/2000/svg" xmlns:xlink="http://www.w3.org/1999/xlink" x="0px" y="0px"
	 viewBox="0 0 80 80" style="enable-background:new 0 0 80 80;" xml:space="preserve">
<style type="text/css">
	.st0{fill:none;stroke:#999999;stroke-width:3;stroke-linecap:round;stroke-linejoin:round;stroke-miterlimit:10;}
	.st1{fill:#999999;}
</style>
<g id="XMLID_380_">
	<g id="XMLID_431_">
		<path id="XMLID_433_" class="st0" d="M19.3,29.5c-1.5,3.1-2.4,6.6-2.4,10.3"/>
		<path id="XMLID_432_" class="st0" d="M19.3,50.1c-1.5-3.1-2.4-6.6-2.4-10.3"/>
	</g>
	<g id="XMLID_403_">
		<path id="XMLID_430_" class="st0" d="M29.9,60.7c3.1,1.5,6.6,2.4,10.3,2.4"/>
		<path id="XMLID_404_" class="st0" d="M50.5,60.7c-3.1,1.5-6.6,2.4-10.3,2.4"/>
	</g>
	<g id="XMLID_400_">
		<path id="XMLID_402_" class="st0" d="M61.1,50.1c1.5-3.1,2.4-6.6,2.4-10.3"/>
		<path id="XMLID_401_" class="st0" d="M61.1,29.5c1.5,3.1,2.4,6.6,2.4,10.3"/>
	</g>
	<g id="XMLID_397_">
		<path id="XMLID_399_" class="st0" d="M50.5,18.9c-3.1-1.5-6.6-2.4-10.3-2.4"/>
		<path id="XMLID_398_" class="st0" d="M29.9,18.9c3.1-1.5,6.6-2.4,10.3-2.4"/>
	</g>
	<polygon id="XMLID_396_" class="st0" points="39.9,22.8 33.7,39.8 39.9,56.8 46.1,39.8 	"/>
	<g id="XMLID_395_">
		<path id="XMLID_28_" class="st1" d="M39.9,37.6c1.2,0,2.2,1,2.2,2.2s-1,2.2-2.2,2.2c-1.2,0-2.2-1-2.2-2.2S38.7,37.6,39.9,37.6
			 M39.9,34.6c-2.9,0-5.2,2.3-5.2,5.2c0,2.9,2.3,5.2,5.2,5.2c2.9,0,5.2-2.3,5.2-5.2C45.1,37,42.7,34.6,39.9,34.6L39.9,34.6z"/>
	</g>
	<g id="XMLID_17_">
		<path id="XMLID_18_" class="st1" d="M42,8.3c0.1-0.3,0.3-0.6,0.5-0.8c0.1-0.1,0.4-0.2,0.6-0.2c0.3,0,0.5,0.1,0.8,0.3
			c0.2,0.2,0.3,0.4,0.3,0.8c0,0.4-0.2,1.2-0.9,1.9c-0.7,0.7-1.5,1-2.8,1c-1.2,0-2.2-0.4-2.9-1.2c-1.1-1.1-1.1-2.3-1.1-4.5
			c0-2.1,0-3.4,1.1-4.5c0.7-0.8,1.7-1.2,2.9-1.2c1.3,0,2.1,0.3,2.8,1c0.7,0.7,0.9,1.5,0.9,1.9c0,0.4-0.1,0.6-0.3,0.8
			c-0.2,0.2-0.5,0.3-0.8,0.3c-0.2,0-0.5-0.1-0.6-0.2c-0.2-0.2-0.4-0.5-0.5-0.8C41.6,2.4,41.1,2,40.3,2c-0.6,0-1,0.2-1.3,0.6
			c-0.5,0.5-0.5,1.1-0.5,3.1s0.1,2.6,0.5,3.1c0.3,0.4,0.7,0.6,1.3,0.6C41.1,9.4,41.6,9.1,42,8.3z"/>
	</g>
	<g id="XMLID_10_">
		<path id="XMLID_11_" class="st1" d="M45.3,78.7c-0.7,0.8-1.7,1.2-3,1.2c-1.3,0-2.2-0.4-3-1.2c-0.9-0.9-1.1-2-1.1-3.6h-1.7v3.2
			c0,0.5,0,0.7-0.1,0.9c-0.2,0.3-0.5,0.5-0.9,0.5c-0.4,0-0.8-0.2-0.9-0.5c-0.1-0.3-0.1-0.4-0.1-0.9v-8.3c0-0.5,0-0.7,0.1-0.9
			c0.2-0.3,0.5-0.5,0.9-0.5c0.4,0,0.8,0.2,0.9,0.5c0.1,0.3,0.1,0.4,0.1,0.9v3.1h1.7c0-1.5,0.2-2.5,1.1-3.4c0.7-0.8,1.7-1.2,3-1.2
			c1.3,0,2.2,0.4,3,1.2c1.1,1.1,1.1,2.3,1.1,4.5C46.4,76.4,46.4,77.6,45.3,78.7z M40.9,71.2c-0.4,0.5-0.5,1-0.5,3.1
			c0,2.1,0.1,2.6,0.5,3.1c0.3,0.3,0.8,0.6,1.4,0.6s1.1-0.2,1.4-0.6c0.4-0.5,0.5-1,0.5-3.1c0-2.1-0.1-2.6-0.5-3.1
			c-0.3-0.4-0.8-0.6-1.4-0.6S41.2,70.8,40.9,71.2z"/>
	</g>
	<g id="XMLID_6_">
		<path id="XMLID_7_" class="st1" d="M2.4,34.3c0.8-0.7,1.7-1.1,3.1-1.1c2.2,0,3.8,1.2,3.8,3.1c0,1.1-0.6,1.9-1.4,2.4
			c1,0.4,1.6,1.3,1.6,2.5c0,2-1.7,3.3-4,3.3c-1.4,0-2.4-0.3-3.1-1.1c-0.6-0.5-0.9-1.2-0.9-1.8c0-0.3,0.1-0.6,0.3-0.8
			c0.2-0.2,0.4-0.3,0.7-0.3c0.4,0,0.5,0.1,0.7,0.2c0.2,0.1,0.3,0.3,0.5,0.7c0.3,0.7,0.8,1.1,1.8,1.1c1.1,0,1.8-0.6,1.8-1.5
			c0-0.9-0.6-1.5-1.7-1.5H5.2c-0.4,0-0.6,0-0.8-0.1C4.1,39.4,4,39.1,4,38.8c0-0.4,0.2-0.6,0.4-0.8c0.2-0.1,0.4-0.1,0.8-0.1h0.4
			c0.9,0,1.5-0.5,1.5-1.4c0-0.8-0.6-1.4-1.6-1.4c-0.9,0-1.4,0.4-1.7,1.1c-0.2,0.5-0.4,0.6-0.5,0.8c-0.2,0.1-0.4,0.2-0.7,0.2
			c-0.3,0-0.5-0.1-0.7-0.3c-0.2-0.2-0.3-0.4-0.3-0.8C1.5,35.5,1.8,34.9,2.4,34.3z"/>
	</g>
	<g id="XMLID_1_">
		<path id="XMLID_2_" class="st1" d="M71.8,44.4c-0.3,0-0.7,0-1-0.3c-0.3-0.3-0.3-0.7-0.3-1v-8.4c0-0.3,0-0.7,0.3-1
			c0.3-0.3,0.7-0.3,1-0.3H75c2.2,0,3.4,1.2,3.4,3.1c0,1.2-0.8,2-1.4,2.3c0.7,0.3,1.5,1,1.5,2.5c0,2.1-1.4,3.2-3.4,3.2H71.8z
			 M72.7,35.3v2.5h2.1c0.9,0,1.4-0.5,1.4-1.3s-0.5-1.3-1.4-1.3H72.7z M74.9,42.5c1,0,1.4-0.6,1.4-1.4s-0.5-1.4-1.4-1.4h-2.3v2.7
			H74.9z"/>
	</g>
	<g id="XMLID_381_">
		<line id="XMLID_389_" class="st0" x1="59.6" y1="20.3" x2="54.5" y2="25.4"/>
		<line id="XMLID_388_" class="st0" x1="20.4" y1="59.5" x2="25.5" y2="54.4"/>
		<line id="XMLID_386_" class="st0" x1="20.4" y1="20.3" x2="25.5" y2="25.4"/>
		<line id="XMLID_382_" class="st0" x1="59.6" y1="59.5" x2="54.5" y2="54.4"/>
	</g>
</g>
</svg>
