<?xml version="1.0" encoding="utf-8"?>
<!-- Generator: Adobe Illustrator 19.0.0, SVG Export Plug-In . SVG Version: 6.00 Build 0)  -->
<svg version="1.1" id="Layer_1" xmlns="http://www.w3.org/2000/svg" xmlns:xlink="http://www.w3.org/1999/xlink" x="0px" y="0px"
	 viewBox="0 0 40 40" style="enable-background:new 0 0 40 40;" xml:space="preserve">
<style type="text/css">
	.st0{fill:none;stroke:#FFD100;stroke-width:3;stroke-linecap:round;stroke-linejoin:round;stroke-miterlimit:10;}
	.st1{fill:#FFD100;}
</style>
<g id="XMLID_2_">
	<g id="XMLID_252_">
		<g id="XMLID_239_">
			<line id="XMLID_234_" class="st0" x1="12.8" y1="4" x2="4" y2="4"/>
			<line id="XMLID_238_" class="st0" x1="4" y1="12.8" x2="4" y2="4"/>
		</g>
		<g id="XMLID_240_">
			<line id="XMLID_242_" class="st0" x1="27.2" y1="4" x2="36" y2="4"/>
			<line id="XMLID_241_" class="st0" x1="36" y1="12.8" x2="36" y2="4"/>
		</g>
		<g id="XMLID_246_">
			<line id="XMLID_248_" class="st0" x1="12.8" y1="36" x2="4" y2="36"/>
			<line id="XMLID_247_" class="st0" x1="4" y1="27.2" x2="4" y2="36"/>
		</g>
		<g id="XMLID_243_">
			<line id="XMLID_245_" class="st0" x1="27.2" y1="36" x2="36" y2="36"/>
			<line id="XMLID_244_" class="st0" x1="36" y1="27.2" x2="36" y2="36"/>
		</g>
	</g>
	<g id="XMLID_3_">
		<path id="XMLID_4_" class="st1" d="M24.7,26c-0.4,0-0.8,0-1.1-0.1c-0.3-0.1-0.6-0.2-0.8-0.4c-0.2-0.2-0.4-0.4-0.5-0.6
			c-0.1-0.2-0.2-0.5-0.2-0.8c-0.1,0.4-0.3,0.7-0.4,0.9s-0.4,0.5-0.6,0.6c-0.2,0.2-0.5,0.3-0.8,0.4C20,25.9,19.7,26,19.4,26
			c-0.6,0-1.2-0.1-1.7-0.4c-0.5-0.2-1-0.6-1.3-1c-0.4-0.4-0.7-1-0.9-1.6c-0.2-0.6-0.3-1.3-0.3-2c0-0.8,0.1-1.6,0.3-2.2
			c0.2-0.7,0.6-1.3,1-1.8c0.5-0.5,1.1-0.9,1.8-1.1c0.7-0.3,1.6-0.4,2.7-0.4c0.2,0,0.4,0,0.7,0c0.3,0,0.6,0,0.9,0.1
			c0.3,0,0.6,0.1,0.9,0.1s0.5,0.1,0.6,0.1l0,5.9c0,0.2,0,0.3,0,0.5s0,0.3,0,0.4c0,0.3,0,0.5,0,0.7c0,0.2,0.1,0.4,0.1,0.6
			c0.1,0.2,0.1,0.3,0.2,0.4s0.3,0.1,0.4,0.1c0.3,0,0.6-0.1,0.8-0.2s0.4-0.3,0.6-0.6c0.2-0.3,0.3-0.5,0.4-0.9
			c0.1-0.3,0.2-0.7,0.3-1.1s0.1-0.8,0.2-1.2c0-0.4,0-0.8,0-1.3c0-1.2-0.2-2.2-0.5-3.2c-0.4-0.9-0.8-1.7-1.4-2.3
			c-0.6-0.6-1.3-1.1-2.2-1.4c-0.8-0.3-1.7-0.5-2.7-0.5c-1.2,0-2.3,0.2-3.3,0.6c-1,0.4-1.8,1-2.5,1.7c-0.7,0.7-1.2,1.6-1.6,2.6
			c-0.4,1-0.6,2-0.6,3.2c0,0.6,0,1.2,0.1,1.8c0.1,0.6,0.3,1.2,0.5,1.8c0.2,0.6,0.5,1.2,0.9,1.7c0.4,0.5,0.8,1,1.4,1.4
			s1.2,0.7,1.9,0.9s1.6,0.3,2.6,0.3c0.3,0,0.7,0,1.1-0.1c0.4,0,0.8-0.1,1.1-0.2v2.1c-0.1,0.1-0.3,0.1-0.5,0.2
			c-0.2,0.1-0.5,0.2-0.8,0.2c-0.3,0.1-0.6,0.1-1,0.2c-0.4,0.1-0.7,0.1-1.1,0.1c-0.7,0-1.4-0.1-2.1-0.3c-0.7-0.2-1.4-0.4-2.1-0.8
			C14,29,13.4,28.6,12.8,28c-0.6-0.6-1.1-1.2-1.5-2c-0.4-0.8-0.8-1.6-1-2.6c-0.2-1-0.4-2.1-0.4-3.3c0-1,0.1-1.9,0.3-2.8
			c0.2-0.9,0.5-1.7,0.9-2.5s0.9-1.5,1.5-2.1s1.3-1.2,2.1-1.6c0.8-0.4,1.7-0.8,2.6-1c1-0.2,2-0.4,3.2-0.4c0.9,0,1.7,0.1,2.5,0.3
			c0.8,0.2,1.6,0.4,2.3,0.8c0.7,0.3,1.3,0.8,1.9,1.3s1.1,1.1,1.5,1.8c0.4,0.7,0.7,1.5,1,2.4c0.2,0.9,0.3,1.8,0.3,2.9
			c0,0.9-0.1,1.8-0.3,2.7c-0.2,0.8-0.5,1.6-0.9,2.2c-0.4,0.6-1,1.1-1.7,1.5C26.5,25.8,25.7,26,24.7,26z M21.7,17.4
			c-0.2-0.1-0.4-0.2-0.6-0.2s-0.5-0.1-0.7-0.1c-0.4,0-0.7,0.1-1.1,0.2c-0.3,0.1-0.6,0.4-0.9,0.7c-0.3,0.3-0.5,0.7-0.6,1.1
			c-0.1,0.4-0.2,0.9-0.2,1.5c0,0.5,0.1,1,0.2,1.4s0.2,0.9,0.4,1.2c0.2,0.3,0.4,0.6,0.7,0.8c0.3,0.2,0.6,0.3,0.9,0.3
			c0.3,0,0.6-0.1,0.9-0.3c0.2-0.2,0.5-0.4,0.6-0.7c0.2-0.3,0.3-0.6,0.4-0.9c0.1-0.3,0.1-0.6,0.1-0.8V17.4z"/>
	</g>
</g>
</svg>
