<?xml version="1.0" encoding="utf-8"?>
<!-- Generator: Adobe Illustrator 19.0.0, SVG Export Plug-In . SVG Version: 6.00 Build 0)  -->
<svg version="1.1" id="Layer_1" xmlns="http://www.w3.org/2000/svg" xmlns:xlink="http://www.w3.org/1999/xlink" x="0px" y="0px"
	 viewBox="-39 41 180 70" style="enable-background:new -39 41 180 70;" xml:space="preserve">
<style type="text/css">
	.st0{fill:none;stroke:#999999;stroke-width:1.5581;stroke-linejoin:round;stroke-miterlimit:10;}
	.st1{fill:#00ACC8;stroke:#00ACC8;stroke-width:1.5581;stroke-linejoin:round;stroke-miterlimit:10;}
	.st2{enable-background:new    ;}
	.st3{fill:#FFFFFF;}
	.st4{fill:#999999;}
</style>
<g>
	<path class="st0" d="M-8.2,60.2v10.4h-2.6v10.2c-8.3,0-14.5,0-18.2,0.1V80h-2.1V50.8h3.6v-6.2h6.2v1.6h10.4v14H-8.2z"/>
	<polygon class="st0" points="36.5,89.2 36.5,107.4 31.3,107.4 31.3,109.5 11.5,109.5 11.5,107.4 7.4,107.4 7.4,89.2 16.2,89.2 
		16.2,86.6 27.1,86.6 27.1,89.2 	"/>
	<polygon class="st0" points="65,89.2 65,107.4 60.3,107.4 60.3,109.5 40.6,109.5 40.6,107.4 36.5,107.4 36.5,89.2 45.3,89.2 
		45.3,86.6 55.7,86.6 55.7,89.2 	"/>
	<polygon class="st0" points="94.1,89.2 94.1,107.4 89.4,107.4 89.4,109.5 69.7,109.5 69.7,107.4 65,107.4 65,89.2 73.9,89.2 
		73.9,86.6 84.8,86.6 84.8,89.2 	"/>
	<path class="st0" d="M132,90.3v17.1h-9.9v2.1h-19.7v-2.1h-8.3V89.2h13v-2.6h5.2v-8.2c7.8,0,14,0,18.2,0.1v11.7h1.5V90.3z"/>
	<path class="st0" d="M133.1,58.1v10.4h-2.6v10.1c-4.2,0-10.4-0.1-18.2-0.1v-0.7h-2.1V48.7h3.6v-6.2h5.7v1.6h10.9v14H133.1z"/>
	<path class="st1" d="M7.4,89.2v18.2h-8.8v2.1h-19.8v-2.1h-9.9V90.3h2.1v-9.5c3.6,0,9.9,0,18.2-0.1v5.9h4.7v2.6H7.4z"/>
	<g class="st2">
		<path class="st3" d="M-14.4,102.2c-0.6-0.8-1-1.9-1-3.3c-0.1-3,1.5-5.4,4.1-5.4c0.8,0,1.5,0.2,2,0.6v1c-0.6-0.4-1.2-0.6-1.9-0.6
			c-2.2,0-3.2,2-3.2,4.1c0.5-0.9,1.5-1.4,2.8-1.4c0.9,0,1.6,0.3,2.2,0.9c0.6,0.6,0.9,1.3,0.9,2.2c0,0.9-0.3,1.7-0.9,2.3
			c-0.6,0.6-1.4,0.9-2.3,0.9C-12.9,103.4-13.8,103-14.4,102.2z M-10.2,101.8c0.4-0.4,0.7-1,0.7-1.6c0-0.7-0.2-1.2-0.7-1.6
			c-0.4-0.4-1-0.6-1.7-0.6c-0.6,0-1.1,0.2-1.5,0.5s-0.8,0.8-1,1.3c0.2,1.6,1.1,2.6,2.5,2.6C-11.2,102.5-10.6,102.2-10.2,101.8z"/>
	</g>
	<g>
		<g class="st2">
			<path class="st4" d="M18.7,102.8v-1c0.7,0.5,1.6,0.7,2.6,0.7c0.8,0,1.5-0.2,2-0.6s0.8-0.9,0.8-1.6c0-1.3-1.1-2.2-2.7-2.2
				c-0.8,0-1.5,0.1-2.3,0.4l0.6-4.7h4.7v0.9h-3.9l-0.4,2.7c0.4-0.1,0.9-0.2,1.5-0.2c1,0,1.8,0.3,2.5,0.9c0.7,0.6,1,1.3,1,2.2
				c0,0.9-0.4,1.7-1.1,2.3c-0.7,0.6-1.6,0.9-2.7,0.9C20.3,103.4,19.4,103.2,18.7,102.8z"/>
		</g>
	</g>
	<g>
		<g class="st2">
			<path class="st4" d="M52,103.2v-2.6h-5.1v-0.8l5.1-6.1h1v6h1.6v0.9H53v2.6H52z M48.1,99.7H52v-4.6L48.1,99.7z"/>
		</g>
	</g>
	<g>
		<g class="st2">
			<path class="st4" d="M75.7,102.7v-1c0.8,0.5,1.7,0.8,2.7,0.8c0.7,0,1.3-0.2,1.9-0.6c0.5-0.4,0.8-0.9,0.8-1.6c0-1.3-1-2.2-2.6-2.2
				c-0.4,0-0.7,0-1.1,0.1v-0.7l2.9-2.9h-4.3v-0.9h5.6v0.7l-2.8,2.8c0.8,0,1.6,0.3,2.2,0.8c0.7,0.5,1,1.2,1,2.1c0,0.9-0.4,1.7-1,2.3
				c-0.7,0.6-1.5,0.9-2.6,0.9C77.4,103.4,76.5,103.2,75.7,102.7z"/>
		</g>
	</g>
	<g>
		<g class="st2">
			<path class="st4" d="M109.6,103.2v-0.7l3.2-3c0.7-0.7,1.2-1.2,1.5-1.6c0.3-0.4,0.4-0.9,0.4-1.4c0-1.1-0.9-1.9-2.2-1.9
				c-1,0-1.9,0.4-2.7,1.3v-1.1c0.8-0.7,1.7-1.1,2.8-1.1c0.9,0,1.6,0.2,2.2,0.7c0.6,0.5,0.9,1.2,0.9,2c0,0.6-0.2,1.2-0.5,1.7
				c-0.3,0.5-0.9,1.1-1.6,1.9l-2.5,2.5h5v0.9H109.6z"/>
		</g>
	</g>
	<g>
		<g class="st2">
			<path class="st4" d="M121,66.8v-8.4l-2.1,1.2v-1l2.2-1.3h0.9v9.5H121z"/>
		</g>
	</g>
	<g>
		<g class="st2">
			<path class="st4" d="M-22.7,66.8l4.3-8.6h-5.1v-0.9h6.3v0.7l-4.4,8.7H-22.7z"/>
		</g>
	</g>
</g>
</svg>
