<?xml version="1.0" encoding="utf-8"?>
<!-- Generator: Adobe Illustrator 19.0.0, SVG Export Plug-In . SVG Version: 6.00 Build 0)  -->
<svg version="1.1" id="Layer_1" xmlns="http://www.w3.org/2000/svg" xmlns:xlink="http://www.w3.org/1999/xlink" x="0px" y="0px"
	 viewBox="40 12 180 70" style="enable-background:new 40 12 180 70;" xml:space="preserve">
<style type="text/css">
	.st0{fill:none;stroke:#999999;stroke-width:1.5581;stroke-linejoin:round;stroke-miterlimit:10;}
	.st1{fill:#95D600;stroke:#95D600;stroke-width:1.5581;stroke-linejoin:round;stroke-miterlimit:10;}
	.st2{enable-background:new    ;}
	.st3{fill:#FFFFFF;}
	.st4{fill:#999999;}
</style>
<g>
	<path class="st0" d="M70.8,31.2v10.4h-2.6v10.2c-8.3,0-14.5,0-18.2,0.1V51h-2.1V21.8h3.6v-6.2h6.2v1.6h10.4v14
		C68.1,31.2,70.8,31.2,70.8,31.2z"/>
	<polygon class="st0" points="115.5,60.2 115.5,78.4 110.3,78.4 110.3,80.5 90.5,80.5 90.5,78.4 86.4,78.4 86.4,60.2 95.2,60.2 
		95.2,57.6 106.1,57.6 106.1,60.2 	"/>
	<polygon class="st0" points="144,60.2 144,78.4 139.3,78.4 139.3,80.5 119.6,80.5 119.6,78.4 115.5,78.4 115.5,60.2 124.3,60.2 
		124.3,57.6 134.7,57.6 134.7,60.2 	"/>
	<polygon class="st0" points="173.1,60.2 173.1,78.4 168.4,78.4 168.4,80.5 148.7,80.5 148.7,78.4 144,78.4 144,60.2 152.9,60.2 
		152.9,57.6 163.8,57.6 163.8,60.2 	"/>
	<path class="st0" d="M211,61.3v17.1h-9.9v2.1h-19.7v-2.1h-8.3V60.2h13v-2.6h5.2v-8.2c7.8,0,14,0,18.2,0.1v11.7h1.5L211,61.3
		L211,61.3z"/>
	<path class="st0" d="M212.1,29.1v10.4h-2.6v10.1c-4.2,0-10.4-0.1-18.2-0.1v-0.7h-2.1V19.7h3.6v-6.2h5.7v1.6h10.9v14H212.1z"/>
	<path class="st1" d="M86.4,60.2v18.2h-8.8v2.1H57.8v-2.1h-9.9V61.3H50v-9.5c3.6,0,9.9,0,18.2-0.1v5.9h4.7v2.6
		C72.9,60.2,86.4,60.2,86.4,60.2z"/>
	<g class="st2">
		<path class="st3" d="M64.6,73.2c-0.6-0.8-1-1.9-1-3.3c-0.1-3,1.5-5.4,4.1-5.4c0.8,0,1.5,0.2,2,0.6v1c-0.6-0.4-1.2-0.6-1.9-0.6
			c-2.2,0-3.2,2-3.2,4.1c0.5-0.9,1.5-1.4,2.8-1.4c0.9,0,1.6,0.3,2.2,0.9s0.9,1.3,0.9,2.2c0,0.9-0.3,1.7-0.9,2.3
			c-0.6,0.6-1.4,0.9-2.3,0.9C66.1,74.4,65.2,74,64.6,73.2z M68.8,72.8c0.4-0.4,0.7-1,0.7-1.6c0-0.7-0.2-1.2-0.7-1.6
			c-0.4-0.4-1-0.6-1.7-0.6c-0.6,0-1.1,0.2-1.5,0.5s-0.8,0.8-1,1.3c0.2,1.6,1.1,2.6,2.5,2.6C67.8,73.5,68.4,73.2,68.8,72.8z"/>
	</g>
	<g>
		<g class="st2">
			<path class="st4" d="M97.7,73.8v-1c0.7,0.5,1.6,0.7,2.6,0.7c0.8,0,1.5-0.2,2-0.6s0.8-0.9,0.8-1.6c0-1.3-1.1-2.2-2.7-2.2
				c-0.8,0-1.5,0.1-2.3,0.4l0.6-4.7h4.7v0.9h-3.9l-0.4,2.7c0.4-0.1,0.9-0.2,1.5-0.2c1,0,1.8,0.3,2.5,0.9c0.7,0.6,1,1.3,1,2.2
				c0,0.9-0.4,1.7-1.1,2.3c-0.7,0.6-1.6,0.9-2.7,0.9C99.3,74.4,98.4,74.2,97.7,73.8z"/>
		</g>
	</g>
	<g>
		<g class="st2">
			<path class="st4" d="M131,74.2v-2.6h-5.1v-0.8l5.1-6.1h1v6h1.6v0.9H132v2.6H131z M127.1,70.7h3.9v-4.6L127.1,70.7z"/>
		</g>
	</g>
	<g>
		<g class="st2">
			<path class="st4" d="M154.7,73.7v-1c0.8,0.5,1.7,0.8,2.7,0.8c0.7,0,1.3-0.2,1.9-0.6c0.5-0.4,0.8-0.9,0.8-1.6c0-1.3-1-2.2-2.6-2.2
				c-0.4,0-0.7,0-1.1,0.1v-0.7l2.9-2.9H155v-0.9h5.6v0.7l-2.8,2.8c0.8,0,1.6,0.3,2.2,0.8c0.7,0.5,1,1.2,1,2.1s-0.4,1.7-1,2.3
				c-0.7,0.6-1.5,0.9-2.6,0.9C156.4,74.4,155.5,74.2,154.7,73.7z"/>
		</g>
	</g>
	<g>
		<g class="st2">
			<path class="st4" d="M188.6,74.2v-0.7l3.2-3c0.7-0.7,1.2-1.2,1.5-1.6s0.4-0.9,0.4-1.4c0-1.1-0.9-1.9-2.2-1.9
				c-1,0-1.9,0.4-2.7,1.3v-1.1c0.8-0.7,1.7-1.1,2.8-1.1c0.9,0,1.6,0.2,2.2,0.7c0.6,0.5,0.9,1.2,0.9,2c0,0.6-0.2,1.2-0.5,1.7
				s-0.9,1.1-1.6,1.9l-2.5,2.5h5v0.9h-6.5V74.2z"/>
		</g>
	</g>
	<g>
		<g class="st2">
			<path class="st4" d="M200,37.8v-8.4l-2.1,1.2v-1l2.2-1.3h0.9v9.5H200z"/>
		</g>
	</g>
	<g>
		<g class="st2">
			<path class="st4" d="M56.3,37.8l4.3-8.6h-5.1v-0.9h6.3V29l-4.4,8.7L56.3,37.8L56.3,37.8z"/>
		</g>
	</g>
</g>
</svg>
