<?xml version="1.0" encoding="utf-8"?>
<!-- Generator: Adobe Illustrator 19.0.0, SVG Export Plug-In . SVG Version: 6.00 Build 0)  -->
<svg version="1.1" id="Layer_1" xmlns="http://www.w3.org/2000/svg" xmlns:xlink="http://www.w3.org/1999/xlink" x="0px" y="0px"
	 viewBox="-84 141 260 150" style="enable-background:new -84 141 260 150;" xml:space="preserve">
<style type="text/css">
	.st0{opacity:0.7;}
	.st1{enable-background:new    ;}
	.st2{fill:#999999;}
	.st3{fill:none;stroke:#999999;stroke-width:2.1483;stroke-linecap:round;stroke-linejoin:round;stroke-miterlimit:10;}
	.st4{fill:none;stroke:#999999;stroke-width:1.9357;stroke-linecap:round;stroke-linejoin:round;stroke-miterlimit:10;}
	.st5{fill:none;stroke:#999999;stroke-width:2;stroke-linecap:round;stroke-linejoin:round;stroke-miterlimit:10;}
	.st6{fill:#95D600;stroke:#95D600;stroke-width:2;stroke-linecap:round;stroke-linejoin:round;stroke-miterlimit:10;}
	.st7{fill:#95D600;}
</style>
<g id="XMLID_54_">
	<g id="XMLID_184_" class="st0">
		<g class="st1">
			<path class="st2" d="M-10.2,157.5v-1.1c0.3,0.1,0.5,0.2,0.8,0.2c0.7,0,1.1-0.5,1.5-1.5l-2.6-5.6H-9l1.8,4.1l1.7-4.1h1.4l-2.9,6.4
				c-0.5,1.2-1.3,1.8-2.2,1.8C-9.7,157.7-10,157.6-10.2,157.5z"/>
			<path class="st2" d="M-1.3,150.5v0.8c0,0.9-0.1,1.4-0.3,2.2c-0.3,1-0.8,1.7-2,1.7c-0.2,0-0.3,0-0.4,0v-1.1c0.1,0,0.2,0,0.3,0
				c0.8,0,1.1-0.8,1.2-2.8v-1.9h4.7v5.9H0.9v-4.8H-1.3z"/>
			<path class="st2" d="M3.7,154.5c0-0.5,0.4-0.8,0.8-0.8s0.8,0.4,0.8,0.8c0,0.5-0.4,0.8-0.8,0.8S3.7,155,3.7,154.5z"/>
			<path class="st2" d="M10.2,155.2v-8.3h1.3v3.3h4.3v-3.3h1.3v8.3h-1.3v-3.8h-4.3v3.8C11.5,155.2,10.2,155.2,10.2,155.2z"/>
			<path class="st2" d="M19.6,154.5c-0.6-0.6-0.9-1.3-0.9-2.2c0-0.9,0.3-1.6,0.9-2.2c0.6-0.6,1.4-0.9,2.3-0.9s1.7,0.3,2.3,0.9
				c0.6,0.6,0.9,1.3,0.9,2.2c0,0.9-0.3,1.6-0.9,2.2s-1.4,0.9-2.3,0.9S20.2,155.1,19.6,154.5z M23.3,153.7c0.4-0.4,0.5-0.8,0.5-1.4
				c0-0.5-0.2-1-0.5-1.4c-0.4-0.4-0.8-0.6-1.4-0.6c-0.5,0-1,0.2-1.4,0.6c-0.4,0.4-0.5,0.8-0.5,1.4c0,0.6,0.2,1,0.5,1.4
				c0.4,0.4,0.8,0.6,1.4,0.6C22.5,154.2,22.9,154.1,23.3,153.7z"/>
			<path class="st2" d="M26.5,155.2v-5.8h3.2c1.2,0,1.8,0.6,1.8,1.5c0,0.6-0.3,1.1-0.8,1.3c0.8,0.2,1.1,0.7,1.1,1.5
				c0,1-0.8,1.6-2,1.6h-3.3V155.2z M27.8,151.7h1.6c0.6,0,0.9-0.2,0.9-0.6c0-0.4-0.3-0.7-0.9-0.7h-1.6V151.7z M27.8,154.2h1.9
				c0.6,0,1-0.3,1-0.7c0-0.5-0.4-0.7-1-0.7h-1.9V154.2z"/>
			<path class="st2" d="M34,154.5c-0.6-0.6-0.9-1.3-0.9-2.2c0-0.9,0.3-1.6,0.9-2.2c0.6-0.6,1.4-0.9,2.3-0.9s1.7,0.3,2.3,0.9
				c0.6,0.6,0.9,1.3,0.9,2.2c0,0.9-0.3,1.6-0.9,2.2s-1.4,0.9-2.3,0.9C35.3,155.4,34.6,155.1,34,154.5z M37.6,153.7
				c0.4-0.4,0.5-0.8,0.5-1.4c0-0.5-0.2-1-0.5-1.4c-0.4-0.4-0.8-0.6-1.4-0.6c-0.5,0-1,0.2-1.4,0.6c-0.4,0.4-0.5,0.8-0.5,1.4
				c0,0.6,0.2,1,0.5,1.4c0.4,0.4,0.8,0.6,1.4,0.6C36.8,154.2,37.3,154.1,37.6,153.7z"/>
			<path class="st2" d="M41.4,154.3c-0.6-0.7-0.8-1.6-0.8-2.8c0-1.3,0.3-2.3,0.9-3c0.3-0.3,0.7-0.6,1.1-0.9c0.5-0.2,1-0.4,1.5-0.6
				c0.5-0.1,1.2-0.3,2-0.4v1.2c-1.3,0.2-2.1,0.4-2.4,0.5c-0.9,0.3-1.5,0.8-1.7,1.4c-0.1,0.3-0.2,0.6-0.2,1c0.5-0.7,1.4-1.2,2.4-1.2
				c0.8,0,1.4,0.2,1.9,0.7s0.8,1.1,0.8,1.9c0,0.9-0.3,1.6-0.9,2.2c-0.6,0.6-1.3,0.8-2.1,0.8C42.7,155.4,41.9,155,41.4,154.3z
				 M45,153.7c0.3-0.3,0.5-0.8,0.5-1.3c0-1-0.7-1.7-1.7-1.7c-0.8,0-1.6,0.5-2,1.2c0.1,1.4,0.8,2.3,1.9,2.3
				C44.2,154.2,44.6,154.1,45,153.7z"/>
			<path class="st2" d="M47.6,157.5v-1.1c0.3,0.1,0.5,0.2,0.8,0.2c0.7,0,1.1-0.5,1.5-1.5l-2.6-5.6h1.4l1.8,4.1l1.7-4.1h1.4l-2.8,6.5
				c-0.5,1.2-1.3,1.8-2.2,1.8C48.1,157.7,47.8,157.6,47.6,157.5z"/>
			<path class="st2" d="M56.1,155.2v-4.7h-2v-1.1h5.2v1.1h-2v4.7H56.1z"/>
			<path class="st2" d="M60.9,154.5c-0.6-0.6-0.9-1.3-0.9-2.2c0-0.9,0.3-1.6,0.9-2.2c0.6-0.6,1.4-0.9,2.3-0.9c0.9,0,1.7,0.3,2.3,0.9
				c0.6,0.6,0.9,1.3,0.9,2.2c0,0.9-0.3,1.6-0.9,2.2c-0.6,0.6-1.4,0.9-2.3,0.9C62.3,155.4,61.5,155.1,60.9,154.5z M64.6,153.7
				c0.4-0.4,0.5-0.8,0.5-1.4c0-0.5-0.2-1-0.5-1.4c-0.4-0.4-0.8-0.6-1.4-0.6c-0.5,0-1,0.2-1.4,0.6c-0.4,0.4-0.5,0.8-0.5,1.4
				c0,0.6,0.2,1,0.5,1.4c0.3,0.4,0.8,0.6,1.4,0.6C63.8,154.2,64.2,154.1,64.6,153.7z"/>
			<path class="st2" d="M67.9,155.2v-5.8h3.2c1.2,0,1.8,0.6,1.8,1.5c0,0.6-0.3,1.1-0.8,1.3c0.8,0.2,1.1,0.7,1.1,1.5
				c0,1-0.8,1.6-2,1.6h-3.3V155.2z M69.1,151.7h1.6c0.6,0,0.9-0.2,0.9-0.6c0-0.4-0.3-0.7-0.9-0.7h-1.6V151.7z M69.1,154.2H71
				c0.6,0,1-0.3,1-0.7c0-0.5-0.4-0.7-1-0.7h-1.9V154.2z"/>
			<path class="st2" d="M75.3,154.5c-0.6-0.6-0.9-1.3-0.9-2.2c0-0.9,0.3-1.6,0.9-2.2c0.6-0.6,1.4-0.9,2.3-0.9c0.7,0,1.3,0.1,1.8,0.4
				v1.1c-0.5-0.2-1-0.4-1.6-0.4s-1.1,0.2-1.5,0.5c-0.4,0.4-0.6,0.8-0.6,1.4c0,0.6,0.2,1,0.6,1.4c0.4,0.4,0.9,0.5,1.5,0.5
				s1.2-0.1,1.7-0.4v1.1c-0.6,0.3-1.2,0.5-1.9,0.5C76.7,155.4,75.9,155.1,75.3,154.5z"/>
			<path class="st2" d="M81,155.2v-5.8h1.3v2.2l2.3-2.2h1.6l-2.8,2.6l3.2,3.2h-1.8l-2.6-2.6v2.6C82.2,155.2,81,155.2,81,155.2z"/>
			<path class="st2" d="M93.5,154.1v1c-0.2,0.1-0.4,0.2-0.8,0.2c-0.7,0-1.1-0.3-1.2-0.8c-0.5,0.6-1.3,0.9-2.2,0.9
				c-0.6,0-1.2-0.2-1.6-0.5c-0.4-0.3-0.6-0.8-0.6-1.4s0.2-1.1,0.7-1.4c0.5-0.3,1-0.5,1.7-0.5s1.3,0.2,1.9,0.5v-0.3
				c0-0.8-0.6-1.3-1.7-1.3c-0.7,0-1.3,0.2-1.8,0.5v-1.3c0.6-0.3,1.3-0.5,2.1-0.5c1.6,0,2.7,0.8,2.7,2.2v2.2c0,0.4,0.2,0.6,0.5,0.6
				C93.3,154.2,93.4,154.2,93.5,154.1z M91.4,152.9c-0.5-0.3-1-0.4-1.6-0.4c-0.9,0-1.4,0.3-1.4,0.9c0,0.6,0.5,0.9,1.3,0.9
				c0.7,0,1.3-0.3,1.7-0.7V152.9z"/>
			<path class="st2" d="M94.3,155.2l1.7-2.3c-0.8-0.2-1.3-0.8-1.3-1.7c0-1.1,0.7-1.8,2.2-1.8h3.1v5.9h-1.3v-2h-1.4l-1.5,2h-1.5
				V155.2z M98.6,152.2v-1.8H97c-0.7,0-1.1,0.3-1.1,0.9c0,0.6,0.4,0.9,1.1,0.9C97,152.2,98.6,152.2,98.6,152.2z"/>
		</g>
		<line id="XMLID_193_" class="st3" x1="-45.3" y1="163.3" x2="135.2" y2="163.3"/>
		<line id="XMLID_190_" class="st4" x1="-61.8" y1="284.3" x2="-61.8" y2="165.2"/>
		<line id="XMLID_187_" class="st4" x1="153" y1="284.3" x2="153" y2="165.2"/>
		<g class="st1">
			<path class="st2" d="M169.8,284.9h-8.3V279h1.2v4.6h1.8v-2.2c0-0.9,0.3-1.7,0.8-2.2s1.1-0.8,1.9-0.8c0.8,0,1.5,0.3,1.9,0.8
				c0.5,0.5,0.7,1.3,0.7,2.2L169.8,284.9L169.8,284.9z M168.6,283.6v-2.1c0-1.2-0.5-1.8-1.5-1.8s-1.5,0.7-1.5,1.8v2.1H168.6z"/>
			<path class="st2" d="M172.1,277.4H171c0.1-0.3,0.2-0.5,0.2-0.8c0-0.7-0.5-1.1-1.5-1.5l-5.6,2.6v-1.4l4.1-1.8l-4.1-1.7v-1.4
				l6.5,2.8c1.2,0.5,1.8,1.3,1.8,2.2C172.3,276.8,172.2,277.2,172.1,277.4z"/>
			<path class="st2" d="M169.8,268.8h-4.7v2H164v-5.2h1.1v2h4.7V268.8z"/>
			<path class="st2" d="M169.1,264c-0.6,0.6-1.3,0.9-2.2,0.9s-1.6-0.3-2.2-0.9c-0.6-0.6-0.9-1.4-0.9-2.3c0-0.9,0.3-1.7,0.9-2.3
				s1.3-0.9,2.2-0.9s1.6,0.3,2.2,0.9c0.6,0.6,0.9,1.4,0.9,2.3C170,262.6,169.7,263.4,169.1,264z M168.3,260.3
				c-0.4-0.4-0.8-0.5-1.4-0.5c-0.5,0-1,0.2-1.4,0.5c-0.4,0.4-0.6,0.8-0.6,1.4c0,0.6,0.2,1,0.6,1.4c0.4,0.4,0.8,0.5,1.4,0.5
				c0.6,0,1-0.2,1.4-0.5c0.4-0.4,0.6-0.8,0.6-1.4C168.8,261.2,168.6,260.7,168.3,260.3z"/>
			<path class="st2" d="M169.8,257.1H164v-3.2c0-1.2,0.6-1.8,1.5-1.8c0.6,0,1.1,0.3,1.3,0.8c0.2-0.8,0.7-1.1,1.5-1.1
				c1,0,1.6,0.8,1.6,2.1v3.2H169.8z M166.3,255.8v-1.6c0-0.6-0.2-0.9-0.6-0.9c-0.4,0-0.7,0.3-0.7,0.9v1.6H166.3z M168.8,255.8v-1.9
				c0-0.6-0.3-1-0.7-1c-0.5,0-0.7,0.4-0.7,1v1.9H168.8z"/>
			<path class="st2" d="M169.1,249.7c-0.6,0.6-1.3,0.9-2.2,0.9s-1.6-0.3-2.2-0.9c-0.6-0.6-0.9-1.4-0.9-2.3c0-0.7,0.1-1.3,0.4-1.8
				h1.1c-0.2,0.5-0.4,1-0.4,1.6c0,0.6,0.2,1.1,0.5,1.5c0.4,0.4,0.8,0.6,1.4,0.6s1-0.2,1.4-0.6c0.4-0.4,0.5-0.9,0.5-1.5
				c0-0.6-0.1-1.2-0.4-1.7h1.1c0.3,0.6,0.5,1.2,0.5,1.9C170,248.3,169.7,249,169.1,249.7z"/>
			<path class="st2" d="M169.8,244H164v-1.3h2.2l-2.2-2.3v-1.6l2.6,2.8l3.2-3.2v1.8l-2.6,2.6h2.6V244z"/>
			<path class="st2" d="M169.8,237.2H164v-1.3h4l-4-3.2v-1.2h5.9v1.3h-4l4,3.2L169.8,237.2L169.8,237.2z"/>
			<path class="st2" d="M161.2,228.9v-1.1c0.6,0,1-0.4,1-1s-0.4-1-1-1v-1.1c1.2,0,2,0.9,2,2.1C163.2,228.1,162.4,228.9,161.2,228.9z
				 M169.8,229.7H164v-1.3h4l-4-3.2V224h5.9v1.3h-4l4,3.2L169.8,229.7L169.8,229.7z"/>
			<path class="st2" d="M165.1,217.1h0.8c0.9,0,1.4,0.1,2.2,0.3c1,0.3,1.7,0.8,1.7,2c0,0.2,0,0.3,0,0.4h-1.1c0-0.1,0-0.2,0-0.3
				c0-0.8-0.8-1.1-2.8-1.2H164v-4.7h5.9v1.3h-4.7L165.1,217.1L165.1,217.1z"/>
			<path class="st2" d="M164.7,211.3c-0.6-0.6-0.9-1.3-0.9-2.2c0-0.6,0.2-1.1,0.5-1.5c0.6-0.9,1.6-1.2,2.6-1.2h0.3v4.5
				c1-0.2,1.6-1,1.6-2.2c0-0.7-0.2-1.3-0.5-1.9h1.1c0.4,0.5,0.6,1.3,0.6,2.2s-0.3,1.7-0.9,2.3c-0.6,0.6-1.3,0.9-2.2,0.9
				C166,212.2,165.3,211.9,164.7,211.3z M166.3,207.7c-0.4,0-0.7,0.1-1,0.4c-0.3,0.3-0.4,0.6-0.4,1.1c0,0.9,0.6,1.5,1.4,1.6V207.7z"
				/>
			<path class="st2" d="M169.1,204.4c-0.6,0.6-1.3,0.9-2.2,0.9s-1.6-0.3-2.2-0.9c-0.6-0.6-0.9-1.4-0.9-2.3c0-0.7,0.1-1.3,0.4-1.8
				h1.1c-0.2,0.5-0.4,1-0.4,1.6c0,0.6,0.2,1.1,0.5,1.5c0.4,0.4,0.8,0.6,1.4,0.6s1-0.2,1.4-0.6c0.4-0.4,0.5-0.9,0.5-1.5
				c0-0.6-0.1-1.2-0.4-1.7h1.1c0.3,0.6,0.5,1.2,0.5,1.9C170,203.1,169.7,203.8,169.1,204.4z"/>
			<path class="st2" d="M169.1,198.4c-0.6,0.6-1.3,0.9-2.2,0.9s-1.6-0.3-2.2-0.9c-0.6-0.6-0.9-1.4-0.9-2.3c0-0.9,0.3-1.7,0.9-2.3
				s1.3-0.9,2.2-0.9s1.6,0.3,2.2,0.9c0.6,0.6,0.9,1.4,0.9,2.3S169.7,197.8,169.1,198.4z M168.3,194.7c-0.4-0.4-0.8-0.5-1.4-0.5
				c-0.5,0-1,0.2-1.4,0.5c-0.4,0.4-0.6,0.8-0.6,1.4c0,0.5,0.2,1,0.6,1.4c0.4,0.4,0.8,0.5,1.4,0.5c0.6,0,1-0.2,1.4-0.5
				c0.4-0.4,0.6-0.8,0.6-1.4C168.8,195.5,168.6,195.1,168.3,194.7z"/>
			<path class="st2" d="M169.8,191.5H164V186h5.9v1.3h-4.7v2.9h4.7L169.8,191.5L169.8,191.5z"/>
			<path class="st2" d="M168.7,178.3h1c0.1,0.2,0.2,0.4,0.2,0.8c0,0.7-0.3,1.1-0.8,1.2c0.6,0.5,0.9,1.3,0.9,2.2
				c0,0.6-0.2,1.2-0.5,1.6c-0.3,0.4-0.8,0.6-1.4,0.6c-0.6,0-1.1-0.2-1.4-0.7c-0.3-0.5-0.5-1-0.5-1.7c0-0.7,0.2-1.3,0.5-1.9h-0.3
				c-0.8,0-1.3,0.6-1.3,1.7c0,0.7,0.2,1.3,0.5,1.8h-1.1c-0.3-0.6-0.5-1.3-0.5-2.1c0-1.6,0.8-2.7,2.2-2.7h2.2c0.4,0,0.6-0.2,0.6-0.5
				C168.8,178.5,168.8,178.4,168.7,178.3z M167.4,180.4c-0.3,0.5-0.4,1-0.4,1.6c0,0.9,0.3,1.4,0.9,1.4c0.6,0,0.9-0.5,0.9-1.3
				c0-0.7-0.3-1.3-0.7-1.7H167.4z"/>
			<path class="st2" d="M164.7,171.6c0.6-0.5,1.3-0.8,2.2-0.8s1.6,0.3,2.2,0.8c0.6,0.5,0.9,1.2,0.9,2c0,0.9-0.3,1.6-1,2.1h3.2v1.3
				H164v-1.3h0.8c-0.6-0.5-1-1.2-1-2.1C163.8,172.9,164.1,172.2,164.7,171.6z M166,175.8h1.8c0.6-0.3,1-1,1-1.7c0-0.5-0.2-1-0.6-1.3
				c-0.4-0.4-0.8-0.5-1.4-0.5c-0.5,0-1,0.2-1.4,0.5c-0.4,0.4-0.6,0.8-0.6,1.3C164.9,174.8,165.4,175.4,166,175.8z"/>
			<path class="st2" d="M169.8,169.4H164v-1.3h2.2l-2.2-2.3v-1.6l2.6,2.8l3.2-3.2v1.8l-2.6,2.6h2.6V169.4z"/>
		</g>
		<g class="st1">
			<path class="st2" d="M-68.4,251.8h-1.1c0.1-0.3,0.2-0.5,0.2-0.8c0-0.7-0.5-1.1-1.5-1.5l-5.7,2.5v-1.4l4.1-1.8l-4.1-1.7v-1.4
				l6.5,2.8c1.2,0.5,1.8,1.3,1.8,2.2C-68.2,251.2-68.3,251.5-68.4,251.8z"/>
			<path class="st2" d="M-75.4,242.8h0.8c0.9,0,1.4,0.1,2.2,0.3c1,0.3,1.7,0.8,1.7,2c0,0.2,0,0.3,0,0.4h-1.1c0-0.1,0-0.2,0-0.3
				c0-0.8-0.8-1.1-2.8-1.2h-1.9v-4.7h5.9v1.3h-4.8V242.8z"/>
			<path class="st2" d="M-71.4,237.8c-0.5,0-0.8-0.4-0.8-0.8s0.4-0.8,0.8-0.8c0.5,0,0.8,0.4,0.8,0.8S-71,237.8-71.4,237.8z"/>
			<path class="st2" d="M-70.7,231.3H-79v-5.8h1.2v4.5h7.1C-70.7,230-70.7,231.3-70.7,231.3z"/>
			<path class="st2" d="M-75.8,220.5c0.6-0.5,1.3-0.8,2.2-0.8s1.6,0.3,2.2,0.8s0.9,1.2,0.9,2c0,0.9-0.3,1.6-1,2.1h3.2v1.3h-8.2v-1.3
				h0.8c-0.6-0.5-1-1.2-1-2.1C-76.7,221.7-76.4,221-75.8,220.5z M-74.5,224.6h1.8c0.6-0.3,1-1,1-1.7c0-0.5-0.2-1-0.6-1.3
				c-0.4-0.4-0.8-0.5-1.4-0.5c-0.5,0-1,0.2-1.4,0.5c-0.4,0.4-0.6,0.8-0.6,1.3C-75.6,223.6-75.1,224.3-74.5,224.6z"/>
			<path class="st2" d="M-70.7,218.3h-5.8V217h4l-4-3.2v-1.2h5.9v1.3h-4l4,3.2L-70.7,218.3L-70.7,218.3z"/>
			<path class="st2" d="M-70.7,210.8h-5.8v-1.3h2.3v-3h-2.3v-1.3h5.9v1.3H-73v3h2.4L-70.7,210.8L-70.7,210.8z"/>
			<path class="st2" d="M-71.8,197.6h1c0.1,0.2,0.2,0.4,0.2,0.8c0,0.7-0.3,1.1-0.8,1.2c0.6,0.5,0.9,1.3,0.9,2.2
				c0,0.6-0.2,1.2-0.5,1.6s-0.8,0.6-1.4,0.6s-1.1-0.2-1.4-0.7c-0.3-0.5-0.5-1-0.5-1.7s0.2-1.3,0.5-1.9h-0.5c-0.8,0-1.3,0.6-1.3,1.7
				c0,0.7,0.2,1.3,0.5,1.8h-1.1c-0.3-0.6-0.5-1.3-0.5-2.1c0-1.6,0.8-2.7,2.2-2.7h2.2c0.4,0,0.6-0.2,0.6-0.5
				C-71.7,197.8-71.7,197.7-71.8,197.6z M-73.1,199.7c-0.3,0.5-0.4,1-0.4,1.6c0,0.9,0.3,1.4,0.9,1.4s0.9-0.5,0.9-1.3
				c0-0.7-0.3-1.3-0.7-1.7H-73.1z"/>
		</g>
	</g>
	<polygon id="XMLID_183_" class="st5" points="-12,231 -12,219 -24.7,219 -38,219 -38,230.1 -38,250.6 -38,264 -24.7,264 -12,264 
		-12,252 -26,252 -26,231 	"/>
	<polygon id="XMLID_182_" class="st5" points="51.7,181 48.9,181 19,181 6,181 6,192 6,206 19,206 19,193 48,193 48,206 60,206 
		60,181 	"/>
	<polygon id="XMLID_181_" class="st6" points="122.4,181 119.7,181 89.8,181 77,181 77,192 77,206 89,206 89,193 119,193 119,206 
		131,206 131,181 	"/>
	<polygon id="XMLID_180_" class="st5" points="119,244 119,252 89,252 89,239 109,239 109,227 90,227 77,227 77,237.4 77,250.6 
		77,264 90,264 119.7,264 120.9,264 131,264 131,244 	"/>
	<polygon id="XMLID_179_" class="st5" points="53.2,227 48.7,227 19,227 6,227 6,237.4 6,250.6 6,264 19,264 37,264 37,252 19,252 
		19,239 48,239 48,242 60,242 60,227 	"/>
	<g id="XMLID_159_">
		<g class="st1">
			<path class="st7" d="M104.4,211.6v-9.8l-2.6,1.4v-1.8l2.8-1.6h1.6v11.8C106.2,211.6,104.4,211.6,104.4,211.6z"/>
		</g>
	</g>
	<g id="XMLID_156_">
		<g class="st1">
			<path class="st2" d="M100.4,282.7v-1.3l3.7-3.5c0.8-0.8,1.4-1.4,1.7-1.9s0.5-1,0.5-1.6c0-1.2-0.9-2-2.3-2c-1.2,0-2.3,0.5-3.3,1.5
				V272c1-0.8,2.1-1.2,3.5-1.2c1.1,0,2.1,0.3,2.8,1c0.8,0.6,1.2,1.5,1.2,2.5c0,0.8-0.2,1.5-0.6,2.2c-0.4,0.6-1,1.4-2,2.3l-2.5,2.4
				h5.5v1.7h-8.2V282.7z"/>
		</g>
	</g>
	<g id="XMLID_101_">
		<g class="st1">
			<path class="st2" d="M29.6,282.1v-1.7c1,0.6,2,0.9,3.2,0.9c0.9,0,1.6-0.2,2.1-0.6c0.6-0.4,0.9-1,0.9-1.7c0-1.4-1.2-2.3-3-2.3
				c-0.9,0-1.9,0.2-2.8,0.5l0.8-6.1h6.1v1.6h-4.7l-0.3,2.7c0.4-0.1,0.9-0.2,1.5-0.2c1.3,0,2.3,0.4,3.1,1.1c0.8,0.7,1.2,1.6,1.2,2.8
				s-0.5,2.2-1.4,2.9s-2.1,1.1-3.4,1.1C31.6,282.9,30.5,282.6,29.6,282.1z"/>
		</g>
	</g>
	<g id="XMLID_70_">
		<g class="st1">
			<path class="st2" d="M-23.2,282.7v-3.1h-6.1v-1.4l6.1-7.3h1.8v7.1h1.8v1.6h-1.8v3.1H-23.2L-23.2,282.7z M-27.2,278h4v-4.8
				L-27.2,278z"/>
		</g>
	</g>
	<g>
		<path class="st2" d="M29.5,210.9v-1.8c1,0.7,2.1,1,3.4,1c0.8,0,1.4-0.2,2-0.6s0.8-1,0.8-1.8c0-1.3-1.1-2.3-2.7-2.3
			c-0.5,0-1,0.1-1.5,0.3v-1.3l3.2-3.1h-4.8v-1.6h7.2v1.4l-3,2.9c1,0.1,1.8,0.5,2.5,1.1s1,1.5,1,2.5c0,1.2-0.4,2.2-1.3,2.9
			c-0.9,0.7-2,1.1-3.3,1.1C31.6,211.8,30.4,211.5,29.5,210.9z"/>
	</g>
</g>
</svg>
