<?xml version="1.0" encoding="utf-8"?>
<!-- Generator: Adobe Illustrator 19.0.0, SVG Export Plug-In . SVG Version: 6.00 Build 0)  -->
<svg version="1.1" id="Layer_1" xmlns="http://www.w3.org/2000/svg" xmlns:xlink="http://www.w3.org/1999/xlink" x="0px" y="0px"
	 viewBox="0 0 260 150" style="enable-background:new 0 0 260 150;" xml:space="preserve">
<style type="text/css">
	.st0{opacity:0.7;}
	.st1{enable-background:new    ;}
	.st2{fill:#999999;}
	.st3{fill:none;stroke:#999999;stroke-width:2.1483;stroke-linecap:round;stroke-linejoin:round;stroke-miterlimit:10;}
	.st4{fill:none;stroke:#999999;stroke-width:1.9357;stroke-linecap:round;stroke-linejoin:round;stroke-miterlimit:10;}
	.st5{fill:none;stroke:#999999;stroke-width:2;stroke-linecap:round;stroke-linejoin:round;stroke-miterlimit:10;}
	.st6{fill:#00ACC8;stroke:#00ACC8;stroke-width:2;stroke-linecap:round;stroke-linejoin:round;stroke-miterlimit:10;}
	.st7{fill:#00ACC8;}
</style>
<g id="XMLID_54_">
	<g id="XMLID_184_" class="st0">
		<g class="st1">
			<path class="st2" d="M73.8,16.5v-1.1c0.3,0.1,0.5,0.2,0.8,0.2c0.7,0,1.1-0.5,1.5-1.5l-2.6-5.6H75l1.8,4.1l1.7-4.1h1.4L77,14.9
				c-0.5,1.2-1.3,1.8-2.2,1.8C74.3,16.7,74,16.6,73.8,16.5z"/>
			<path class="st2" d="M82.7,9.5l0,0.8c0,0.9-0.1,1.4-0.3,2.2c-0.3,1-0.8,1.7-2,1.7c-0.2,0-0.3,0-0.4,0v-1.1c0.1,0,0.2,0,0.3,0
				c0.8,0,1.1-0.8,1.2-2.8l0-1.9h4.7v5.9h-1.3V9.5H82.7z"/>
			<path class="st2" d="M87.7,13.5c0-0.5,0.4-0.8,0.8-0.8c0.4,0,0.8,0.4,0.8,0.8c0,0.5-0.4,0.8-0.8,0.8C88.1,14.3,87.7,14,87.7,13.5
				z"/>
			<path class="st2" d="M94.2,14.2V5.9h1.3v3.3h4.3V5.9h1.3v8.3h-1.3v-3.8h-4.3v3.8H94.2z"/>
			<path class="st2" d="M103.6,13.5c-0.6-0.6-0.9-1.3-0.9-2.2c0-0.9,0.3-1.6,0.9-2.2s1.4-0.9,2.3-0.9c0.9,0,1.7,0.3,2.3,0.9
				s0.9,1.3,0.9,2.2s-0.3,1.6-0.9,2.2c-0.6,0.6-1.4,0.9-2.3,0.9C105,14.4,104.2,14.1,103.6,13.5z M107.3,12.7
				c0.4-0.4,0.5-0.8,0.5-1.4c0-0.5-0.2-1-0.5-1.4c-0.4-0.4-0.8-0.6-1.4-0.6c-0.5,0-1,0.2-1.4,0.6c-0.4,0.4-0.5,0.8-0.5,1.4
				c0,0.6,0.2,1,0.5,1.4c0.4,0.4,0.8,0.6,1.4,0.6C106.5,13.2,106.9,13.1,107.3,12.7z"/>
			<path class="st2" d="M110.5,14.2V8.4h3.2c1.2,0,1.8,0.6,1.8,1.5c0,0.6-0.3,1.1-0.8,1.3c0.8,0.2,1.1,0.7,1.1,1.5
				c0,1-0.8,1.6-2,1.6H110.5z M111.8,10.7h1.6c0.6,0,0.9-0.2,0.9-0.6c0-0.4-0.3-0.7-0.9-0.7h-1.6V10.7z M111.8,13.2h1.9
				c0.6,0,1-0.3,1-0.7c0-0.5-0.4-0.7-1-0.7h-1.9V13.2z"/>
			<path class="st2" d="M118,13.5c-0.6-0.6-0.9-1.3-0.9-2.2c0-0.9,0.3-1.6,0.9-2.2s1.4-0.9,2.3-0.9c0.9,0,1.7,0.3,2.3,0.9
				s0.9,1.3,0.9,2.2s-0.3,1.6-0.9,2.2c-0.6,0.6-1.4,0.9-2.3,0.9C119.3,14.4,118.6,14.1,118,13.5z M121.6,12.7
				c0.4-0.4,0.5-0.8,0.5-1.4c0-0.5-0.2-1-0.5-1.4c-0.4-0.4-0.8-0.6-1.4-0.6c-0.5,0-1,0.2-1.4,0.6c-0.4,0.4-0.5,0.8-0.5,1.4
				c0,0.6,0.2,1,0.5,1.4c0.4,0.4,0.8,0.6,1.4,0.6C120.8,13.2,121.3,13.1,121.6,12.7z"/>
			<path class="st2" d="M125.4,13.3c-0.6-0.7-0.8-1.6-0.8-2.8c0-1.3,0.3-2.3,0.9-3c0.3-0.3,0.7-0.6,1.1-0.9c0.5-0.2,1-0.4,1.5-0.6
				c0.5-0.1,1.2-0.3,2-0.4v1.2c-1.3,0.2-2.1,0.4-2.4,0.5c-0.9,0.3-1.5,0.8-1.7,1.4c-0.1,0.3-0.2,0.6-0.2,1c0.5-0.7,1.4-1.2,2.4-1.2
				c0.8,0,1.4,0.2,1.9,0.7c0.5,0.5,0.8,1.1,0.8,1.9c0,0.9-0.3,1.6-0.9,2.2c-0.6,0.6-1.3,0.8-2.1,0.8C126.7,14.4,125.9,14,125.4,13.3
				z M129,12.7c0.3-0.3,0.5-0.8,0.5-1.3c0-1-0.7-1.7-1.7-1.7c-0.8,0-1.6,0.5-2,1.2c0.1,1.4,0.8,2.3,1.9,2.3
				C128.2,13.2,128.6,13.1,129,12.7z"/>
			<path class="st2" d="M131.6,16.5v-1.1c0.3,0.1,0.5,0.2,0.8,0.2c0.7,0,1.1-0.5,1.5-1.5l-2.6-5.6h1.4l1.8,4.1l1.7-4.1h1.4l-2.8,6.5
				c-0.5,1.2-1.3,1.8-2.2,1.8C132.1,16.7,131.8,16.6,131.6,16.5z"/>
			<path class="st2" d="M140.1,14.2V9.5h-2V8.4h5.2v1.1h-2v4.7H140.1z"/>
			<path class="st2" d="M144.9,13.5c-0.6-0.6-0.9-1.3-0.9-2.2c0-0.9,0.3-1.6,0.9-2.2c0.6-0.6,1.4-0.9,2.3-0.9c0.9,0,1.7,0.3,2.3,0.9
				c0.6,0.6,0.9,1.3,0.9,2.2s-0.3,1.6-0.9,2.2c-0.6,0.6-1.4,0.9-2.3,0.9C146.3,14.4,145.5,14.1,144.9,13.5z M148.6,12.7
				c0.4-0.4,0.5-0.8,0.5-1.4c0-0.5-0.2-1-0.5-1.4c-0.4-0.4-0.8-0.6-1.4-0.6c-0.5,0-1,0.2-1.4,0.6c-0.4,0.4-0.5,0.8-0.5,1.4
				c0,0.6,0.2,1,0.5,1.4s0.8,0.6,1.4,0.6C147.8,13.2,148.2,13.1,148.6,12.7z"/>
			<path class="st2" d="M151.9,14.2V8.4h3.2c1.2,0,1.8,0.6,1.8,1.5c0,0.6-0.3,1.1-0.8,1.3c0.8,0.2,1.1,0.7,1.1,1.5
				c0,1-0.8,1.6-2,1.6H151.9z M153.1,10.7h1.6c0.6,0,0.9-0.2,0.9-0.6c0-0.4-0.3-0.7-0.9-0.7h-1.6V10.7z M153.1,13.2h1.9
				c0.6,0,1-0.3,1-0.7c0-0.5-0.4-0.7-1-0.7h-1.9V13.2z"/>
			<path class="st2" d="M159.3,13.5c-0.6-0.6-0.9-1.3-0.9-2.2c0-0.9,0.3-1.6,0.9-2.2c0.6-0.6,1.4-0.9,2.3-0.9c0.7,0,1.3,0.1,1.8,0.4
				v1.1c-0.5-0.2-1-0.4-1.6-0.4c-0.6,0-1.1,0.2-1.5,0.5c-0.4,0.4-0.6,0.8-0.6,1.4s0.2,1,0.6,1.4c0.4,0.4,0.9,0.5,1.5,0.5
				c0.6,0,1.2-0.1,1.7-0.4v1.1c-0.6,0.3-1.2,0.5-1.9,0.5C160.7,14.4,159.9,14.1,159.3,13.5z"/>
			<path class="st2" d="M165,14.2V8.4h1.3v2.2l2.3-2.2h1.6l-2.8,2.6l3.2,3.2h-1.8l-2.6-2.6v2.6H165z"/>
			<path class="st2" d="M177.5,13.1v1c-0.2,0.1-0.4,0.2-0.8,0.2c-0.7,0-1.1-0.3-1.2-0.8c-0.5,0.6-1.3,0.9-2.2,0.9
				c-0.6,0-1.2-0.2-1.6-0.5s-0.6-0.8-0.6-1.4c0-0.6,0.2-1.1,0.7-1.4c0.5-0.3,1-0.5,1.7-0.5c0.7,0,1.3,0.2,1.9,0.5v-0.3
				c0-0.8-0.6-1.3-1.7-1.3c-0.7,0-1.3,0.2-1.8,0.5V8.7c0.6-0.3,1.3-0.5,2.1-0.5c1.6,0,2.7,0.8,2.7,2.2v2.2c0,0.4,0.2,0.6,0.5,0.6
				C177.3,13.2,177.4,13.2,177.5,13.1z M175.4,11.9c-0.5-0.3-1-0.4-1.6-0.4c-0.9,0-1.4,0.3-1.4,0.9c0,0.6,0.5,0.9,1.3,0.9
				c0.7,0,1.3-0.3,1.7-0.7V11.9z"/>
			<path class="st2" d="M178.3,14.2l1.7-2.3c-0.8-0.2-1.3-0.8-1.3-1.7c0-1.1,0.7-1.8,2.2-1.8h3.1v5.9h-1.3v-2h-1.4l-1.5,2H178.3z
				 M182.6,11.2V9.4H181c-0.7,0-1.1,0.3-1.1,0.9s0.4,0.9,1.1,0.9H182.6z"/>
		</g>
		<line id="XMLID_193_" class="st3" x1="38.7" y1="22.3" x2="219.2" y2="22.3"/>
		<line id="XMLID_190_" class="st4" x1="22.2" y1="143.3" x2="22.2" y2="24.2"/>
		<line id="XMLID_187_" class="st4" x1="237" y1="143.3" x2="237" y2="24.2"/>
		<g class="st1">
			<path class="st2" d="M253.8,143.9h-8.3V138h1.2v4.6h1.8v-2.2c0-0.9,0.3-1.7,0.8-2.2c0.5-0.5,1.1-0.8,1.9-0.8
				c0.8,0,1.5,0.3,1.9,0.8c0.5,0.5,0.7,1.3,0.7,2.2V143.9z M252.6,142.6v-2.1c0-1.2-0.5-1.8-1.5-1.8s-1.5,0.7-1.5,1.8v2.1H252.6z"/>
			<path class="st2" d="M256.1,136.4h-1.1c0.1-0.3,0.2-0.5,0.2-0.8c0-0.7-0.5-1.1-1.5-1.5l-5.6,2.6v-1.4l4.1-1.8l-4.1-1.7v-1.4
				l6.5,2.8c1.2,0.5,1.8,1.3,1.8,2.2C256.3,135.8,256.2,136.2,256.1,136.4z"/>
			<path class="st2" d="M253.8,127.8h-4.7v2H248v-5.2h1.1v2h4.7V127.8z"/>
			<path class="st2" d="M253.1,123c-0.6,0.6-1.3,0.9-2.2,0.9c-0.9,0-1.6-0.3-2.2-0.9c-0.6-0.6-0.9-1.4-0.9-2.3
				c0-0.9,0.3-1.7,0.9-2.3s1.3-0.9,2.2-0.9s1.6,0.3,2.2,0.9c0.6,0.6,0.9,1.4,0.9,2.3C254,121.6,253.7,122.4,253.1,123z M252.3,119.3
				c-0.4-0.4-0.8-0.5-1.4-0.5c-0.5,0-1,0.2-1.4,0.5c-0.4,0.4-0.6,0.8-0.6,1.4s0.2,1,0.6,1.4c0.4,0.4,0.8,0.5,1.4,0.5
				c0.6,0,1-0.2,1.4-0.5c0.4-0.4,0.6-0.8,0.6-1.4C252.8,120.2,252.6,119.7,252.3,119.3z"/>
			<path class="st2" d="M253.8,116.1H248v-3.2c0-1.2,0.6-1.8,1.5-1.8c0.6,0,1.1,0.3,1.3,0.8c0.2-0.8,0.7-1.1,1.5-1.1
				c1,0,1.6,0.8,1.6,2.1V116.1z M250.3,114.8v-1.6c0-0.6-0.2-0.9-0.6-0.9c-0.4,0-0.7,0.3-0.7,0.9v1.6H250.3z M252.8,114.8v-1.9
				c0-0.6-0.3-1-0.7-1c-0.5,0-0.7,0.4-0.7,1v1.9H252.8z"/>
			<path class="st2" d="M253.1,108.7c-0.6,0.6-1.3,0.9-2.2,0.9c-0.9,0-1.6-0.3-2.2-0.9c-0.6-0.6-0.9-1.4-0.9-2.3
				c0-0.7,0.1-1.3,0.4-1.8h1.1c-0.2,0.5-0.4,1-0.4,1.6c0,0.6,0.2,1.1,0.5,1.5c0.4,0.4,0.8,0.6,1.4,0.6s1-0.2,1.4-0.6
				c0.4-0.4,0.5-0.9,0.5-1.5c0-0.6-0.1-1.2-0.4-1.7h1.1c0.3,0.6,0.5,1.2,0.5,1.9C254,107.3,253.7,108,253.1,108.7z"/>
			<path class="st2" d="M253.8,103H248v-1.3h2.2l-2.2-2.3v-1.6l2.6,2.8l3.2-3.2v1.8l-2.6,2.6h2.6V103z"/>
			<path class="st2" d="M253.8,96.2H248v-1.3h4l-4-3.2v-1.2h5.9v1.3h-4l4,3.2V96.2z"/>
			<path class="st2" d="M245.2,87.9v-1.1c0.6,0,1-0.4,1-1c0-0.6-0.4-1-1-1v-1.1c1.2,0,2,0.9,2,2.1C247.2,87.1,246.4,87.9,245.2,87.9
				z M253.8,88.7H248v-1.3h4l-4-3.2V83h5.9v1.3h-4l4,3.2V88.7z"/>
			<path class="st2" d="M249.1,76.1l0.8,0c0.9,0,1.4,0.1,2.2,0.3c1,0.3,1.7,0.8,1.7,2c0,0.2,0,0.3,0,0.4h-1.1c0-0.1,0-0.2,0-0.3
				c0-0.8-0.8-1.1-2.8-1.2l-1.9,0v-4.7h5.9v1.3h-4.7V76.1z"/>
			<path class="st2" d="M248.7,70.3c-0.6-0.6-0.9-1.3-0.9-2.2c0-0.6,0.2-1.1,0.5-1.5c0.6-0.9,1.6-1.2,2.6-1.2h0.3v4.5
				c1-0.2,1.6-1,1.6-2.2c0-0.7-0.2-1.3-0.5-1.9h1.1c0.4,0.5,0.6,1.3,0.6,2.2s-0.3,1.7-0.9,2.3c-0.6,0.6-1.3,0.9-2.2,0.9
				C250,71.2,249.3,70.9,248.7,70.3z M250.3,66.7c-0.4,0-0.7,0.1-1,0.4c-0.3,0.3-0.4,0.6-0.4,1.1c0,0.9,0.6,1.5,1.4,1.6V66.7z"/>
			<path class="st2" d="M253.1,63.4c-0.6,0.6-1.3,0.9-2.2,0.9c-0.9,0-1.6-0.3-2.2-0.9c-0.6-0.6-0.9-1.4-0.9-2.3
				c0-0.7,0.1-1.3,0.4-1.8h1.1c-0.2,0.5-0.4,1-0.4,1.6c0,0.6,0.2,1.1,0.5,1.5c0.4,0.4,0.8,0.6,1.4,0.6s1-0.2,1.4-0.6
				c0.4-0.4,0.5-0.9,0.5-1.5c0-0.6-0.1-1.2-0.4-1.7h1.1c0.3,0.6,0.5,1.2,0.5,1.9C254,62.1,253.7,62.8,253.1,63.4z"/>
			<path class="st2" d="M253.1,57.4c-0.6,0.6-1.3,0.9-2.2,0.9c-0.9,0-1.6-0.3-2.2-0.9s-0.9-1.4-0.9-2.3c0-0.9,0.3-1.7,0.9-2.3
				s1.3-0.9,2.2-0.9s1.6,0.3,2.2,0.9c0.6,0.6,0.9,1.4,0.9,2.3C254,56,253.7,56.8,253.1,57.4z M252.3,53.7c-0.4-0.4-0.8-0.5-1.4-0.5
				c-0.5,0-1,0.2-1.4,0.5c-0.4,0.4-0.6,0.8-0.6,1.4c0,0.5,0.2,1,0.6,1.4c0.4,0.4,0.8,0.5,1.4,0.5c0.6,0,1-0.2,1.4-0.5
				c0.4-0.4,0.6-0.8,0.6-1.4C252.8,54.5,252.6,54.1,252.3,53.7z"/>
			<path class="st2" d="M253.8,50.5H248V45h5.9v1.3h-4.7v2.9h4.7V50.5z"/>
			<path class="st2" d="M252.7,37.3h1c0.1,0.2,0.2,0.4,0.2,0.8c0,0.7-0.3,1.1-0.8,1.2c0.6,0.5,0.9,1.3,0.9,2.2
				c0,0.6-0.2,1.2-0.5,1.6s-0.8,0.6-1.4,0.6c-0.6,0-1.1-0.2-1.4-0.7c-0.3-0.5-0.5-1-0.5-1.7c0-0.7,0.2-1.3,0.5-1.9h-0.3
				c-0.8,0-1.3,0.6-1.3,1.7c0,0.7,0.2,1.3,0.5,1.8h-1.1c-0.3-0.6-0.5-1.3-0.5-2.1c0-1.6,0.8-2.7,2.2-2.7h2.2c0.4,0,0.6-0.2,0.6-0.5
				C252.8,37.5,252.8,37.4,252.7,37.3z M251.4,39.4c-0.3,0.5-0.4,1-0.4,1.6c0,0.9,0.3,1.4,0.9,1.4c0.6,0,0.9-0.5,0.9-1.3
				c0-0.7-0.3-1.3-0.7-1.7H251.4z"/>
			<path class="st2" d="M248.7,30.6c0.6-0.5,1.3-0.8,2.2-0.8c0.9,0,1.6,0.3,2.2,0.8c0.6,0.5,0.9,1.2,0.9,2c0,0.9-0.3,1.6-1,2.1h3.2
				v1.3H248v-1.3h0.8c-0.6-0.5-1-1.2-1-2.1C247.8,31.9,248.1,31.2,248.7,30.6z M250,34.8h1.8c0.6-0.3,1-1,1-1.7c0-0.5-0.2-1-0.6-1.3
				c-0.4-0.4-0.8-0.5-1.4-0.5c-0.5,0-1,0.2-1.4,0.5c-0.4,0.4-0.6,0.8-0.6,1.3C248.9,33.8,249.4,34.4,250,34.8z"/>
			<path class="st2" d="M253.8,28.4H248v-1.3h2.2l-2.2-2.3v-1.6l2.6,2.8l3.2-3.2v1.8l-2.6,2.6h2.6V28.4z"/>
		</g>
		<g class="st1">
			<path class="st2" d="M15.6,110.8h-1.1c0.1-0.3,0.2-0.5,0.2-0.8c0-0.7-0.5-1.1-1.5-1.5L7.5,111v-1.4l4.1-1.8l-4.1-1.7v-1.4
				l6.5,2.8c1.2,0.5,1.8,1.3,1.8,2.2C15.8,110.2,15.7,110.5,15.6,110.8z"/>
			<path class="st2" d="M8.6,101.8l0.8,0c0.9,0,1.4,0.1,2.2,0.3c1,0.3,1.7,0.8,1.7,2c0,0.2,0,0.3,0,0.4h-1.1c0-0.1,0-0.2,0-0.3
				c0-0.8-0.8-1.1-2.8-1.2l-1.9,0v-4.7h5.9v1.3H8.6V101.8z"/>
			<path class="st2" d="M12.6,96.8c-0.5,0-0.8-0.4-0.8-0.8c0-0.4,0.4-0.8,0.8-0.8c0.5,0,0.8,0.4,0.8,0.8
				C13.4,96.4,13,96.8,12.6,96.8z"/>
			<path class="st2" d="M13.3,90.3H5v-5.8h1.2V89h7.1V90.3z"/>
			<path class="st2" d="M8.2,79.5c0.6-0.5,1.3-0.8,2.2-0.8c0.9,0,1.6,0.3,2.2,0.8c0.6,0.5,0.9,1.2,0.9,2c0,0.9-0.3,1.6-1,2.1h3.2
				v1.3H7.5v-1.3h0.8c-0.6-0.5-1-1.2-1-2.1C7.3,80.7,7.6,80,8.2,79.5z M9.5,83.6h1.8c0.6-0.3,1-1,1-1.7c0-0.5-0.2-1-0.6-1.3
				c-0.4-0.4-0.8-0.5-1.4-0.5c-0.5,0-1,0.2-1.4,0.5c-0.4,0.4-0.6,0.8-0.6,1.3C8.4,82.6,8.9,83.3,9.5,83.6z"/>
			<path class="st2" d="M13.3,77.3H7.5V76h4l-4-3.2v-1.2h5.9v1.3h-4l4,3.2V77.3z"/>
			<path class="st2" d="M13.3,69.8H7.5v-1.3h2.3v-3H7.5v-1.3h5.9v1.3h-2.4v3h2.4V69.8z"/>
			<path class="st2" d="M12.2,56.6h1c0.1,0.2,0.2,0.4,0.2,0.8c0,0.7-0.3,1.1-0.8,1.2c0.6,0.5,0.9,1.3,0.9,2.2c0,0.6-0.2,1.2-0.5,1.6
				s-0.8,0.6-1.4,0.6c-0.6,0-1.1-0.2-1.4-0.7c-0.3-0.5-0.5-1-0.5-1.7c0-0.7,0.2-1.3,0.5-1.9H9.7c-0.8,0-1.3,0.6-1.3,1.7
				c0,0.7,0.2,1.3,0.5,1.8H7.8c-0.3-0.6-0.5-1.3-0.5-2.1c0-1.6,0.8-2.7,2.2-2.7h2.2c0.4,0,0.6-0.2,0.6-0.5
				C12.3,56.8,12.3,56.7,12.2,56.6z M10.9,58.7c-0.3,0.5-0.4,1-0.4,1.6c0,0.9,0.3,1.4,0.9,1.4c0.6,0,0.9-0.5,0.9-1.3
				c0-0.7-0.3-1.3-0.7-1.7H10.9z"/>
		</g>
	</g>
	<polygon id="XMLID_183_" class="st5" points="72,90 72,78 59.3,78 46,78 46,89.1 46,109.6 46,123 59.3,123 72,123 72,111 58,111 
		58,90 	"/>
	<polygon id="XMLID_182_" class="st6" points="135.7,40 132.9,40 103,40 90,40 90,51 90,65 103,65 103,52 132,52 132,65 144,65 
		144,40 	"/>
	<polygon id="XMLID_181_" class="st5" points="206.4,40 203.7,40 173.8,40 161,40 161,51 161,65 173,65 173,52 203,52 203,65 
		215,65 215,40 	"/>
	<polygon id="XMLID_180_" class="st5" points="203,103 203,111 173,111 173,98 193,98 193,86 174,86 161,86 161,96.4 161,109.6 
		161,123 174,123 203.7,123 204.9,123 215,123 215,103 	"/>
	<polygon id="XMLID_179_" class="st5" points="137.2,86 132.7,86 103,86 90,86 90,96.4 90,109.6 90,123 103,123 121,123 121,111 
		103,111 103,98 132,98 132,101 144,101 144,86 	"/>
	<g id="XMLID_159_">
		<g class="st1">
			<path class="st2" d="M188.4,70.6v-9.8l-2.6,1.4v-1.8l2.8-1.6h1.6v11.8H188.4z"/>
		</g>
	</g>
	<g id="XMLID_156_">
		<g class="st1">
			<path class="st2" d="M184.4,141.7v-1.3l3.7-3.5c0.8-0.8,1.4-1.4,1.7-1.9c0.3-0.5,0.5-1,0.5-1.6c0-1.2-0.9-2-2.3-2
				c-1.2,0-2.3,0.5-3.3,1.5v-1.9c1-0.8,2.1-1.2,3.5-1.2c1.1,0,2.1,0.3,2.8,1c0.8,0.6,1.2,1.5,1.2,2.5c0,0.8-0.2,1.5-0.6,2.2
				c-0.4,0.6-1,1.4-2,2.3l-2.5,2.4h5.5v1.7H184.4z"/>
		</g>
	</g>
	<g id="XMLID_101_">
		<g class="st1">
			<path class="st2" d="M113.6,141.1v-1.7c1,0.6,2,0.9,3.2,0.9c0.9,0,1.6-0.2,2.1-0.6c0.6-0.4,0.9-1,0.9-1.7c0-1.4-1.2-2.3-3-2.3
				c-0.9,0-1.9,0.2-2.8,0.5l0.8-6.1h6.1v1.6h-4.7l-0.3,2.7c0.4-0.1,0.9-0.2,1.5-0.2c1.3,0,2.3,0.4,3.1,1.1c0.8,0.7,1.2,1.6,1.2,2.8
				c0,1.2-0.5,2.2-1.4,2.9c-0.9,0.7-2.1,1.1-3.4,1.1C115.6,141.9,114.5,141.6,113.6,141.1z"/>
		</g>
	</g>
	<g id="XMLID_70_">
		<g class="st1">
			<path class="st2" d="M60.8,141.7v-3.1h-6.1v-1.4l6.1-7.3h1.8v7.1h1.8v1.6h-1.8v3.1H60.8z M56.8,137h4v-4.8L56.8,137z"/>
		</g>
	</g>
	<g class="st1">
		<path class="st7" d="M113.5,69.9v-1.8c1,0.7,2.1,1,3.4,1c0.8,0,1.4-0.2,2-0.6c0.6-0.4,0.8-1,0.8-1.8c0-1.3-1.1-2.3-2.7-2.3
			c-0.5,0-1,0.1-1.5,0.3v-1.3l3.2-3.1h-4.8v-1.6h7.2v1.4l-3,2.9c1,0.1,1.8,0.5,2.5,1.1s1,1.5,1,2.5c0,1.2-0.4,2.2-1.3,2.9
			c-0.9,0.7-2,1.1-3.3,1.1C115.6,70.8,114.4,70.5,113.5,69.9z"/>
	</g>
</g>
</svg>
