<?xml version="1.0" encoding="utf-8"?>
<!-- Generator: Adobe Illustrator 19.0.0, SVG Export Plug-In . SVG Version: 6.00 Build 0)  -->
<svg version="1.1" id="Layer_1" xmlns="http://www.w3.org/2000/svg" xmlns:xlink="http://www.w3.org/1999/xlink" x="0px" y="0px"
	 viewBox="0 0 85 50" style="enable-background:new 0 0 85 50;" xml:space="preserve">
<style type="text/css">
	.st0{fill:none;stroke:#999999;stroke-linecap:round;stroke-linejoin:round;stroke-miterlimit:10;}
	.st1{fill:#00ACC8;stroke:#00ACC8;stroke-linecap:round;stroke-linejoin:round;stroke-miterlimit:10;}
	.st2{fill:#999999;}
	.st3{fill:#00ACC8;}
</style>
<g id="XMLID_54_">
	<polygon id="XMLID_183_" class="st0" points="13.6,24.5 13.6,18.5 8.1,18.5 0.6,18.5 0.6,23.6 0.6,33.7 0.6,40.5 8.1,40.5 
		13.6,40.5 13.6,34.5 6.6,34.5 6.6,24.5 	"/>
	<polygon id="XMLID_182_" class="st1" points="45.7,0.5 44.3,0.5 29.6,0.5 22.6,0.5 22.6,4.9 22.6,12.5 28.6,12.5 28.6,5.5 
		43.6,5.5 43.6,12.5 49.6,12.5 49.6,0.5 	"/>
	<polygon id="XMLID_181_" class="st0" points="80.4,0.5 79.1,0.5 64.4,0.5 57.6,0.5 57.6,4.9 57.6,12.5 63.6,12.5 63.6,5.5 
		78.6,5.5 78.6,12.5 83.6,12.5 83.6,0.5 	"/>
	<polygon id="XMLID_180_" class="st0" points="78.6,30.5 78.6,34.5 63.6,34.5 63.6,28.5 73.6,28.5 73.6,22.5 64.5,22.5 57.6,22.5 
		57.6,27.2 57.6,33.7 57.6,40.5 64.5,40.5 79.1,40.5 79.7,40.5 83.6,40.5 83.6,30.5 	"/>
	<polygon id="XMLID_179_" class="st0" points="46.4,22.5 44.2,22.5 29.6,22.5 22.6,22.5 22.6,27.2 22.6,33.7 22.6,40.5 29.6,40.5 
		37.6,40.5 37.6,34.5 28.6,34.5 28.6,28.5 43.6,28.5 43.6,29.5 49.6,29.5 49.6,22.5 	"/>
	<g id="XMLID_77_">
		<g id="XMLID_104_">
			<path id="XMLID_105_" class="st2" d="M71.6,14.5V9.7l-1.3,0.7V9.5l1.4-0.8h0.8v5.8H71.6z"/>
		</g>
	</g>
	<g id="XMLID_74_">
		<g id="XMLID_96_">
			<path id="XMLID_101_" class="st2" d="M69.6,49.4v-0.7l1.8-1.7c0.4-0.4,0.7-0.7,0.9-0.9c0.2-0.2,0.2-0.5,0.2-0.8
				c0-0.6-0.5-1-1.1-1c-0.6,0-1.1,0.2-1.6,0.7v-1c0.5-0.4,1.1-0.6,1.7-0.6c0.5,0,1,0.2,1.4,0.5c0.4,0.3,0.6,0.7,0.6,1.2
				c0,0.4-0.1,0.8-0.3,1.1c-0.2,0.3-0.5,0.7-1,1.1l-1.2,1.2h2.7v0.8H69.6z"/>
		</g>
	</g>
	<g id="XMLID_71_">
		<g id="XMLID_91_">
			<path id="XMLID_93_" class="st2" d="M34.8,49.1v-0.9c0.5,0.3,1,0.4,1.6,0.4c0.4,0,0.8-0.1,1.1-0.3c0.3-0.2,0.4-0.5,0.4-0.9
				c0-0.7-0.6-1.1-1.5-1.1c-0.4,0-0.9,0.1-1.4,0.2l0.4-3h3v0.8h-2.3l-0.2,1.3c0.2-0.1,0.5-0.1,0.7-0.1c0.6,0,1.1,0.2,1.5,0.5
				c0.4,0.3,0.6,0.8,0.6,1.4c0,0.6-0.2,1.1-0.7,1.4c-0.4,0.4-1,0.5-1.7,0.5C35.8,49.5,35.3,49.4,34.8,49.1z"/>
		</g>
	</g>
	<g id="XMLID_65_">
		<g id="XMLID_97_">
			<path id="XMLID_98_" class="st2" d="M8.9,49.4v-1.5h-3v-0.7l3-3.6h0.9v3.5h0.9v0.8H9.8v1.5H8.9z M6.9,47.1h2v-2.3L6.9,47.1z"/>
		</g>
	</g>
	<g id="XMLID_62_">
		<path id="XMLID_63_" class="st3" d="M34.8,14.2v-0.9c0.5,0.3,1,0.5,1.7,0.5c0.4,0,0.7-0.1,1-0.3c0.3-0.2,0.4-0.5,0.4-0.9
			c0-0.7-0.5-1.1-1.3-1.1c-0.3,0-0.5,0-0.7,0.1V11l1.6-1.5H35V8.7h3.5v0.7L37,10.9c0.5,0,0.9,0.2,1.2,0.6c0.3,0.3,0.5,0.7,0.5,1.2
			c0,0.6-0.2,1.1-0.7,1.4c-0.4,0.4-1,0.5-1.6,0.5C35.8,14.6,35.2,14.5,34.8,14.2z"/>
	</g>
</g>
</svg>
